<svg id="Layer_1" data-name="Layer 1" xmlns="http://www.w3.org/2000/svg" viewBox="0 0 260 260"><defs><style>.cls-1{fill:#f4f2f2;}</style></defs><title>code</title><path id="FontAwsome_code_" data-name="FontAwsome code " class="cls-1" d="M114,229.81,90.12,222.9a4.7,4.7,0,0,1-3.2-5.82h0L140.23,33.39a4.69,4.69,0,0,1,5.82-3.2h0l23.83,6.91a4.69,4.69,0,0,1,3.2,5.81h0L119.77,226.59a4.69,4.69,0,0,1-5.79,3.23ZM69.42,186l17-18.12a4.69,4.69,0,0,0-.22-6.63l-.1-.09L50.7,130,86.09,98.86a4.66,4.66,0,0,0,.45-6.57l-.13-.15L69.42,74a4.71,4.71,0,0,0-6.64-.2h0L6.49,126.55a4.65,4.65,0,0,0-.25,6.58l.25.24,56.28,52.77a4.67,4.67,0,0,0,6.59-.13l.06-.06Zm127.81.24,56.28-52.77a4.65,4.65,0,0,0,.25-6.58,1.88,1.88,0,0,0-.25-.24L197.23,73.78a4.74,4.74,0,0,0-6.65.19l-17,18.13a4.69,4.69,0,0,0,.22,6.63l.1.09L209.3,130l-35.4,31.13a4.66,4.66,0,0,0-.45,6.57l.13.15,17,18.13a4.71,4.71,0,0,0,6.64.24h0Z"/></svg>