<svg id="Layer_1" data-name="Layer 1" xmlns="http://www.w3.org/2000/svg" viewBox="0 0 260 260"><defs><style>.cls-1{fill:#f4f2f2;}</style></defs><title>compass</title><path id="FontAwsome_drafting-compass_" data-name="FontAwsome drafting-compass " class="cls-1" d="M208.53,164.54a123.58,123.58,0,0,1-32.24,19.16l21.24,36.8,21.07,9a6.25,6.25,0,0,0,8.2-3.3,6,6,0,0,0,.46-1.7L230,201.74Zm16.6-36.93A6.27,6.27,0,0,0,223,119l-.24-.14-11-6.08a6.25,6.25,0,0,0-8.3,2.24,86.65,86.65,0,0,1-100.6,35.47l26.31-45.57c.27,0,.52.08.79.08s.53-.07.8-.08l20,34.57A74.49,74.49,0,0,0,183,120.4L162.8,85.35a37,37,0,0,0,4.71-17.85A37.5,37.5,0,1,0,97.22,85.34L70.54,131.55a87.3,87.3,0,0,1-13.16-15.23A6.26,6.26,0,0,0,49,114.23l-10.84,6.28a6.27,6.27,0,0,0-2.34,8.54c0,.08.09.16.14.24a112,112,0,0,0,21.87,24.23L30,201.74l2.73,22.76A6.24,6.24,0,0,0,39.69,230a6.35,6.35,0,0,0,1.71-.45l21.07-9,27.65-47.91a112.17,112.17,0,0,0,135-45ZM130,55a12.5,12.5,0,1,1-12.5,12.5A12.5,12.5,0,0,1,130,55Z"/></svg>