<svg id="Layer_1" data-name="Layer 1" xmlns="http://www.w3.org/2000/svg" viewBox="0 0 550 550"><defs><style>.cls-1{fill:#ea4c89;stroke:#ea4c89;}.cls-1,.cls-3{stroke-miterlimit:10;stroke-width:18px;}.cls-2{fill:#fff;}.cls-3{fill:none;stroke:#fff;}</style></defs><title>dribble</title><path class="cls-1" d="M56,44.5H406a100,100,0,0,1,100,100v349a12,12,0,0,1-12,12H144a100,100,0,0,1-100-100V56.5a12,12,0,0,1,12-12Z"/><path class="cls-2" d="M275,137.5a137.49,137.49,0,1,1-97.23,40.27A136.6,136.6,0,0,1,275,137.5m0-18A155.5,155.5,0,1,0,430.5,275,155.5,155.5,0,0,0,275,119.5Z"/><path class="cls-3" d="M213.5,145.5s66,66,120,257"/><path class="cls-3" d="M138.5,237.5s159,11,222-70"/><path class="cls-3" d="M199.65,402.5s69.85-112,207.85-84"/></svg>