<svg xmlns="http://www.w3.org/2000/svg" width="29.886" height="24" viewBox="0 0 29.886 24">
  <path id="FontAwsome_angle-double-right_" data-name="FontAwsome (angle-double-right)" d="M39.712,109.225l-10.2,10.2a1.792,1.792,0,0,1-2.542,0l-1.694-1.694a1.792,1.792,0,0,1,0-2.542l7.228-7.228-7.228-7.228a1.792,1.792,0,0,1,0-2.542l1.687-1.709a1.792,1.792,0,0,1,2.542,0l10.2,10.2A1.794,1.794,0,0,1,39.712,109.225Zm14.4-2.549-10.2-10.2a1.792,1.792,0,0,0-2.542,0l-1.694,1.694a1.792,1.792,0,0,0,0,2.542l7.228,7.228-7.228,7.228a1.792,1.792,0,0,0,0,2.542l1.694,1.694a1.792,1.792,0,0,0,2.542,0l10.2-10.2A1.783,1.783,0,0,0,54.107,106.675Z" transform="translate(-24.75 -95.95)"/>
</svg>
