<svg xmlns="http://www.w3.org/2000/svg" width="44" height="44.002" viewBox="0 0 44 44.002">
  <path id="FontAwsome_drafting-compass_" data-name="FontAwsome (drafting-compass)" d="M39.275,29.6a27.227,27.227,0,0,1-7.093,4.215l4.673,8.095,4.636,1.98a1.375,1.375,0,0,0,1.905-1.1l.6-5.006Zm3.652-8.126a1.379,1.379,0,0,0-.52-1.924l-2.412-1.338a1.377,1.377,0,0,0-1.827.492A19.27,19.27,0,0,1,22,27.5a19.109,19.109,0,0,1-5.965-.991l5.789-10.027c.06,0,.115.018.175.018s.116-.016.175-.018l4.391,7.606a16.37,16.37,0,0,0,7.1-4.2l-4.451-7.71A8.144,8.144,0,0,0,30.251,8.25a8.25,8.25,0,1,0-16.5,0,8.153,8.153,0,0,0,1.036,3.924L8.916,22.342A19.214,19.214,0,0,1,6.022,18.99a1.378,1.378,0,0,0-1.837-.458L1.8,19.913a1.378,1.378,0,0,0-.485,1.931,24.658,24.658,0,0,0,4.811,5.33L0,37.784.6,42.79a1.375,1.375,0,0,0,1.905,1.1l4.636-1.98,6.084-10.539A24.669,24.669,0,0,0,22,33,24.786,24.786,0,0,0,42.927,21.473ZM22,5.5a2.75,2.75,0,1,1-2.75,2.75A2.75,2.75,0,0,1,22,5.5Z" fill="#fff"/>
</svg>
