<svg xmlns="http://www.w3.org/2000/svg" width="44.01" height="44" viewBox="0 0 44.01 44">
  <path id="FontAwsome_instagram_" data-name="FontAwsome (instagram)" d="M21.935,42.544A11.281,11.281,0,1,0,33.216,53.825,11.263,11.263,0,0,0,21.935,42.544Zm0,18.615a7.334,7.334,0,1,1,7.334-7.334,7.348,7.348,0,0,1-7.334,7.334ZM36.309,42.083a2.631,2.631,0,1,1-2.631-2.631A2.625,2.625,0,0,1,36.309,42.083Zm7.472,2.671c-.167-3.525-.972-6.647-3.554-9.219s-5.695-3.377-9.219-3.554c-3.633-.206-14.521-.206-18.154,0-3.515.167-6.637.972-9.219,3.544S.256,41.219.08,44.743C-.127,48.376-.127,59.264.08,62.9c.167,3.525.972,6.647,3.554,9.219s5.695,3.377,9.219,3.554c3.633.206,14.521.206,18.154,0,3.525-.167,6.647-.972,9.219-3.554S43.6,66.422,43.78,62.9c.206-3.633.206-14.511,0-18.144ZM39.087,66.795A7.425,7.425,0,0,1,34.9,70.977c-2.9,1.149-9.769.884-12.97.884s-10.083.255-12.97-.884a7.425,7.425,0,0,1-4.183-4.183C3.634,63.9,3.9,57.026,3.9,53.825s-.255-10.083.884-12.97a7.425,7.425,0,0,1,4.183-4.183c2.9-1.149,9.769-.884,12.97-.884s10.083-.255,12.97.884a7.425,7.425,0,0,1,4.183,4.183c1.149,2.9.884,9.769.884,12.97S40.236,63.908,39.087,66.795Z" transform="translate(0.075 -31.825)"/>
</svg>
