<svg xmlns="http://www.w3.org/2000/svg" width="34.26" height="57.666" viewBox="0 0 34.26 57.666">
  <path id="FontAwsome_tumblr_" data-name="FontAwsome (tumblr)" d="M41.9,54.1c-1.532,1.633-5.631,3.57-10.97,3.57-13.606,0-16.557-10-16.557-15.836V25.612H9.026A1.13,1.13,0,0,1,7.9,24.486V16.827a1.906,1.906,0,0,1,1.273-1.8c6.983-2.455,9.179-8.56,9.495-13.189C18.758.6,19.4,0,20.481,0h7.985a1.13,1.13,0,0,1,1.126,1.126V14.1h9.348a1.12,1.12,0,0,1,1.126,1.115v9.2a1.13,1.13,0,0,1-1.126,1.126H29.547v15c0,3.852,2.669,6.037,7.659,4.032a2.374,2.374,0,0,1,1.43-.248,1.216,1.216,0,0,1,.833.89l2.478,7.242c.2.563.372,1.194-.045,1.633Z" transform="translate(-7.9)"/>
</svg>
