<svg xmlns="http://www.w3.org/2000/svg" width="44" height="44" viewBox="0 0 44 44">
  <path id="FontAwsome_phone_" data-name="FontAwsome (phone)" d="M42.391,2.1,33.454.042a2.076,2.076,0,0,0-2.363,1.195l-4.125,9.625a2.057,2.057,0,0,0,.593,2.406l5.208,4.262A31.849,31.849,0,0,1,17.539,32.757L13.276,27.55a2.06,2.06,0,0,0-2.406-.593L1.245,31.082a2.087,2.087,0,0,0-1.2,2.372L2.1,42.391a2.062,2.062,0,0,0,2.011,1.6A39.87,39.87,0,0,0,43.99,4.115,2.06,2.06,0,0,0,42.391,2.1Z" transform="translate(0.01 0.011)"/>
</svg>
