<svg xmlns="http://www.w3.org/2000/svg" width="44" height="35.195" viewBox="0 0 44 35.195">
  <path id="FontAwsome_code_" data-name="FontAwsome (code)" d="M19.15,35.2l-4.193-1.217a.826.826,0,0,1-.564-1.024L23.776.633A.826.826,0,0,1,24.8.069l4.193,1.217a.826.826,0,0,1,.564,1.024L20.174,34.634A.824.824,0,0,1,19.15,35.2Zm-7.837-7.713,2.99-3.19a.825.825,0,0,0-.055-1.182L8.02,17.633l6.228-5.479a.819.819,0,0,0,.055-1.182l-2.99-3.19a.826.826,0,0,0-1.169-.034L.238,17.028a.819.819,0,0,0,0,1.2l9.906,9.287a.82.82,0,0,0,1.169-.034Zm22.493.041,9.906-9.287a.819.819,0,0,0,0-1.2L33.806,7.741a.832.832,0,0,0-1.169.034l-2.99,3.19a.825.825,0,0,0,.055,1.182l6.228,5.486L29.7,23.112a.819.819,0,0,0-.055,1.182l2.99,3.19a.826.826,0,0,0,1.169.041Z" transform="translate(0.025 -0.037)" fill="#fff"/>
</svg>
