<svg xmlns="http://www.w3.org/2000/svg" width="44" height="44" viewBox="0 0 44 44">
  <path id="FontAwsome_dribbble_" data-name="FontAwsome (dribbble)" d="M30,8A22,22,0,1,0,52,30,22.025,22.025,0,0,0,30,8ZM44.546,18.145a18.7,18.7,0,0,1,4.243,11.706,43.914,43.914,0,0,0-13.085-.6c-.51-1.246-.992-2.341-1.652-3.692,6.948-2.837,10.1-6.873,10.493-7.409Zm-2.089-2.173c-.338.481-3.167,4.283-9.849,6.788a100.3,100.3,0,0,0-7.012-11A18.743,18.743,0,0,1,42.457,15.972Zm-20.446-2.95A119.9,119.9,0,0,1,28.978,23.89a70.092,70.092,0,0,1-17.372,2.29A18.86,18.86,0,0,1,22.011,13.023Zm-10.8,17.006c0-.192,0-.383.01-.574A69.317,69.317,0,0,0,30.531,26.78c.538,1.053,1.052,2.121,1.523,3.189-6.8,1.914-12.969,7.41-16.015,12.624A18.716,18.716,0,0,1,11.209,30.029Zm7.257,14.825c1.963-4.013,7.29-9.192,14.866-11.777a78.111,78.111,0,0,1,4.009,14.25,18.753,18.753,0,0,1-18.875-2.473Zm22.034.753a81.106,81.106,0,0,0-3.651-13.4,27.581,27.581,0,0,1,11.7.8A18.824,18.824,0,0,1,40.5,45.606Z" transform="translate(-8 -8)"/>
</svg>
