<svg xmlns="http://www.w3.org/2000/svg" width="47" height="46.999" viewBox="0 0 47 46.999">
  <path id="FontAwsome_linkedin-in_" data-name="FontAwsome (linkedin-in)" d="M9.849,44.009H.727V14.633H9.849ZM5.283,10.626a5.308,5.308,0,1,1,5.283-5.333A5.328,5.328,0,0,1,5.283,10.626ZM43.99,44.009h-9.1v-14.3c0-3.408-.069-7.779-4.743-7.779-4.743,0-5.47,3.7-5.47,7.533V44.009H15.563V14.633h8.749V18.64h.128A9.585,9.585,0,0,1,33.071,13.9C42.3,13.9,44,19.976,44,27.872V44.009Z" transform="translate(1.5 1.49)" fill="none" stroke="#000" stroke-width="3"/>
</svg>
