<svg xmlns="http://www.w3.org/2000/svg" width="44" height="44" viewBox="0 0 44 44">
  <path id="FontAwsome_pen-fancy_" data-name="FontAwsome (pen-fancy)" d="M6.8,24.314a2.75,2.75,0,0,0-1.739,1.739L0,41.248l.4.4,7.983-7.983A2.645,2.645,0,0,1,8.251,33,2.75,2.75,0,1,1,11,35.748a2.645,2.645,0,0,1-.67-.135L2.348,43.6l.4.4,15.2-5.065a2.749,2.749,0,0,0,1.739-1.739l2.842-7.225-8.5-8.5ZM31.732,2.432,16,19.576l8.409,8.409L41.549,12.249C48.847,5.8,38.133-4.809,31.732,2.432Z" transform="translate(0 0.002)" fill="#fff"/>
</svg>
