<svg id="Layer_1" data-name="Layer 1" xmlns="http://www.w3.org/2000/svg" viewBox="0 0 260 260"><defs><style>.cls-1{fill:none;stroke:#000;stroke-miterlimit:10;stroke-width:14px;}</style></defs><title>linkedin_1</title><ellipse class="cls-1" cx="50.75" cy="53.24" rx="25.73" ry="23.24"/><rect class="cls-1" x="27.51" y="93.9" width="45.64" height="136.1"/><path class="cls-1" d="M190.17,230V158.92a50.73,50.73,0,0,0-2.45-15.9,34.73,34.73,0,0,0-3.69-8,16.38,16.38,0,0,0-10.37-7c-.4-.09-.83-.17-1.27-.24A25.6,25.6,0,0,0,143.61,146a20.19,20.19,0,0,0-.75,6.84V230H98.05V93.9h44v11.62a2.77,2.77,0,0,0,4.81,1.87c6.66-7.38,20.52-18.2,43.33-16,0,0,25.72,0,37.34,25.73,0,0,7.47,13.27,7.47,38.17V230Z"/></svg>