<svg id="Layer_1" data-name="Layer 1" xmlns="http://www.w3.org/2000/svg" viewBox="0 0 550 550"><defs><style>.cls-1{fill:#0e76a8;}.cls-2{fill:#fff;}</style></defs><title>linkedin</title><path class="cls-1" d="M56,44.5H406a100,100,0,0,1,100,100v349a12,12,0,0,1-12,12H144a100,100,0,0,1-100-100V56.5A12,12,0,0,1,56,44.5Z"/><ellipse class="cls-2" cx="179.5" cy="182.5" rx="31" ry="28"/><rect class="cls-2" x="151.5" y="231.5" width="55" height="164"/><path class="cls-2" d="M347.5,395.5V309.85a61.3,61.3,0,0,0-2.95-19.16,41.72,41.72,0,0,0-4.42-9.55,19.87,19.87,0,0,0-12.67-8.49c-.44-.09-.9-.17-1.39-.25a30.87,30.87,0,0,0-34.64,21.78,24.15,24.15,0,0,0-.93,8.32v93h-54v-164h53v24s17-31,58-27c0,0,31,0,45,31,0,0,9,16,9,46v90Z"/></svg>