<svg id="Layer_1" data-name="Layer 1" xmlns="http://www.w3.org/2000/svg" viewBox="0 0 260 260"><title>mail</title><path id="FontAwsome_envelope-open-text_" data-name="FontAwsome envelope-open-text " d="M98.75,128.36h62.5a6.25,6.25,0,0,0,6.25-6.25v-6.25a6.25,6.25,0,0,0-6.25-6.25H98.75a6.25,6.25,0,0,0-6.25,6.25v6.25A6.25,6.25,0,0,0,98.75,128.36ZM92.5,153.61a6.25,6.25,0,0,0,6.25,6.25h62.5a6.25,6.25,0,0,0,6.25-6.25v-6.25a6.25,6.25,0,0,0-6.25-6.25H98.75a6.25,6.25,0,0,0-6.25,6.25ZM130,192.93A31.23,31.23,0,0,1,111.7,187L30,128v83.26A18.75,18.75,0,0,0,48.74,230H211.25A18.75,18.75,0,0,0,230,211.25h0V128l-81.7,59A31.23,31.23,0,0,1,130,192.93Zm92.82-99.29c-3.46-2.73-6.74-5.27-11.57-8.91V67.49A18.75,18.75,0,0,0,192.5,48.74H162.21l-3.53-2.57C152.11,41.37,139.06,29.85,130,30c-9.06-.13-22.1,11.4-28.68,16.19l-3.53,2.56H67.5A18.75,18.75,0,0,0,48.75,67.49V84.73c-4.83,3.64-8.11,6.18-11.57,8.91A18.75,18.75,0,0,0,30,108.4v4.16l37.5,27.09V67.49h125v72.16L230,112.56V108.4A18.75,18.75,0,0,0,222.82,93.64ZM92.33,93.1a6.25,6.25,0,0,0,6.25,6.25h62.5a6.25,6.25,0,0,0,6.25-6.25V86.85a6.25,6.25,0,0,0-6.25-6.25H98.58a6.25,6.25,0,0,0-6.25,6.25Z"/></svg>