<svg id="Layer_1" data-name="Layer 1" xmlns="http://www.w3.org/2000/svg" xmlns:xlink="http://www.w3.org/1999/xlink" viewBox="0 0 1517.13 1384.35"><defs><style>.cls-1{fill:none;}.cls-2{clip-path:url(#clip-path);}.cls-3{clip-path:url(#clip-path-2);}.cls-4{fill:#d7b299;}.cls-5{fill:#603813;}.cls-6{opacity:0.07;}.cls-7{clip-path:url(#clip-path-3);}.cls-8{clip-path:url(#clip-path-4);}.cls-9{opacity:0.1;}.cls-10{clip-path:url(#clip-path-5);}.cls-11,.cls-14{fill:#fff;}.cls-11{opacity:0.36;}.cls-12{fill:#a67c52;}.cls-13{fill:#8c6239;}.cls-15{fill:#ff9eb7;}.cls-16{clip-path:url(#clip-path-7);}.cls-17{fill:url(#linear-gradient);}.cls-18{clip-path:url(#clip-path-8);}.cls-19{fill:url(#linear-gradient-2);}.cls-20{clip-path:url(#clip-path-9);}.cls-21{fill:#1a1a1a;}.cls-22{clip-path:url(#clip-path-10);}.cls-23{fill:url(#linear-gradient-3);}.cls-24{clip-path:url(#clip-path-11);}.cls-25{fill:url(#linear-gradient-4);}.cls-26{fill:#c69c6d;}.cls-27{fill:#42210b;}.cls-28{opacity:0.48;}.cls-29{clip-path:url(#clip-path-12);}.cls-30{clip-path:url(#clip-path-13);}.cls-31{fill:#af696e;}.cls-32{opacity:0.02;}.cls-33{clip-path:url(#clip-path-14);}.cls-34{clip-path:url(#clip-path-16);}.cls-35{clip-path:url(#clip-path-18);}.cls-36{fill:url(#linear-gradient-5);}.cls-37{fill:#314364;}.cls-38{fill:#721c00;stroke:#000;stroke-miterlimit:10;stroke-width:9px;}</style><clipPath id="clip-path"><rect class="cls-1" width="1517.13" height="1384.33"/></clipPath><clipPath id="clip-path-2"><rect class="cls-1" x="19.84" y="33.73" width="1446.62" height="1350.59"/></clipPath><clipPath id="clip-path-3"><rect class="cls-1" x="499.84" y="223.96" width="683.53" height="889.34"/></clipPath><clipPath id="clip-path-4"><rect class="cls-1" x="499.84" y="223.96" width="683.53" height="889.34"/></clipPath><clipPath id="clip-path-5"><rect class="cls-1" x="985.35" y="601.16" width="94.58" height="86.4"/></clipPath><clipPath id="clip-path-7"><path class="cls-1" d="M697.2,519.45a1,1,0,0,1-.45.2c-3.07.48-6.26.23-9.2,1.36-1.26.49-2.42,1.19-3.67,1.7a9.76,9.76,0,0,1-4,.77,22.81,22.81,0,0,0,18.4,34.16,1.14,1.14,0,0,1,.71-.54c3-.68,6.06-.41,8.92-1.34a1.19,1.19,0,0,1,.83.07,22.75,22.75,0,0,0,8.89-35,1.08,1.08,0,0,1-.63-.28c-1.15-.17-2.3-.39-3.44-.61a13.62,13.62,0,0,0-2,0,1.05,1.05,0,0,1-.93-.45l-.13-.1-.18,0a1.14,1.14,0,0,1-.86.35,1.17,1.17,0,0,1-.93-.41c-.66,0-1.33.1-2,.16a1.23,1.23,0,0,1-.57.13,1.21,1.21,0,0,1-.55-.13,1.12,1.12,0,0,1-.72.25,1.14,1.14,0,0,1-1.08-.66c-2.13.11-4.26.24-6.38.42"/></clipPath><linearGradient id="linear-gradient" x1="-3769.38" y1="2673.78" x2="-3767.87" y2="2673.78" gradientTransform="translate(114474.46 -80183.02) scale(30.19)" gradientUnits="userSpaceOnUse"><stop offset="0" stop-color="#0d5e42"/><stop offset="0.05" stop-color="#0d5e42"/><stop offset="0.15" stop-color="#05653b"/><stop offset="0.31" stop-color="#006237"/><stop offset="0.43" stop-color="#004d45"/><stop offset="0.67" stop-color="#115b45"/><stop offset="0.82" stop-color="#006837"/><stop offset="1" stop-color="#004f37"/></linearGradient><clipPath id="clip-path-8"><path class="cls-1" d="M698.26,557.64A22.84,22.84,0,0,1,676.81,535a22.84,22.84,0,0,0,21.45,22.64m-21.45-22.78v0m31.91,21a1.41,1.41,0,0,0-.53-.12,1,1,0,0,0-.3,0c-2.86.93-5.92.66-8.92,1.34a1.14,1.14,0,0,0-.71.54,1.14,1.14,0,0,1,.71-.54c3-.68,6.06-.41,8.92-1.34a1,1,0,0,1,.3,0,1.41,1.41,0,0,1,.53.12,22.83,22.83,0,0,0,13.79-21,22.83,22.83,0,0,1-13.79,21m13.79-21a22.58,22.58,0,0,0-4.9-14,22.58,22.58,0,0,1,4.9,14m-4.9-14a1.25,1.25,0,0,1-.46-.16,1.25,1.25,0,0,0,.46.16m-.46-.16h0m0,0h0m0,0h0m0,0h0m0,0,0,0,0,0m0,0h0m0,0,0,0,0,0m0,0h0m0,0h0m-4.57-.69c.36,0,.73,0,1.09,0,1.15.22,2.29.44,3.44.61l0,0,0,0c-1.15-.17-2.29-.39-3.44-.61-.36,0-.73,0-1.09,0m-15.25-.43a1,1,0,0,1-.45.2c-3.07.48-6.26.23-9.2,1.36-1.26.49-2.43,1.19-3.67,1.7a9.72,9.72,0,0,1-3.75.78h-.27a22.75,22.75,0,0,0-3.05,11.38,22.75,22.75,0,0,1,3.05-11.38h.27a9.72,9.72,0,0,0,3.75-.78c1.24-.51,2.41-1.21,3.67-1.7,2.94-1.13,6.13-.88,9.2-1.36a1,1,0,0,0,.45-.2c2.12-.18,4.25-.31,6.38-.42a1.14,1.14,0,0,0,1.08.66,1.12,1.12,0,0,0,.72-.25,1.21,1.21,0,0,0,.55.13,1.26,1.26,0,0,0,.57-.13c.66-.06,1.33-.12,2-.16a1.17,1.17,0,0,0,.93.41,1.14,1.14,0,0,0,.86-.35l.18,0,.13.09a1.07,1.07,0,0,0,.84.47h.09c.31,0,.62,0,.93,0-.31,0-.62,0-.93,0h-.09a1.07,1.07,0,0,1-.84-.47l-.13-.09-.18,0a1.14,1.14,0,0,1-.86.35,1.17,1.17,0,0,1-.93-.41c-.66,0-1.33.1-2,.16a1.26,1.26,0,0,1-.57.13,1.21,1.21,0,0,1-.55-.13,1.12,1.12,0,0,1-.72.25,1.14,1.14,0,0,1-1.08-.66c-2.13.11-4.26.24-6.38.42"/></clipPath><linearGradient id="linear-gradient-2" x1="-3773.79" y1="2675.51" x2="-3772.28" y2="2675.51" gradientTransform="translate(118378.04 -82908.89) scale(31.19)" gradientUnits="userSpaceOnUse"><stop offset="0"/><stop offset="0.13" stop-color="#026b38"/><stop offset="0.26"/><stop offset="0.41" stop-color="#046d38"/><stop offset="0.57" stop-color="#1e9141"/><stop offset="0.7"/><stop offset="0.82" stop-color="#2fa846"/><stop offset="0.93" stop-color="#4d4d4d"/><stop offset="1" stop-color="#4d4d4d"/></linearGradient><clipPath id="clip-path-9"><rect class="cls-1" x="39.67" y="33.73" width="1426.79" height="1350.59"/></clipPath><clipPath id="clip-path-10"><path class="cls-1" d="M934.93,504.57a1.2,1.2,0,0,1-1.75.6,1.24,1.24,0,0,1-.53.19,1.34,1.34,0,0,1-.58-.07c-.67,0-1.33,0-2,0a1.17,1.17,0,0,1-.88.5,1.21,1.21,0,0,1-.9-.25l-.17,0s-.08.07-.11.11a1.06,1.06,0,0,1-.88.55,13.71,13.71,0,0,0-2,.22c-1.11.34-2.22.67-3.34,1a1.19,1.19,0,0,1-.6.34,22.59,22.59,0,0,0-3.4,14.48,22.82,22.82,0,0,0,15.92,19.41,1.14,1.14,0,0,1,.81-.16,22.33,22.33,0,0,0,5,.29,29.33,29.33,0,0,1,4,.1,1.14,1.14,0,0,1,.77.47A22.81,22.81,0,0,0,959,506.5a9.71,9.71,0,0,1-4.08-.34c-1.29-.38-2.53-1-3.83-1.3a20.93,20.93,0,0,0-6.06-.41c-1.08,0-2.16.07-3.24,0a.94.94,0,0,1-.46-.16q-3.2.09-6.39.26"/></clipPath><linearGradient id="linear-gradient-3" x1="-4052.44" y1="2688.67" x2="-4050.92" y2="2688.67" gradientTransform="matrix(-30.19, 0, 0, 30.19, -121376.3, -80645.77)" xlink:href="#linear-gradient"/><clipPath id="clip-path-11"><path class="cls-1" d="M938.07,541.86c1,0,1.95,0,2.93,0-1,0-2,0-2.93,0m-20.43-21.93a21.17,21.17,0,0,0,.13,2.37,22.82,22.82,0,0,0,15.92,19.41,1.24,1.24,0,0,1,.62-.18l.19,0a17.11,17.11,0,0,0,3.57.31,17.11,17.11,0,0,1-3.57-.31l-.19,0a1.24,1.24,0,0,0-.62.18,22.82,22.82,0,0,1-15.92-19.41,21.17,21.17,0,0,1-.13-2.37m26.64,22.48a1.14,1.14,0,0,0-.77-.47,21.09,21.09,0,0,0-2.51-.12,21.09,21.09,0,0,1,2.51.12,1.14,1.14,0,0,1,.77.47,22.85,22.85,0,0,0,19.07-22.49,22.85,22.85,0,0,1-19.07,22.49m-26.64-22.48a22.71,22.71,0,0,1,3.53-12.11,22.71,22.71,0,0,0-3.53,12.11M929,505.85h0m-.92-.22a.57.57,0,0,1-.11.11,1.06,1.06,0,0,1-.88.55,13.71,13.71,0,0,0-2,.22c-1.11.34-2.22.67-3.34,1a1.19,1.19,0,0,1-.6.34,1.19,1.19,0,0,0,.6-.34c1.12-.3,2.23-.63,3.34-1a13.71,13.71,0,0,1,2-.22,1.06,1.06,0,0,0,.88-.55.57.57,0,0,0,.11-.11l.18,0-.18,0m.18,0a1.18,1.18,0,0,0,.74.26,1.18,1.18,0,0,1-.74-.26m4.35-.23h-.15a1.18,1.18,0,0,1-.43-.08c-.67,0-1.33,0-2,0a1.17,1.17,0,0,1-.88.5,1.17,1.17,0,0,0,.88-.5c.67,0,1.33,0,2,0a1.18,1.18,0,0,0,.43.08h.15a1,1,0,0,1,1.15,0h0a1,1,0,0,0-1.15,0m1.28,0a1.11,1.11,0,0,0,.72-.33,1.11,1.11,0,0,1-.72.33m.72-.33a1.22,1.22,0,0,0,.26-.38,1.22,1.22,0,0,1-.26.38m.26-.38s0,0,0-.05,0,0,0,.05m0-.06h0q3.2-.17,6.39-.26a.94.94,0,0,0,.46.16c.41,0,.83,0,1.24,0,1.33,0,2.67-.09,4-.09a15.52,15.52,0,0,1,4.06.45c1.3.35,2.54.92,3.83,1.3a9.83,9.83,0,0,0,2.84.43,8.73,8.73,0,0,0,1.24-.09,22.82,22.82,0,0,1,4.23,11c.08.82.13,1.63.13,2.43,0-.8-.05-1.61-.13-2.43a22.82,22.82,0,0,0-4.23-11,8.73,8.73,0,0,1-1.24.09,9.83,9.83,0,0,1-2.84-.43c-1.29-.38-2.53-1-3.83-1.3a15.52,15.52,0,0,0-4.06-.45c-1.33,0-2.67.09-4,.09-.41,0-.83,0-1.24,0a.94.94,0,0,1-.46-.16q-3.2.09-6.39.26"/></clipPath><linearGradient id="linear-gradient-4" x1="-4047.78" y1="2689.93" x2="-4046.26" y2="2689.93" gradientTransform="matrix(-31.19, 0, 0, 31.19, -125282.87, -83373.52)" xlink:href="#linear-gradient-2"/><clipPath id="clip-path-12"><rect class="cls-1" x="759.13" y="750.17" width="159.77" height="28.52"/></clipPath><clipPath id="clip-path-13"><rect class="cls-1" x="759.13" y="750.17" width="159.77" height="28.52"/></clipPath><clipPath id="clip-path-14"><rect class="cls-1" x="852.73" y="481.29" width="180.13" height="106.98"/></clipPath><clipPath id="clip-path-16"><rect class="cls-1" x="608.71" y="496.28" width="167.65" height="96.96"/></clipPath><clipPath id="clip-path-18"><rect class="cls-1" x="729.66" y="629.52" width="27.5" height="59.41"/></clipPath><linearGradient id="linear-gradient-5" x1="68.09" y1="1174.38" x2="1442.65" y2="1174.38" gradientUnits="userSpaceOnUse"><stop offset="0"/><stop offset="0.53" stop-color="#181205"/><stop offset="1"/></linearGradient></defs><title>ny</title><g class="cls-2"><path class="cls-1" d="M19.84-164.23V1384.33H1466.46V-164.23ZM1151.61,898.89c-24.19,2.55-47.73,11.88-68.31,24.63-20.78,12.88-39.52,30.29-50.26,52.54-2.8,5.8-11.42.72-8.63-5,11.45-23.72,31.71-42.39,53.85-56.12s47.35-23.26,73.35-26C1158,888.21,1157.94,898.22,1151.61,898.89Z"/><g class="cls-3"><path class="cls-4" d="M587.39,746.82c6.75,35.38,23.26,92.84,66,132.25,12.4,11.44,28.91,22.72,31.34,24.77,8.59,7.24,28.69,30,82.6,42.33,16.78,3.83,37.74,4.36,65.3,7.11,19.6,2,43,1.72,71.06-10.42a59.6,59.6,0,0,0,10.51-6.3c14.76-10.38,47.87-31.15,55.29-33,5.8-1.44,10.19-6.13,15.47-8.93,33.76-17.93,100.3-79.77,109.73-210.56,0,0,29.37,73.43,66.75-52.06l-80.1-383.16S865.74,158.07,765,186.11,520.64,322.28,520.64,322.28,472.57,728.13,514,781.53c3.73,4.82,13.55,17.05,26.83,17.19,25.42.26,43.53-44.14,46.6-51.9"/></g><path class="cls-4" d="M642.4,871.84,645,896l10.77-12.72c-8.33-6.88-13.34-11.46-13.34-11.46"/><path class="cls-4" d="M857.68,936.25s46.21-2.71,81-29.56c.08-.41.22-.84.31-1.25-144.79,72.19-266.17-42.35-266.17-42.35L655.74,883.3C672.35,897,702.26,919.9,732.56,934c0,0,64.57,13.55,125.12,2.24"/><path class="cls-4" d="M775.46,1231.7s-18.17-25.9-28.51-31.08c0,0-28.37-32-28.77-45.22,0,0-39.51-49.46-48.46-61.24,0,0,.64-30.72-5.09-50.92,0,0-9.51-37.16-9-47L645,896,469.13,1103.67l110.59,98.95c90.22,60.15,199.84,77.61,199.84,77.61a390.76,390.76,0,0,0,46.65-2.49,60.78,60.78,0,0,1-8.58-5.52Z"/><path class="cls-4" d="M1027.9,989.2a81.66,81.66,0,0,1-.34-10.89,5.29,5.29,0,0,1-3.15-7.3c1.22-2.53,2.56-5,4-7.4,4.24-52.79,22.81-152.91,22.81-152.91-37.83,46.61-75.74,76.57-112.17,94.74-.09.41-.23.84-.31,1.25-34.82,26.85-81,29.56-81,29.56C797.13,947.56,732.56,934,732.56,934c-30.3-14.11-60.21-37-76.82-50.71L645,896l10.62,100.17c-.47,9.89,9,47,9,47,5.73,20.2,5.09,50.93,5.09,50.93,8.95,11.77,48.45,61.23,48.45,61.23.41,13.19,28.78,45.22,28.78,45.22,10.34,5.18,28.51,31.08,28.51,31.08l42.17,40.51a59.94,59.94,0,0,0,8.58,5.53c82.65-9.13,155.13-40.19,155.13-40.19,103.8-76.64,83.43-133.88,83.43-133.88C1015.29,1078.45,1027.9,989.2,1027.9,989.2Z"/><path class="cls-5" d="M1233.62,521.37c5.89,13.58,9.67,28,12.61,42.34s4.82,28.79,6.51,42.92c3.31,28.24,5.67,55.62,11.54,79.92a186.76,186.76,0,0,0,11.32,33.85,145.74,145.74,0,0,0,7.89,15.08c3,4.91,6.69,10.25,10.79,16.19,2,3,4.14,6.12,6.28,9.45s4.23,7,6.22,10.51c1,1.8,2.07,3.53,2.92,5.39l2.63,5.52c1.84,3.63,3.26,7.42,4.79,11.15a214,214,0,0,1,12.17,46.07,207.48,207.48,0,0,1-7,92.3,241.62,241.62,0,0,1-17.94,41.6c-6.91,12.92-14.21,25.12-21,37.25s-13.17,24.13-17.95,36.58a128.92,128.92,0,0,0-8.82,38.48,142.31,142.31,0,0,0,3.62,40.28,238.87,238.87,0,0,0,12.93,39.67l-4.59,2.32a232.15,232.15,0,0,1-18.81-38.92,155.19,155.19,0,0,1-9.28-43.31c-1-15.11,1.19-30.41,4.94-44.89s9.2-28.34,14.87-41.59c11.41-26.44,23.86-51.34,29-76.33a173.64,173.64,0,0,0,3.93-38.18,169.67,169.67,0,0,0-4.36-37.71,136.58,136.58,0,0,0-13.17-34.69,87.69,87.69,0,0,0-4.65-7.83l-2.47-3.79c-.77-1.29-1.78-2.42-2.65-3.63-1.82-2.39-3.49-4.77-5.54-7.14s-4.17-4.89-6.46-7.51c-4.52-5.28-9.53-11.09-14.39-18a142.81,142.81,0,0,1-12.64-22,162.57,162.57,0,0,1-13.24-47.14,261,261,0,0,1-1.53-45.91q.54-11.13,1.71-22c.37-3.63.75-7.2,1.18-10.79l1.4-10.66c2-14.15,4.2-28,6.35-41.94,1.11-7,2.08-13.9,3.1-20.92s1.79-14.06,2.72-21.28Z"/><g class="cls-6"><g class="cls-7"><g class="cls-8"><path d="M1083.3,923.52c-20.78,12.88-39.52,30.29-50.26,52.54-2.8,5.8-11.42.72-8.63-5,11.45-23.72,31.71-42.39,53.85-56.12q6.93-4.3,14.25-8l90.85-391.82L956.12,224,632.29,241,499.84,379.5,521,751.67l112.79,284.75,85.58,65.11,35.06,11.77s14.46-52.93-75.34-155.16c0,0,2.94-9,3.49-24.17h0c28.83,23.6,71.31,32.59,71.31,32.59,72.78,17.45,131.19,5.91,131.19,5.91,39.78-12.65,103.89-55.26,121.62-67.33-6.61,30.89-7.52,70.91,17.17,103.89l52.76-33.67,12.87-55.51Q1086.37,921.64,1083.3,923.52Zm-111.52-22c-20.11,4-53.18,32.27-53.18,32.27-17.11,12.54-38.23,16.52-38.23,16.52-45.46,5.92-96.77-2-96.77-2a193,193,0,0,1-56-14.79c-8.39-1.21-40.46-27.7-48-34a172.67,172.67,0,0,0-10.52-33.56s-18.93-31.13-42.41-44.38c0,0-16.19-11.3,16.93-110,0,0-8.28-92.94-35.52-112.18,0,0-2.19-167-12.61-191.32,0,0,40.28-80.48,110.34-99.66,0,0,85.43-29,197.71-15,0,0,50.08-9.92,125.38,91.63,0,0,38.17,85.45,47.85,123.67,0,0,22,88.45,25.42,112.9,0,0,11.87,37.22-.68,42.55-7.32,3.11-13.48,8.5-16.17,16a83,83,0,0,0-4.73,21.28s-8,83.55-56.75,154.17a168,168,0,0,0-6.93,15.62C999.51,887.3,971.78,901.51,971.78,901.51Z"/></g></g></g><g class="cls-9"><g class="cls-10"><g class="cls-10"><path class="cls-11" d="M1068.42,601.71c-20-2.4-48.72,1.92-73.08,35.71C984,653.19,982,672.87,991,679.53c14.86,11,42.53,18.28,78.29-31.09,14.54-20.09,14.08-44.93-.88-46.73"/></g></g></g><path class="cls-5" d="M1156.18,365.63c2.58,36.7,3.19,73,5.57,108.58,1.22,17.78,2.74,35.37,5.11,52.58l.88,6.44c.29,2.14.69,4.25,1,6.37.71,4.24,1.36,8.49,2.31,12.61s1.56,8.36,2.68,12.37,1.9,8.17,3.22,12,2.22,7.93,3.72,11.63c.7,1.88,1.36,3.77,2,5.66l.49,1.42.59,1.36,1.18,2.7,2.32,5.42,2.64,5.27,1.32,2.64c.44.88,1,1.73,1.44,2.6l2.92,5.2c8.16,13.79,18.55,27.37,29.4,43.33,2.68,3.91,5.27,8.17,7.86,12.35,1.29,2.1,2.48,4.36,3.72,6.54s2.47,4.36,3.55,6.69l3.33,6.87c1.07,2.31,2,4.72,3,7.08,2.06,4.68,3.52,9.59,5.13,14.41.86,2.41,1.45,4.87,2.07,7.32l1.84,7.35c1.06,4.91,1.77,9.84,2.71,14.73a221.29,221.29,0,0,1,2.48,29.41,299.33,299.33,0,0,1-19.61,112.69A336.86,336.86,0,0,1,1216,940c-9.52,15.9-19.17,30.74-26.88,46.3a184.06,184.06,0,0,0-17,48.67c-3.45,17-4.1,34.55-3.14,52.12.63,8.78,1.63,17.59,3.13,26.35s3.4,17.49,5.69,26.15c4.43,17.37,10.22,34.5,16.42,51.52l-4.06,1.69c-7.73-16.45-15.12-33.16-21.26-50.49-3.09-8.66-5.7-17.51-8.07-26.45s-4.12-18.1-5.54-27.32l-.87-7-.42-3.49-.28-3.5-.51-7-.2-7.06c-.1-2.35-.06-4.7,0-7.06s.08-4.72.18-7.09c.33-4.71.6-9.45,1.23-14.16a192.28,192.28,0,0,1,5.44-28,226.23,226.23,0,0,1,9.29-27c7.28-17.5,16.41-33.77,24.48-49.56a310.77,310.77,0,0,0,20-48.12q4-12.28,6.7-24.87c1.82-8.37,3.22-16.79,4.22-25.31a263.37,263.37,0,0,0,1.14-51,186.27,186.27,0,0,0-3.6-24.61l-1.52-5.94c-.55-2-.94-4-1.6-5.89l-1.94-5.71a53.89,53.89,0,0,0-2.08-5.62c-6-14.83-14.35-27.94-25.08-41.33-2.55-3.35-5.38-6.85-8.14-10.3l-4.29-5.35-2.16-2.69-2.16-2.82a252.14,252.14,0,0,1-16.72-24.22l-3.75-6.65c-.61-1.12-1.28-2.2-1.84-3.36l-1.66-3.47-3.29-7c-1-2.37-1.91-4.77-2.84-7.17-2-4.78-3.39-9.61-4.85-14.45s-2.52-9.69-3.68-14.53-1.81-9.69-2.65-14.52-1.33-9.63-1.88-14.44-.82-9.59-1.13-14.36c-.13-2.38-.33-4.77-.41-7.15l-.14-7.11-.12-7.11.1-7.07c.06-4.7.16-9.41.46-14.07s.42-9.35.85-14l1.26-13.9c1.94-18.46,4.78-36.69,8.29-54.75s7.67-35.92,12.79-53.63Z"/><path class="cls-5" d="M1156.16,671.6c1.24,12.4,1.78,24.59,2.57,36.57s1.58,23.73,2.94,35.11a231.67,231.67,0,0,0,5.92,32.62c.37,1.26.76,2.52,1.09,3.79a33.32,33.32,0,0,0,1.13,3.71l1.26,3.62.61,1.8c.22.59.5,1.14.74,1.71a83.08,83.08,0,0,0,6.35,12.93,75.76,75.76,0,0,0,7.87,11.18,141.3,141.3,0,0,0,10.13,10.61c7.48,7.18,16.57,14.58,26,23.66a174.23,174.23,0,0,1,14,15.09,113.55,113.55,0,0,1,12.25,18.39,99,99,0,0,1,8.12,20.91,106.32,106.32,0,0,1,3.39,21.67,126.18,126.18,0,0,1-5,41.27,129.1,129.1,0,0,1-7.21,19.15,150.31,150.31,0,0,1-9.73,17.58,197.68,197.68,0,0,1-24.63,30c-8.74,8.84-17.28,16.83-24.58,25.36s-13.28,17.52-16.92,27.57a77.23,77.23,0,0,0-3.62,15.7,89.87,89.87,0,0,0-.06,16.49,106.67,106.67,0,0,0,3.19,16.69,150.23,150.23,0,0,0,5.79,16.44q3.42,8.13,7.54,16.08c2.77,5.28,5.67,10.53,8.64,15.76l-3.64,2.45a271.09,271.09,0,0,1-20.87-30.15,157.92,157.92,0,0,1-8.35-16.78,120.71,120.71,0,0,1-5.88-18.25,96.5,96.5,0,0,1-2.23-19.52,93.67,93.67,0,0,1,2.28-19.87c3.1-13.14,9.39-25.31,16.69-35.93s15.61-20,22.94-29.07a170.82,170.82,0,0,0,18.6-27.82,108.61,108.61,0,0,0,10.87-29.7A92.73,92.73,0,0,0,1225.6,928a60.49,60.49,0,0,0-3.5-13.73,57.64,57.64,0,0,0-6.48-12c-5.29-7.41-12.5-13.82-21.32-20.49s-18.93-13.81-29-23.22A125.08,125.08,0,0,1,1151,842.61c-2.18-3-4.33-6.07-6.24-9.34s-3.49-6.64-5.13-10a121.74,121.74,0,0,1-7-20.58,141.9,141.9,0,0,1-3.26-20.55,160,160,0,0,1-.4-20,181.2,181.2,0,0,1,1.74-19.38,251.29,251.29,0,0,1,8.15-36.93,271.58,271.58,0,0,1,13-34.94Z"/><path class="cls-12" d="M1059.68,811a149,149,0,0,1-6.65,14.9c-2.5,4.84-5.21,9.58-8.14,14.18-.71,1.17-1.45,2.32-2.21,3.45s-1.49,2.3-2.26,3.42a75.31,75.31,0,0,1-5,6.49,78.49,78.49,0,0,1-11.89,11.3l-.21-.22c3.15-4.49,6.56-8.64,9.74-13s6.72-8.41,9.83-12.81,6.09-8.91,8.84-13.56a147.56,147.56,0,0,0,7.69-14.29Z"/><path d="M618.72,837.71c2.84,3.55,5.74,7.06,8.66,10.54s5.85,7,8.84,10.38l9.09,10.15c3,3.44,6,6.8,9,10.22l-.1.11a96.17,96.17,0,0,1-10-9.31c-3.16-3.29-6-6.86-8.89-10.38q-8.67-10.57-16.7-21.62Z"/><path class="cls-13" d="M678.12,898c10.83,7.84,21.24,16.23,32,24.1,2.7,2,5.42,3.89,8.2,5.72a49.42,49.42,0,0,0,8.64,4.76c1.49.56,3.19,1,4.76,1.59s3.09,1.34,4.64,1.94c3.07,1.26,6.2,2.38,9.36,3.4a185.54,185.54,0,0,0,39,7.86c3.3.34,6.62.54,9.94.74l2.61.3c.87.1,1.64.29,2.47.42,1.64.28,3.28.54,4.92.76,6.58,1,13.21,1.57,19.85,2a289.73,289.73,0,0,0,39.86-.31c3.32-.31,6.66-.41,9.79-1a41.7,41.7,0,0,0,4.69-1.16c1.53-.47,3.14-1,4.7-1.57,6.3-2.14,12.55-4.42,18.68-7,3.07-1.26,6.1-2.59,9-4.06,1.47-.73,2.91-1.51,4.29-2.36.71-.4,1.31-.87,2-1.3s1.31-1,2-1.54c5.34-4.1,10.82-8,16.49-11.56a205.15,205.15,0,0,1,35.68-18.4l.12.28c-6.05,2.83-12,5.88-17.74,9.24s-11.41,6.87-16.89,10.64-10.88,7.68-16,11.85l-2,1.59c-.72.5-1.43,1.07-2.16,1.5-1.45.93-2.94,1.78-4.44,2.57-3,1.58-6.07,3-9.16,4.34-6.2,2.62-12.49,5-18.83,7.15a63.56,63.56,0,0,1-9.85,2.79c-3.44.63-6.81.7-10.14,1A293.68,293.68,0,0,1,824.4,954c-6.68-.5-13.36-1.21-20-2.23-1.66-.26-3.31-.54-5-.84-.82-.13-1.67-.35-2.46-.44l-2.36-.3c-3.35-.24-6.7-.49-10-.86A186.57,186.57,0,0,1,745.27,941c-3.18-1.08-6.33-2.25-9.42-3.57-1.56-.63-3.07-1.41-4.57-2s-3.09-1-4.72-1.66a49.79,49.79,0,0,1-8.81-5c-2.77-1.88-5.47-3.86-8.15-5.87-10.68-8.05-21-16.59-31.66-24.58Z"/><path class="cls-14" d="M732.67,549.56c-11.2,3.49-57,17.7-86.18.76,0,0,45.17-64.26,112.64-6.8"/><path class="cls-15" d="M759.13,543.42c-6.56,2.08-17.84,4.74-28.77,6.86,0,0,21.59-14.34,1.56-24.36a85,85,0,0,1,27.21,17.5"/><path class="cls-1" d="M39.67,33.73v1350.6H1466.46V33.73ZM1151.61,898.89c-24.19,2.55-47.73,11.88-68.31,24.63-20.78,12.88-39.52,30.29-50.26,52.54-2.8,5.8-11.42.72-8.63-5,11.45-23.72,31.71-42.39,53.85-56.12s47.35-23.26,73.35-26C1158,888.21,1157.94,898.22,1151.61,898.89Z"/><g class="cls-16"><rect class="cls-17" x="676.81" y="519.03" width="45.71" height="38.61"/></g><g class="cls-18"><rect class="cls-19" x="676.81" y="519.03" width="45.7" height="38.61"/></g><g class="cls-20"><path class="cls-21" d="M713.11,534.05a12.79,12.79,0,1,1-12.79-12.79,12.79,12.79,0,0,1,12.79,12.79"/><path class="cls-14" d="M716.26,537.4h-8.77a2.63,2.63,0,0,1,0-5.26h8.77a2.63,2.63,0,1,1,0,5.26"/><path class="cls-14" d="M909.21,538c11.5,2.29,58.53,11.6,85.78-8.31,0,0-51.67-59.16-112.73,5.07"/><path class="cls-15" d="M882.25,534.67a293.29,293.29,0,0,0,29.34,3.79s-23-12-4.12-24.06a85,85,0,0,0-25.22,20.27"/></g><g class="cls-22"><rect class="cls-23" x="915.34" y="501.93" width="51.03" height="42.85" transform="translate(-49.82 101.83) rotate(-6.04)"/></g><g class="cls-24"><rect class="cls-25" x="915.77" y="502.02" width="49.46" height="42.69" transform="translate(-49.82 101.79) rotate(-6.04)"/></g><path class="cls-21" d="M927,520.51a12.79,12.79,0,1,0,11.37-14.07A12.79,12.79,0,0,0,927,520.51"/><path d="M751.91,523.63a112.29,112.29,0,0,0-29.19-10.36,102.49,102.49,0,0,0-30.73-2,96.42,96.42,0,0,0-15.09,2.81c-2.44.75-4.9,1.43-7.28,2.37-2.44.78-4.76,1.84-7.13,2.82-1.17.51-2.3,1.1-3.46,1.64s-2.31,1.1-3.42,1.75l-3.38,1.85-3.28,2a152.29,152.29,0,0,0-12.65,9l-.2-.22c.9-.94,1.81-1.88,2.74-2.8s1.82-1.89,2.82-2.73c2-1.69,4-3.47,6.09-5a76.77,76.77,0,0,1,28.4-13.61,98.85,98.85,0,0,1,15.65-2.33,104.15,104.15,0,0,1,31.25,2.91,112.72,112.72,0,0,1,29,11.57Z"/><path d="M887.71,514.29a78.63,78.63,0,0,1,12.94-8.83A94,94,0,0,1,915,499a95.2,95.2,0,0,1,46.77-3.95l2,.32,1.94.43c1.28.3,2.58.55,3.86.89,2.52.79,5.09,1.43,7.55,2.4l3.7,1.4,3.62,1.61c2.42,1,4.73,2.31,7,3.56s4.51,2.7,6.76,4,4.29,3,6.39,4.56l-.16.25c-2.35-1.16-4.6-2.45-6.92-3.61s-4.63-2.35-7-3.36-4.71-2.14-7.14-3l-3.6-1.4L976.07,502a117.42,117.42,0,0,0-14.86-4,90.07,90.07,0,0,0-45.75,2.43,87.89,87.89,0,0,0-27.55,14.07Z"/><path class="cls-26" d="M752.13,652.21A59.2,59.2,0,0,0,750,663.28a45.86,45.86,0,0,0,.07,11.11,38.32,38.32,0,0,0,3.17,10.32,31.68,31.68,0,0,0,2.6,4.73c1,1.53,2.19,2.94,3.41,4.45l-.18.24a19.24,19.24,0,0,1-8.53-8,20.81,20.81,0,0,1-2.13-5.6,41.91,41.91,0,0,1-.76-5.87,48.57,48.57,0,0,1,.85-11.57,56,56,0,0,1,3.37-10.95Z"/><path class="cls-26" d="M899.07,649a28.41,28.41,0,0,1,4.27,9.71,33.64,33.64,0,0,1,.72,10.74c-.45,3.57-1,7.28-2.8,10.48a26.68,26.68,0,0,1-6.65,8.43l-.24-.18c.63-1.7,1.43-3.24,2.16-4.79.31-.81.67-1.59,1-2.37l.54-1.15c.16-.39.28-.8.43-1.19.3-.79.6-1.57.94-2.34s.54-1.58.84-2.37l.45-1.18c.13-.4.22-.8.33-1.21.19-.82.45-1.63.6-2.46a31.56,31.56,0,0,0,.19-10.13,29,29,0,0,0-3-9.82Z"/><path d="M774.35,691.53a33.35,33.35,0,0,1,25.83-.08,1.31,1.31,0,0,1-.7,2.51c-4.65-.69-10-1.1-11.45.31a6.39,6.39,0,0,1-3.18,1.84,38.65,38.65,0,0,1-9.65.48,2.63,2.63,0,0,1-.85-5.06"/><path class="cls-27" d="M774.32,691.46a38,38,0,0,1,15.33-2.89,32.23,32.23,0,0,1,7.78,1.36,17.28,17.28,0,0,1,1.88.63l.93.34a2,2,0,0,1,1,.78,1.93,1.93,0,0,1-.46,2.5,1.76,1.76,0,0,1-1.33.37l-1-.12a37,37,0,0,0-7.63-.28,6.32,6.32,0,0,0-1.71.35,2.06,2.06,0,0,0-.58.34,8.64,8.64,0,0,1-.78.68,6.8,6.8,0,0,1-1.89,1.1,10.34,10.34,0,0,1-2.07.43,32.79,32.79,0,0,1-7.92,0,4.35,4.35,0,0,1-2-.55,2.82,2.82,0,0,1-1.21-1.69,2.76,2.76,0,0,1,1.64-3.34m.06.14a2.41,2.41,0,0,0-1.34,3.09,2.29,2.29,0,0,0,1.14,1.3,3.85,3.85,0,0,0,1.77.24,51.31,51.31,0,0,0,7.66-.68,8,8,0,0,0,1.74-.38,5.17,5.17,0,0,0,1.46-.88c.23-.19.46-.38.69-.59a3.49,3.49,0,0,1,1.1-.64,8.34,8.34,0,0,1,2.12-.41,38.65,38.65,0,0,1,7.94.58l.94.15a.71.71,0,0,0,.51-.11.77.77,0,0,0-.28-1.38l-.89-.36a18.63,18.63,0,0,0-1.81-.67,31.57,31.57,0,0,0-7.53-1.53,32.43,32.43,0,0,0-15.22,2.27"/><path d="M849.72,692.79c-1.89-1.22-2.47-3.47,5.58-7.24,0,0,11.14-2.89,19.15,0a3.93,3.93,0,0,1,.66,4.49,4.46,4.46,0,0,1-7,.92c-2-1.89-5.87-3.17-13.05,1.63a4.89,4.89,0,0,1-5.34.2"/><path class="cls-27" d="M849.68,692.86a3.17,3.17,0,0,1-1-1,1.7,1.7,0,0,1-.09-1.41,5.73,5.73,0,0,1,1.8-2.16,20.46,20.46,0,0,1,2.33-1.6c.81-.48,1.64-.92,2.48-1.36h0a44.87,44.87,0,0,1,9.64-1.47,27.55,27.55,0,0,1,9.77,1.17l.13,0,.09.09a4.54,4.54,0,0,1,1.15,4.43,4.83,4.83,0,0,1-3.28,3.23,5.42,5.42,0,0,1-4.57-.77,16.93,16.93,0,0,0-1.56-1.22,5.14,5.14,0,0,0-1.67-.65c-2.4-.48-5.07.35-7.48,1.48-1.25.5-2.31,1.43-3.73,1.81a5,5,0,0,1-4.05-.58m.08-.13a4.43,4.43,0,0,0,3.85.34c1.23-.45,2.21-1.51,3.44-2.18,2.33-1.44,5.11-2.75,8.19-2.24a7,7,0,0,1,2.16.81,13.91,13.91,0,0,1,1.68,1.28,3.92,3.92,0,0,0,3.27.63,3.41,3.41,0,0,0,2.41-2.21A3.26,3.26,0,0,0,874,686l.22.14a26.43,26.43,0,0,0-9.34-1.38,52.81,52.81,0,0,0-9.54,1.08l0,0a24.91,24.91,0,0,0-4.9,2.65,4.82,4.82,0,0,0-1.79,2,1.53,1.53,0,0,0,.09,1.29,2.73,2.73,0,0,0,1,1"/><path class="cls-26" d="M932.18,684.21q9.11,6.9,18.41,13.55c6.19,4.44,12.42,8.84,18.87,12.84a32.18,32.18,0,0,1,15.32,16.93,30.47,30.47,0,0,1,1.32,14.38l-.58,2.83a19.08,19.08,0,0,1-.84,2.76l-1,2.7-.14-.05A41.49,41.49,0,0,0,985.33,739a27.29,27.29,0,0,0-2-10.92,33,33,0,0,0-14.55-16.44c-6.43-4.17-12.57-8.69-18.68-13.26s-12.1-9.28-18.06-14Z"/><path class="cls-26" d="M722.56,705.94a117.35,117.35,0,0,0-12.39,11.3,106.37,106.37,0,0,0-10.65,12.87,80.57,80.57,0,0,0-8,14.56,55.35,55.35,0,0,0-2.63,7.86,52.57,52.57,0,0,0-1.3,8.24h-.15a36.4,36.4,0,0,1,.41-8.46,48.88,48.88,0,0,1,2.27-8.2,62.38,62.38,0,0,1,8.39-14.7,107.51,107.51,0,0,1,11.1-12.71,119,119,0,0,1,12.84-10.89Z"/><path class="cls-14" d="M954.09,528.35a3.2,3.2,0,1,1-3.19-3.19,3.19,3.19,0,0,1,3.19,3.19"/><path class="cls-27" d="M884.52,483.7c23.71-8.4,95.21-27.38,159.7,20,0,0,6.14-99.37-173-47.1,0,0-12,.66.06,22.2a10.94,10.94,0,0,0,13.19,4.9"/><path class="cls-27" d="M884.49,483.63a195.75,195.75,0,0,1,40.73-9.54,185.18,185.18,0,0,1,41.83-.58,159.63,159.63,0,0,1,40.73,9.66,169.29,169.29,0,0,1,19,8.85,177.72,177.72,0,0,1,17.71,11.26l-.82.39a51.85,51.85,0,0,0-1.43-12.75,56.37,56.37,0,0,0-11.11-23,61.17,61.17,0,0,0-4.38-4.72l-2.33-2.22-2.51-2a70.55,70.55,0,0,0-22.85-11.62,125.27,125.27,0,0,0-25.37-4.71c-17.24-1.23-34.57.3-51.67,2.92a445.74,445.74,0,0,0-50.69,11.35h-.07a6,6,0,0,0-2.29.76,4.9,4.9,0,0,0-1,.75l-.43.43-.34.51a8.49,8.49,0,0,0-1,4.78,28.57,28.57,0,0,0,2.85,9.77c1.53,3,2.74,6.46,5.65,8.37a11,11,0,0,0,9.76,1.33m0,.14a11.06,11.06,0,0,1-13.46-5.07c-.78-1.54-1.69-3-2.37-4.6l-1.07-2.36-.88-2.45a23.73,23.73,0,0,1-1.07-5.1,9,9,0,0,1,1.08-5.14l.37-.57.47-.49a5.79,5.79,0,0,1,1.07-.85,6.55,6.55,0,0,1,2.57-.88h-.08a450.65,450.65,0,0,1,50.67-12,220.33,220.33,0,0,1,52-3.06A121.39,121.39,0,0,1,999.52,446a71.57,71.57,0,0,1,23.2,12l2.56,2.06,2.37,2.28a56.78,56.78,0,0,1,15.68,28.35,51.9,51.9,0,0,1,1.4,13.05l0,1-.8-.58a176.33,176.33,0,0,0-17.56-11.27,167.42,167.42,0,0,0-18.88-8.88A162.54,162.54,0,0,0,967,474.09a179.86,179.86,0,0,0-41.74.28,196.06,196.06,0,0,0-40.71,9.4"/><path class="cls-27" d="M740.47,494c-28.58-2.85-123.18-7.21-141.38,57,0,0-40.18-104.52,141.42-84.59,0,0,14.85-.16,10.83,19.56a10.09,10.09,0,0,1-10.87,8"/><path class="cls-27" d="M740.46,494a279.74,279.74,0,0,0-41.24-.93,189.47,189.47,0,0,0-40.68,6.38c-13.19,3.7-26,9.29-36.7,18a66.11,66.11,0,0,0-22.25,33.67l-.45,1.57-.53-1.53a71.6,71.6,0,0,1-3.82-25,57.16,57.16,0,0,1,6.05-24.58,55,55,0,0,1,16.63-19.09,48,48,0,0,1,5.31-3.54l2.75-1.6,1.38-.8,1.45-.67c1.92-.88,3.84-1.81,5.79-2.65l6-2.18a138.22,138.22,0,0,1,24.71-5.66c2.1-.28,4.18-.63,6.28-.86l6.32-.53c4.2-.45,8.42-.49,12.64-.6a390.48,390.48,0,0,1,50.48,2.7h0a12.08,12.08,0,0,1,9.09,4.52c2.17,2.8,2.68,6.44,2.59,9.82-.07.85-.05,1.72-.19,2.56l-.41,2.53A10.17,10.17,0,0,1,740.46,494m0-.15a10.07,10.07,0,0,0,8.86-3.88,10,10,0,0,0,1.92-4.59l.37-2.51c.13-.84.1-1.69.16-2.53.05-3.33-.52-6.85-2.61-9.47a11.47,11.47,0,0,0-8.66-4.18h0a387,387,0,0,0-50.36-2c-16.73.67-33.61,2.39-49.51,7.71l-5.89,2.14c-1.92.82-3.79,1.74-5.69,2.6l-1.43.65-1.35.78-2.72,1.55a48.25,48.25,0,0,0-5.21,3.43A53.62,53.62,0,0,0,602,502.13a55.61,55.61,0,0,0-6,24,70.55,70.55,0,0,0,3.64,24.64l-1,0a68.87,68.87,0,0,1,8.7-18.8,67.92,67.92,0,0,1,14-15.24,86.79,86.79,0,0,1,17.61-10.88,122.8,122.8,0,0,1,19.47-7,195.07,195.07,0,0,1,40.82-6.09,280.12,280.12,0,0,1,41.27,1.06"/><path class="cls-27" d="M744.65,464.53a.65.65,0,0,1,.24,0l.14,0a1.31,1.31,0,0,1,.28.09,4.5,4.5,0,0,1,.51.2q.51.23,1,.48c.65.34,1.27.71,1.89,1.11a30.82,30.82,0,0,1,3.5,2.67,20.14,20.14,0,0,1,5.23,7.33,14.2,14.2,0,0,1,1,4.65,10.84,10.84,0,0,1-.93,4.71,14.43,14.43,0,0,1-6.23,6.54l-.21-.22a38.81,38.81,0,0,0,3.61-7.42,13.46,13.46,0,0,0,.47-7.5,18.29,18.29,0,0,0-4-7,28,28,0,0,0-3-3c-.54-.46-1.09-.91-1.67-1.32q-.42-.32-.87-.6c-.26-.19-.69-.38-.81-.46Z"/><path class="cls-27" d="M738.53,464.25a15.85,15.85,0,0,1,4.41,1.39,28,28,0,0,1,4.06,2.27,19.92,19.92,0,0,1,6.44,7,15,15,0,0,1,1.57,4.74,11,11,0,0,1-.43,5,14.74,14.74,0,0,1-2.23,4.34,15.61,15.61,0,0,1-3.33,3.36l-.23-.19a42.11,42.11,0,0,0,2.86-8.26,14,14,0,0,0-.41-8,17.91,17.91,0,0,0-5.16-6.79,23,23,0,0,0-7.6-4.56Z"/><path class="cls-27" d="M753.76,469.86a5.44,5.44,0,0,1,2.79,2,17.28,17.28,0,0,1,2,2.81,17.85,17.85,0,0,1,2.11,6.63,15.93,15.93,0,0,1,0,3.65,8.86,8.86,0,0,1-1.27,3.48,9.76,9.76,0,0,1-5.66,4.25l-.17-.25a32.2,32.2,0,0,0,3.16-5.43,16.11,16.11,0,0,0,1.54-5.6,15.65,15.65,0,0,0-1.06-6.1,15.47,15.47,0,0,0-1.34-2.89,9.08,9.08,0,0,0-.92-1.31,2.91,2.91,0,0,0-1.16-.95Z"/><path class="cls-27" d="M866.13,458.75a8.29,8.29,0,0,0-.39.85c-.13.32-.25.66-.36,1-.22.67-.42,1.35-.58,2a28.15,28.15,0,0,0-.67,4.16,18.35,18.35,0,0,0,.85,8.05,13.58,13.58,0,0,0,4.77,5.81,39.8,39.8,0,0,0,7.27,3.91l0,.3a14.42,14.42,0,0,1-8.88-1.67,10.76,10.76,0,0,1-3.51-3.27,14.29,14.29,0,0,1-1.92-4.35,20.16,20.16,0,0,1,0-9,30.11,30.11,0,0,1,1.28-4.21c.27-.68.55-1.36.88-2,.16-.33.34-.65.52-1,.1-.16.19-.32.3-.47a2,2,0,0,1,.17-.23l.1-.11a.57.57,0,0,1,.21-.13Z"/><path class="cls-27" d="M871.1,454.86a23,23,0,0,0-3.5,8.14,18,18,0,0,0-.22,8.52,13.93,13.93,0,0,0,4.34,6.71,42.24,42.24,0,0,0,7.15,5l-.08.29a15.55,15.55,0,0,1-4.67-.78,15,15,0,0,1-4.34-2.21,11.07,11.07,0,0,1-3.28-3.81A15,15,0,0,1,865,472a19.9,19.9,0,0,1,1.14-9.42,27.83,27.83,0,0,1,2-4.21,16.13,16.13,0,0,1,2.76-3.71Z"/><path class="cls-27" d="M862.53,463.29a3,3,0,0,0-.46,1.43,10.52,10.52,0,0,0-.07,1.59,15.92,15.92,0,0,0,.43,3.16,15.68,15.68,0,0,0,2.39,5.71,16.07,16.07,0,0,0,4.32,3.89,31.65,31.65,0,0,0,5.59,2.87v.3a9.8,9.8,0,0,1-7.06-.52,9,9,0,0,1-2.95-2.25,16,16,0,0,1-2-3.06,17.8,17.8,0,0,1-1.8-6.73,17.11,17.11,0,0,1,.14-3.43,5.47,5.47,0,0,1,1.27-3.19Z"/><g class="cls-28"><g class="cls-29"><g class="cls-30"><polygon points="786.86 750.17 918.9 756.49 903.18 772.14 824.9 778.7 768.58 766.77 759.13 764.23 786.86 750.17"/></g></g></g><path class="cls-31" d="M951.69,759.06l-4.31-.27a144.92,144.92,0,0,1-25.77-4l-3.05-.74c-16.58-4-19.76-3.59-32.31-7-7.41-2-10-2.32-16.91-4.54-12.16-3.88-18.11-.56-20.06,1a22.82,22.82,0,0,1-3.07,2.1c-7.63,4-16.2,2.17-21.05.54a17.27,17.27,0,0,1-5-2.72c-5.46-3.73-19.76-3.61-57.57,12a96.27,96.27,0,0,1-10.85,3.27c-17.89,4.25-28.53,1.33-29.87,4.75s6.88,10.15,16.59,16c22.73,13.68,45.23,15.25,53.33,17.26,41.84,10.42,74.85,7.71,114-7.46a185.37,185.37,0,0,0,46.91-26.67,2,2,0,0,0-1.07-3.53"/><path class="cls-31" d="M774.94,766.16l-5.57.44c2.24-.27,4.62-.48,7-.65-.49.07-1,.13-1.45.21"/><path class="cls-21" d="M897.37,771c0,.48-8.37.3-14.23-.07l-.72,0c-9.63-.67-35.8,5.64-51.52,5.86s-14.71-5.68-40.53-7.9a171.38,171.38,0,0,0-21.73-.48c22.89-3.12,35.17-1.75,42.23.46.73.23,2.64.86,5.33,1.47a68.56,68.56,0,0,0,23.68,1c28.7-3,29.33-3.75,36.48-3.5,11.35.41,21.06,2.72,21,3.25"/><g class="cls-32"><g class="cls-33"><g class="cls-33"><path d="M861.69,547.8c21.6,13.75,127,76.14,167.41,12a19.4,19.4,0,0,0,2.72-7.24c3.28-20.38,9-109.9-159.23-52.17A29.26,29.26,0,0,0,855,539.29c.19.46.39.93.6,1.4a16.17,16.17,0,0,0,6.08,7.11"/></g></g></g><g class="cls-32"><g class="cls-34"><g class="cls-34"><path d="M648,585.49a52.91,52.91,0,0,1,10.23,2.94c12.78,5.09,50,14.38,96-23.88a6.29,6.29,0,0,1,2.53-1c8.61-1,16.13-6.38,18.34-14.75,2.66-10,1.8-21.31-8.63-30.88,0,0-65.85-46.66-133.2-3a54.71,54.71,0,0,0-24.18,36.38c0,.16-.05.31-.08.47a20.33,20.33,0,0,0,8,19.72c7,5.14,17.94,11.61,31,14"/></g></g></g><g class="cls-32"><g class="cls-35"><g class="cls-35"><path d="M752.42,651.65s-8.71,29.84,1.89,37.28c0,0-12.24-22.45-23.07-9.5,0,0-10.59-12.95,23.07-49.91,0,0,7.53,2.12-1.89,22.13"/></g></g></g><path class="cls-5" d="M926.91,158.26a185.06,185.06,0,0,1,27.21-15.84,153.24,153.24,0,0,1,29.6-10.7,93.94,93.94,0,0,1,31.33-2.6,64.88,64.88,0,0,1,29.6,10.28,75,75,0,0,1,21.75,22.67,106.42,106.42,0,0,1,7.51,13.9,145.72,145.72,0,0,1,5.74,14.7c6.55,20,9.65,41,11.34,61.94l-.68-.5a73.72,73.72,0,0,1,19.09-1.19,61.88,61.88,0,0,1,18.69,4,47.12,47.12,0,0,1,16.12,10.3A50.7,50.7,0,0,1,1155.1,281a78.57,78.57,0,0,1,5.45,18.35c.34,1.56.43,3.16.66,4.74s.46,3.16.5,4.76l.25,4.77.11,2.39,0,2.39a210.48,210.48,0,0,1-3.88,37.91l-1.15-.78a31.73,31.73,0,0,1,20.15-3.87c6.93,1.08,13.15,4.86,18,9.71a65.36,65.36,0,0,1,11.52,16.93,132.12,132.12,0,0,1,7.19,19.11c1,3.26,1.75,6.57,2.61,9.86.7,3.33,1.45,6.65,2.09,10s1.18,6.7,1.7,10.05l1.37,10.1c1.56,13.49,2.33,27.05,2.83,40.61h-.16c-.68-13.55-1.71-27.08-3.4-40.53l-1.44-10.06c-.55-3.34-1.19-6.67-1.77-10s-1.45-6.61-2.16-9.92c-.88-3.27-1.68-6.56-2.67-9.79a133.08,133.08,0,0,0-7.27-18.88,64.28,64.28,0,0,0-11.4-16.5c-4.75-4.66-10.71-8.19-17.28-9.17a30.26,30.26,0,0,0-19.11,3.65l-1.44.81.29-1.59a209,209,0,0,0,3.87-37.63l0-2.36-.11-2.36-.24-4.72c0-1.57-.34-3.13-.49-4.69s-.3-3.14-.63-4.68a76.51,76.51,0,0,0-5.27-18,49.54,49.54,0,0,0-10.53-15.39,46,46,0,0,0-15.67-10.08,60.42,60.42,0,0,0-18.31-4,72.32,72.32,0,0,0-18.76,1.11l-.62.12-.06-.62c-1.62-20.88-4.64-41.79-11.09-61.74a145.69,145.69,0,0,0-5.67-14.64,104,104,0,0,0-7.4-13.81A74.51,74.51,0,0,0,1044.27,140a64.29,64.29,0,0,0-29.28-10.3,93,93,0,0,0-31.17,2.45,152.61,152.61,0,0,0-29.58,10.55A184.23,184.23,0,0,0,927,158.39Z"/><path class="cls-5" d="M966.07,141.53a18.19,18.19,0,0,1,5.3-5.4,26.11,26.11,0,0,1,6.9-3.2,62.61,62.61,0,0,1,15-2.28c10.1-.41,20.21-.72,30.34-.51s20.3.94,30.22,3.22A88.69,88.69,0,0,1,1082,144.62l-.07.13a105.53,105.53,0,0,0-28.39-9.91,185.33,185.33,0,0,0-29.94-3.49c-10.07-.36-20.18-.2-30.26.06a61.87,61.87,0,0,0-14.92,2c-4.79,1.35-9.44,4-12.21,8.25Z"/><path class="cls-5" d="M1006.51,199.76a90.62,90.62,0,0,1,10.82-9.42,29.27,29.27,0,0,1,13.21-5.58c4.87-.67,9.74.68,14.16,2.47s8.73,3.91,13.14,5.74a180.49,180.49,0,0,0,27,9.08,89.34,89.34,0,0,0,28.28,2.45l0,.15c-9.46,1.64-19.25.88-28.64-1.13s-18.39-5.59-27.15-9.44c-4.39-1.9-8.68-4.07-13-5.94s-9-3.2-13.71-2.63a28.58,28.58,0,0,0-13,5.21,90.26,90.26,0,0,0-11,9.14Z"/><path class="cls-5" d="M1082,294.33a107.2,107.2,0,0,1,11.09-55.1,87.77,87.77,0,0,1,4.66-8.29,26.22,26.22,0,0,1,6.51-7.07,21.76,21.76,0,0,1,9-3.6,34.46,34.46,0,0,1,9.62-.18c6.4.74,12.4,3,18.4,4.74s12.14,3.36,18.32,2.56a24.22,24.22,0,0,0,8.8-2.78,18.53,18.53,0,0,0,3.74-2.74,16.56,16.56,0,0,0,2.8-3.73l.13.07a16.49,16.49,0,0,1-2.63,3.95,19.26,19.26,0,0,1-3.69,3.05,25,25,0,0,1-9,3.22,30.75,30.75,0,0,1-4.8.36,42.59,42.59,0,0,1-4.79-.41,71.51,71.51,0,0,1-9.3-2.1c-6.06-1.79-12-4-18.15-4.7a32.73,32.73,0,0,0-9.22,0,20.43,20.43,0,0,0-8.48,3.25,24.79,24.79,0,0,0-6.29,6.69,83.77,83.77,0,0,0-4.7,8.13,104.92,104.92,0,0,0-7.1,17.41,107.52,107.52,0,0,0-4.71,37.23Z"/><path class="cls-5" d="M1126.13,341.46a46.29,46.29,0,0,0,13.16-2.15c4.29-1.27,8.46-2.89,12.68-4.38a76,76,0,0,1,13-3.56,52.36,52.36,0,0,1,13.47-.3c9,1,17.6,3.82,25.81,7.42A70.63,70.63,0,0,1,1216,345a44.71,44.71,0,0,1,9.82,9.31,53.27,53.27,0,0,1,10.09,24.91,72.4,72.4,0,0,1-1.4,26.92,119,119,0,0,1-9.6,25.15c-4,8-8.65,15.69-13.33,23.31l-.13-.07c4.33-7.83,8.69-15.64,12.52-23.7a123.18,123.18,0,0,0,9.07-25,70.94,70.94,0,0,0,1.39-26.36,52,52,0,0,0-9.57-24.39,43.88,43.88,0,0,0-9.5-9.15,70,70,0,0,0-11.58-6.52c-8.12-3.64-16.65-6.55-25.49-7.57a51.94,51.94,0,0,0-13.3.15,74.84,74.84,0,0,0-12.91,3.39c-4.22,1.44-8.42,3-12.73,4.24a46.52,46.52,0,0,1-13.25,2Z"/><path class="cls-5" d="M1145,370.5a14.69,14.69,0,0,1,5.23-7.49,20.32,20.32,0,0,1,8.39-3.83c6.11-1.3,12.38-.34,18.41.65s12.16,2.52,17.69,5.43a26.82,26.82,0,0,1,7.43,5.67,24,24,0,0,1,4.83,8,44.48,44.48,0,0,1,2.25,9.06,77.39,77.39,0,0,1,.87,9.25,82.08,82.08,0,0,1-1.62,18.5,76.65,76.65,0,0,1-16,33.05l-.12-.09A83.9,83.9,0,0,0,1207,415.46a79.54,79.54,0,0,0,1.61-18.15,76.94,76.94,0,0,0-.71-9.09,44,44,0,0,0-2-8.84,23.86,23.86,0,0,0-11.6-13.25c-5.34-2.9-11.34-4.44-17.35-5.55s-12.17-2.13-18.19-1a20.35,20.35,0,0,0-8.3,3.63,14.39,14.39,0,0,0-5.26,7.29Z"/><path class="cls-5" d="M1100.77,356.86a198.8,198.8,0,0,1,32.57-15.52c11.27-4.26,22.69-8,34.17-11.71,5.77-1.7,11.76-3.11,17.86-3a48,48,0,0,1,17.75,3.6c11.29,4.61,20.82,12.71,28.49,22a100.41,100.41,0,0,1,10.17,15,71.1,71.1,0,0,1,6.86,16.85,50.37,50.37,0,0,1,1.15,18.18,112.17,112.17,0,0,1-3.77,17.76c-3.47,11.54-7.14,23-10.69,34.51L1230,471.85l-5.5,17.2-.14-.05c6.54-23.17,13.62-46.18,20.25-69.3a109.56,109.56,0,0,0,3.73-17.52,48.77,48.77,0,0,0-1.1-17.65,69.94,69.94,0,0,0-6.6-16.56,99,99,0,0,0-9.91-14.91c-7.52-9.24-16.87-17.29-27.93-21.88a47.28,47.28,0,0,0-17.39-3.64c-6-.19-11.89,1.16-17.63,2.82-11.48,3.55-23,7.25-34.23,11.4A198.19,198.19,0,0,0,1100.85,357Z"/><path class="cls-5" d="M1205.38,457.27l25.17-9.86c8.37-3.25,16.77-6.79,25.78-8.15a39.46,39.46,0,0,1,13.58.18c1.13.17,2.21.58,3.32.86s2.13.82,3.2,1.23,2,1,3,1.61a32.07,32.07,0,0,1,2.83,1.93,34.54,34.54,0,0,1,13.4,23.14,31.32,31.32,0,0,1-1.45,13.59,52.86,52.86,0,0,1-6.07,12.23,132.36,132.36,0,0,1-62.78,49.84l-.06-.14a143.41,143.41,0,0,0,44.4-29.93,131.63,131.63,0,0,0,17.18-20.59,51.11,51.11,0,0,0,6-11.84,30.07,30.07,0,0,0,1.53-13,33.43,33.43,0,0,0-12.8-22.49A32.3,32.3,0,0,0,1279,444c-.94-.59-2-1.06-2.92-1.59s-2-.88-3.09-1.22-2.11-.68-3.21-.86a38.57,38.57,0,0,0-13.3-.28c-8.9,1.24-17.32,4.66-25.73,7.82l-25.27,9.58Z"/><path class="cls-5" d="M1207.75,523.21c6.67,3.62,14.16,5.4,21.64,6.38s15.09,1.24,22.64,1.87c15.09,1.25,30.22,3.75,44.47,9.13a99.77,99.77,0,0,1,10.44,4.58,86.7,86.7,0,0,1,9.86,5.74,88.41,88.41,0,0,1,9,7,82.08,82.08,0,0,1,7.94,8.21,69.2,69.2,0,0,1,6.64,9.3c1,1.61,1.86,3.34,2.76,5l1.18,2.61c.4.87.76,1.75,1.08,2.66a54.59,54.59,0,0,1,3.67,22.5,52.89,52.89,0,0,1-6.37,21.91,46.51,46.51,0,0,1-15.36,16.9,41.8,41.8,0,0,1-10.53,4.75,45.44,45.44,0,0,1-11.41,1.58c-7.71.11-15.29-1.43-22.6-3.48s-14.45-4.69-21.67-6.92-14.51-4.32-21.84-6.17a446.63,446.63,0,0,0-44.55-8.76l0-.15q11.28,1.33,22.49,3.29t22.27,4.68q11.07,2.64,22,5.93c7.28,2.15,14.44,4.66,21.72,6.64s14.68,3.54,22.16,3.43a43.6,43.6,0,0,0,11-1.52,40.15,40.15,0,0,0,10.13-4.56,45.07,45.07,0,0,0,15-16.29,51.63,51.63,0,0,0,6.36-21.34,53.42,53.42,0,0,0-3.5-22,26.82,26.82,0,0,0-1.05-2.61l-1.14-2.57c-.88-1.66-1.68-3.37-2.7-4.95a68.53,68.53,0,0,0-6.49-9.21,82.37,82.37,0,0,0-7.81-8.15,85.42,85.42,0,0,0-18.63-12.71,102.63,102.63,0,0,0-10.34-4.6c-14.12-5.44-29.18-8-44.24-9.38-7.53-.68-15.12-1-22.64-2s-15-2.87-21.67-6.55Z"/><path class="cls-5" d="M1201.59,637.76c7.84,10.6,13.41,22.82,17.24,35.58a145.6,145.6,0,0,1,5.91,39.67,130.42,130.42,0,0,1-5.74,39.87,208.73,208.73,0,0,1-15.76,37A213.8,213.8,0,0,1,1181,822.54c-8.28,10-17,19.47-26.06,28.6a397.86,397.86,0,0,1-59.26,48.71l-1.39-1.8a466.46,466.46,0,0,0,52.22-54.53c7.91-9.7,15.46-19.73,22.38-30A195.47,195.47,0,0,0,1187,781.8a150.09,150.09,0,0,0,10.23-34.35c2.16-11.72,3.74-23.44,4.87-35.3a272,272,0,0,0,1-36.09c-.45-12.22-1.79-24.55-3.52-37.44Z"/><path class="cls-5" d="M1115.22,907.72l-4.83,6.37-5.44,6.44-2.7,3.26-2.88,3.1-5.77,6.23,1.5,1.7,6.71-5.36,3.36-2.69,3.21-2.86,6.4-5.78,6.1-6.12,3.06-3.07,2.88-3.23,2.22-2.5C1124.37,904.49,1119.76,906,1115.22,907.72Z"/><path class="cls-5" d="M1184.18,718.53a69.2,69.2,0,0,0-8.66-16.51,47,47,0,0,0-13.28-12.61l-1.67,1.53c5.07,10.41,7.19,20.74,8,31.2a188.9,188.9,0,0,1-.78,31.67c-.31,2.69-.61,5.38-.85,8.07-.14,1.34-.21,2.69-.32,4s-.32,2.68-.47,4c-.3,2.68-.53,5.37-.74,8.07l-.9,8.07-.38,4.07-.57,4-1.17,8.11-1.62,8-.87,4-1.07,4a261.55,261.55,0,0,1-25.06,61.07l-2,3.66-2.19,3.55-4.39,7.12-.3.44q7.2-2,14.56-3.43l1.32-1.65,2.55-3.53,5.06-7.11L1153,871l2.36-3.68,2.17-3.8,4.35-7.62,3.89-7.86,1.94-3.94,1.76-4L1173,832l3.1-8.25,1.58-4.12,1.36-4.2,2.85-8.39,2.47-8.53,1.23-4.28,1-4.33,1.86-8.73q.66-4.4,1.17-8.84c.16-1.48.35-3,.48-4.44s.15-3,.17-4.46c.11-3,.13-6,.16-8.92C1190.17,742.55,1188.48,730.23,1184.18,718.53Z"/><path class="cls-5" d="M1129.8,732c1.11.19,2.2.48,3.34.75s2.14.76,3.25,1.17a25.26,25.26,0,0,1,3.15,1.51,28.21,28.21,0,0,1,3,1.83,44.71,44.71,0,0,1,10.31,9.83,58.65,58.65,0,0,1,10.91,26.37,63.34,63.34,0,0,1-2.32,27.84c-2.68,8.7-6.44,16.64-10,24.39s-7.36,15.06-11.24,22.48-8.26,14.66-12.92,21.73c-9.34,14-20.8,27.23-34.87,36.38l-1.43-1.77c11.46-11.7,19.85-25.5,26.39-40.15,3.36-7.29,6.3-14.79,9.07-22.41s5.65-15.33,8.09-22.89a117.92,117.92,0,0,0,4.9-22.59c.45-3.68.79-7.27,1.08-10.79.16-1.76.27-3.53.38-5.24s.16-3.39.19-5.1a78.27,78.27,0,0,0-2.47-20.76,59.26,59.26,0,0,0-10-20.62Z"/><path class="cls-5" d="M625.56,265.13a194.25,194.25,0,0,0-143.89-33.52l-4.66.83c-1.55.28-3.11.53-4.64.93-3.06.75-6.14,1.44-9.19,2.23-6,1.72-12,4.22-16.46,8.58a14.7,14.7,0,0,0-4.27,8,16.6,16.6,0,0,0,1.38,9c1.19,2.88,2.68,5.68,4.11,8.5s2.94,5.58,4.48,8.33a283.58,283.58,0,0,0,20.65,31.73,28.53,28.53,0,0,1,2.56,4.1,10.78,10.78,0,0,1,1.22,4.81,7.35,7.35,0,0,1-1.85,4.67,16.53,16.53,0,0,1-3.78,3.09,38.47,38.47,0,0,1-8.57,4.31,53.28,53.28,0,0,1-9.25,2.47,137.52,137.52,0,0,1-19,1.76c-6.32.3-12.64.36-18.82,1.42a64.48,64.48,0,0,0-9.14,2.12,47.57,47.57,0,0,0-8.66,3.5c-1.4.69-2.69,1.55-4,2.37a34.69,34.69,0,0,0-3.6,2.91,24.84,24.84,0,0,0-5.56,7.29c-2.91,5.47-3.06,11.91-2.79,18.15s.57,12.64.68,19q.38,19-.62,38c-.35,6.32-.8,12.63-1.39,19s-1.53,12.68-3.75,18.71A36.81,36.81,0,0,1,366,483a50.5,50.5,0,0,1-16.77,9c-12.09,4.06-24.75,5.48-37.05,8.26a95.89,95.89,0,0,0-18,5.58,54.1,54.1,0,0,0-8.26,4.58,44.17,44.17,0,0,0-7.12,6.2l-.11-.1a44.74,44.74,0,0,1,7.06-6.34,55.66,55.66,0,0,1,8.25-4.72A96.46,96.46,0,0,1,312,499.59c12.33-2.89,25-4.4,36.89-8.51a49.21,49.21,0,0,0,16.37-8.95,35.53,35.53,0,0,0,10.39-15.25c2.11-5.88,3-12.15,3.54-18.41s.95-12.59,1.25-18.9q1-18.92.62-37.87c-.11-6.32-.37-12.61-.67-18.94a59.17,59.17,0,0,1,.21-9.59,29.81,29.81,0,0,1,.94-4.77,21,21,0,0,1,.82-2.3,15.29,15.29,0,0,1,1-2.23,26.19,26.19,0,0,1,5.9-7.68,35.32,35.32,0,0,1,3.78-3,45.68,45.68,0,0,1,4.16-2.44,48.9,48.9,0,0,1,8.91-3.57A65.22,65.22,0,0,1,415.4,335c6.31-1.06,12.69-1.1,19-1.38A133.74,133.74,0,0,0,453.18,332a51,51,0,0,0,9.06-2.38,37.35,37.35,0,0,0,8.34-4.16,15.41,15.41,0,0,0,3.55-2.87,6.25,6.25,0,0,0,1.6-4c0-3-1.76-5.73-3.55-8.24a284.93,284.93,0,0,1-20.62-31.89q-2.31-4.14-4.47-8.38c-1.43-2.83-2.91-5.62-4.12-8.59a17.44,17.44,0,0,1-1.41-9.5,15.56,15.56,0,0,1,4.55-8.45c4.67-4.52,10.77-7,16.85-8.75,3.07-.78,6.17-1.47,9.25-2.2,1.53-.41,3.1-.65,4.66-.92l4.68-.82A194.74,194.74,0,0,1,625.65,265Z"/><path class="cls-5" d="M726.18,142.44c-21.73-3-43.57-5.8-65.51-5.74a190.37,190.37,0,0,0-32.7,2.68,136.61,136.61,0,0,0-31.37,9.32c-10,4.36-19.58,9.76-29.12,15.18s-19.15,10.82-29.27,15.22a112,112,0,0,1-31.85,8.58,71.87,71.87,0,0,1-16.52-.15A57.14,57.14,0,0,1,474,183l.06-.14a56.54,56.54,0,0,0,15.86,4,71.92,71.92,0,0,0,16.33-.12,110.82,110.82,0,0,0,31.36-9c10-4.35,19.57-9.77,29.14-15.14s19.23-10.68,29.38-15a138.25,138.25,0,0,1,31.67-9.17,192.55,192.55,0,0,1,32.87-2.47c22,.14,43.83,3.18,65.53,6.35Z"/><path class="cls-5" d="M354.9,913.38a213.34,213.34,0,0,1,75.78-42.66,193.73,193.73,0,0,1,21.77-5.52c1.84-.4,3.7-.7,5.57-1l5.61-.86,5.65-.61c1.89-.23,3.78-.41,5.69-.5l5.71-.34c1.91-.07,3.84,0,5.76-.07,3.86-.1,7.69.14,11.55.29,1.94,0,3.84.34,5.77.5s3.85.34,5.76.63c3.81.6,7.67,1,11.46,1.89l5.69,1.21,5.65,1.48c1.88.47,3.75,1,5.6,1.64l5.56,1.83A155.09,155.09,0,0,1,565,880.84a148.45,148.45,0,0,1,19.91,12.81l4.6,3.77,2.29,1.91,2.19,2,4.34,4.08c1.41,1.41,2.76,2.88,4.13,4.32,10.89,11.76,19.3,25.26,25.9,39.17a206.56,206.56,0,0,1,8.44,21.21c1.29,3.55,2.3,7.13,3.41,10.7s2,7.14,2.88,10.72c7.19,28.59,10.22,56.88,14.7,84.24,2.12,13.72,4.61,27.19,8,40.33a197,197,0,0,0,13.69,37.78c1.55,2.94,3,6,4.72,8.79.85,1.43,1.66,2.88,2.53,4.29s1.81,2.82,2.74,4.23c3.77,5.64,8,11.28,12.05,17.26a121.72,121.72,0,0,1,11.11,19.23,101.66,101.66,0,0,1,7,21.14c3.2,14.42,3.64,29,3,43.23s-2.71,28.28-4.76,42.21l-3.46-.35c.75-14,1.36-28.06.84-41.92s-2.13-27.57-6.15-40.38a93.94,93.94,0,0,0-7.73-18.28A108.43,108.43,0,0,0,690,1196.91c-4.27-5.34-8.89-10.65-13.39-16.38-1.13-1.44-2.25-2.89-3.35-4.39s-2.12-3-3.18-4.56c-2.19-3-4-6.22-6-9.37a215.23,215.23,0,0,1-17.82-40.3c-4.59-13.84-8.17-27.85-11.29-41.76-6.13-27.83-10.75-55.42-18.77-81.05a180.74,180.74,0,0,0-15.34-36,121.31,121.31,0,0,0-23-29.12c-1.13-1-2.22-2.09-3.35-3.11L571,927.93l-1.77-1.45-1.86-1.35c-1.25-.9-2.49-1.79-3.7-2.72a158.69,158.69,0,0,0-15.79-9.58A169.88,169.88,0,0,0,530.93,905c-2.95-1.05-5.83-2.28-8.84-3.18l-4.48-1.49-4.56-1.26c-3-1-6.12-1.56-9.2-2.33-1.54-.37-3.11-.6-4.66-.91s-3.12-.63-4.7-.82c-3.14-.45-6.29-1-9.47-1.25-1.59-.15-3.18-.34-4.78-.46l-4.83-.28a214.88,214.88,0,0,0-39.29,1.72A288.5,288.5,0,0,0,396.4,903c-13.25,3.69-26.38,8.36-39.7,13.33Z"/><path class="cls-5" d="M318.15,783.12a32.83,32.83,0,0,0,10.49,5.64,41,41,0,0,0,11.52,2c7.91.31,16-.74,24.18-2.18l12.57-2.26q6.51-1.14,13.07-2c8.73-1.21,17.51-2,26.29-2.6,35.16-2.27,70.15-.2,104.35,2.55,8.49.73,17.29,1.38,26.58,2.83a127.68,127.68,0,0,1,28.6,7.56,83.89,83.89,0,0,1,27.13,17.6,68.1,68.1,0,0,1,10.68,13.54,62.75,62.75,0,0,1,6.82,16.46c2.72,11.35,2.28,21.53,1.9,30.31l-1.41,25.83L617.85,950c-2.09,34.34-4.71,68.71-7.81,102.9-.8,8.42-1.41,16.59-1.39,24.54s.78,15.6,2.83,22.55c.44,1.78,1.14,3.4,1.73,5.09a47.19,47.19,0,0,0,2.29,4.75,39.72,39.72,0,0,0,6.11,8.47c4.83,5.19,11.22,9.47,18.31,13.18s14.88,7,22.82,10.41,16.14,7.08,24,12.05,15.32,11.44,20.49,19.74a54,54,0,0,1,5.95,13.14,71.23,71.23,0,0,1,2.61,13.71,139.68,139.68,0,0,1-.54,26.65c-.86,8.62-1.91,17.21-3.27,25.75a450.73,450.73,0,0,1-11.06,50.53l-3.39-.81a447.46,447.46,0,0,0,7.13-50.61c.73-8.48,1.2-17,1.46-25.44s.15-16.78-1.16-24.69-3.87-15.26-8.22-21.24-10.34-10.74-17.25-14.51-14.61-6.7-22.58-9.58-16.26-5.69-24.59-9.44-16.74-8.56-24-15.52a59.62,59.62,0,0,1-9.59-11.79,69.35,69.35,0,0,1-3.67-6.64c-1-2.29-2.07-4.58-2.81-6.92-3.33-9.35-4.63-18.86-5.26-28s-.34-18.16,0-26.83q2.28-51.3,3.07-102.45l.22-25.61c0-8.53-.07-17.07-.14-25.61l-.4-25.57c-.15-8.3-.72-15.48-2.51-20.74a27.74,27.74,0,0,0-3.41-7,36.78,36.78,0,0,0-5.58-6.27,54.39,54.39,0,0,0-16-9.79c-12.55-5.1-28.22-7-45.38-9.4-33.9-4.77-67.2-10-100.64-12.55-4.18-.35-8.35-.58-12.54-.88s-8.37-.43-12.55-.54c-2.1-.06-4.2-.17-6.29-.19l-6.29-.08c-4.22-.09-8.61,0-13.05-.16s-8.94-.35-13.48-.88a84,84,0,0,1-13.61-2.68,48.75,48.75,0,0,1-12.87-5.77,35.48,35.48,0,0,1-9.92-9.72Z"/><path class="cls-5" d="M428.74,599.85l-45.94,3.82-23,1.84a152.5,152.5,0,0,0-22.63,3.26,71.26,71.26,0,0,0-10.74,3.49,45.28,45.28,0,0,0-9.64,5.58c-6.05,4.37-10,10.75-13.26,17.63-6.7,13.8-13.32,27.69-20.55,41.27l-.27-.12c5.65-14.33,11.86-28.36,18.09-42.45a66.88,66.88,0,0,1,5.74-10.29,45.79,45.79,0,0,1,3.89-4.57l2.21-2c.73-.69,1.57-1.24,2.35-1.86a49.14,49.14,0,0,1,10.4-5.68,75,75,0,0,1,11.24-3.34,153.72,153.72,0,0,1,23-2.86l23-1.39,46-2.61Z"/><path class="cls-5" d="M896.19,107.69a86.67,86.67,0,0,1,70.55-22.58,88.83,88.83,0,0,1,12.49,2.72c4.09,1.22,8.08,2.71,12,4.22s7.9,3.06,11.89,4.44,8.05,2.51,12.14,3.53a168.53,168.53,0,0,0,25,4c16.83,1.65,33.82,1.21,50.77,1.12v.15c-16.92,1-33.93,1.63-50.9.24a171,171,0,0,1-25.21-4c-4.12-1.07-8.21-2.28-12.23-3.71s-7.94-3-11.88-4.58-7.89-3.06-11.92-4.3a86.62,86.62,0,0,0-12.31-2.79,83.56,83.56,0,0,0-25.21.17,85.32,85.32,0,0,0-45.1,21.55Z"/><path class="cls-5" d="M891.15,164.18c2.93,0,2.93-4.54,0-4.54s-2.92,4.54,0,4.54"/><path class="cls-5" d="M878.25,89c-7.84-6.53-15.61-13.15-23.49-19.59a68.34,68.34,0,0,0-12.66-8.33A33.36,33.36,0,0,0,835,58.54a24,24,0,0,0-7.41-.5,24.51,24.51,0,0,0-13.43,5.89,76.62,76.62,0,0,0-10.3,11c-3.22,3.93-6.33,8-9.93,11.69a49.15,49.15,0,0,1-5.78,5.1,31.74,31.74,0,0,1-6.69,3.77l-.06-.14a39.89,39.89,0,0,0,11.76-9.45c3.38-3.77,6.4-7.86,9.52-11.91a67.18,67.18,0,0,1,10.54-11.26,25.8,25.8,0,0,1,14.26-5.94,25.35,25.35,0,0,1,7.77.64,33.89,33.89,0,0,1,7.25,2.73,69.33,69.33,0,0,1,12.71,8.62c7.78,6.62,15.4,13.38,23.1,20.06Z"/><path class="cls-5" d="M753.48,98.31a137.83,137.83,0,0,0-27.78-4.57,96.9,96.9,0,0,0-14.05,0,39.65,39.65,0,0,0-13.44,3.34,18.75,18.75,0,0,0-9.54,9.31c-1.81,4.16-1.92,8.9-1.92,13.56a166,166,0,0,0,2.37,28l-.15,0a122,122,0,0,1-3.73-28c-.06-4.69,0-9.66,2.06-14.18A20.12,20.12,0,0,1,697.7,96a41,41,0,0,1,13.87-3.22,97.19,97.19,0,0,1,14.18.25,137.77,137.77,0,0,1,27.77,5.17Z"/><path class="cls-5" d="M393.09,864.76c1.44,2,2.77,4,4,6.15s2.37,4.35,3.44,6.64A53.83,53.83,0,0,1,405,892.49a43.41,43.41,0,0,1,.35,8.35,33.77,33.77,0,0,1-.54,4.32l-.43,2.18c-.18.73-.41,1.44-.62,2.16a38,38,0,0,1-9.37,15.55,52.48,52.48,0,0,1-14.3,10,114.35,114.35,0,0,1-14.53,5.85c-4.69,1.59-9.19,2.92-13.38,4.38a87.74,87.74,0,0,0-11.45,4.58,38.48,38.48,0,0,0-4.65,2.62,24,24,0,0,0-3.78,3l-.89.76c-.3.25-.53.57-.81.85-.51.59-1.08,1.11-1.59,1.72s-.92,1.28-1.43,1.9l-.37.46-.31.53-.64,1.05a17.19,17.19,0,0,0-1.23,2.15c-.36.77-.78,1.5-1.14,2.28a52.92,52.92,0,0,0-1.86,5c-.63,1.69-1,3.57-1.51,5.39-.31,1.91-.78,3.78-.94,5.78a90.17,90.17,0,0,0,.23,24.75c.64,4.13,1.49,8.56,2.56,13s2.24,8.94,3.45,13.54a284.59,284.59,0,0,1,6.55,28.66,102.6,102.6,0,0,1,.65,31.1,80.23,80.23,0,0,1-10.86,29.57,77.89,77.89,0,0,1-9.47,12.49,92.12,92.12,0,0,1-11.35,10.25c-7.93,6.07-16.13,10.95-23.76,16.14a203.45,203.45,0,0,0-21.73,17.08,204.18,204.18,0,0,0-35.77,42.74l-2.39-1.31a196.4,196.4,0,0,1,32.13-47.48,198,198,0,0,1,21.1-19.93c7.5-6.12,15.1-11.64,21.67-17.68a67.77,67.77,0,0,0,15.74-20.1,63,63,0,0,0,6.7-23.91,84.28,84.28,0,0,0-2.27-25.23,266.8,266.8,0,0,0-7.82-26.11c-1.52-4.44-3.07-9-4.56-13.64s-3-9.37-4.25-14.49a116.73,116.73,0,0,1-3.45-31.59c.05-2.72.46-5.51.74-8.28a79.05,79.05,0,0,1,1.69-8.4,69.92,69.92,0,0,1,2.75-8.37c.58-1.38,1.26-2.75,1.9-4.11.35-.68.63-1.37,1-2l1.2-2a56.68,56.68,0,0,1,5.44-7.59c1-1.18,2.17-2.29,3.28-3.42.56-.55,1.09-1.13,1.7-1.64l1.85-1.48a56,56,0,0,1,15.7-9c10.64-4.05,20.55-5.49,29.41-7.2s16.75-3.5,22.4-7.14,9.66-9.6,10.78-17.83a54.94,54.94,0,0,0,.21-13c-.2-2.26-.49-4.55-.9-6.84s-.84-4.61-1.29-7Z"/><path class="cls-5" d="M233.44,762A156.68,156.68,0,0,0,209,770.28a151.39,151.39,0,0,0-22.78,12.09,134.13,134.13,0,0,0-36.82,35.94l-.13-.08a131.4,131.4,0,0,1,36.28-36.86,122.41,122.41,0,0,1,22.86-12.49,111.19,111.19,0,0,1,25-7Z"/><path class="cls-5" d="M141.14,924.59a40.13,40.13,0,0,0-17.82,12.29,57.32,57.32,0,0,0-10.77,18.89,88.39,88.39,0,0,0-4,21.62c-.57,7.35-.55,14.75-.51,22.14h-.16c-.23-7.39-.46-14.79-.09-22.2a89.57,89.57,0,0,1,3.64-21.94,51.93,51.93,0,0,1,10.79-19.52c5-5.53,11.58-9.94,18.91-11.44Z"/><path class="cls-5" d="M452,801.89c-35.75-1.23-71.26-1.65-106.65-.55-17.69.65-35.34,1.49-52.94,2.82l-13.2,1.06c-4.39.4-8.78.75-13.17,1.21-8.78.84-17.54,1.72-26.13,2.89s-17.08,2.47-25.34,4.28a166.56,166.56,0,0,0-23.95,6.83c-1.9.73-3.8,1.46-5.64,2.27s-3.68,1.62-5.48,2.49-3.51,1.86-5.28,2.77-3.28,1.95-4.84,3-3.14,2.16-4.57,3.41c-.73.6-1.49,1.17-2.2,1.8l-2.07,1.93-1,1-1,1-1.93,2.05-1.73,2.16-.88,1.09c-.27.36-.51.75-.77,1.12l-1.57,2.26-1.35,2.33-.68,1.16-.55,1.2c-.35.8-.76,1.59-1.1,2.39a36.76,36.76,0,0,0-2.37,9.73,27.9,27.9,0,0,0,1,9.43,16.85,16.85,0,0,0,.82,2.25,14.24,14.24,0,0,0,1,2.26,20,20,0,0,0,1.25,2.24l.68,1.11.78,1.1c4.18,5.89,10.39,11.4,17.15,16.81l10.51,8.29a137.08,137.08,0,0,1,10.77,9.4,82.6,82.6,0,0,1,9.81,11.35,50.37,50.37,0,0,1,7.28,14.4,34.24,34.24,0,0,1,.7,17.64,32.86,32.86,0,0,1-3,8.17,55.49,55.49,0,0,1-4.08,6.69c-1.44,2-2.87,3.91-4.3,5.71s-2.88,3.6-4.35,5.37q-4.42,5.31-9.13,10.36a266.81,266.81,0,0,1-19.78,19.16q-5.19,4.51-10.6,8.75c-3.61,2.85-7.21,5.5-10.61,8.16-6.76,5.31-13,10.75-16.23,17.21A30.76,30.76,0,0,0,122,1062a45.53,45.53,0,0,0,.29,11.68c1.14,8,4,16.16,7.14,24.32,6.51,16.37,13.5,33.72,15.66,52.29a82,82,0,0,1-1.24,28,68.46,68.46,0,0,1-11.59,25.59,66.44,66.44,0,0,1-9.52,10.37,72.31,72.31,0,0,1-11.44,8c-8.08,4.5-16.56,7.71-25,10.75s-16.82,5.85-24.79,9.54-15.43,8.47-20.91,15.21l-1.82-1.35c5.45-7.43,13.12-12.94,21.15-17s16.43-7.46,24.64-10.85,16.34-6.84,23.69-11.34a67.33,67.33,0,0,0,10.12-7.73,59.82,59.82,0,0,0,8.14-9.63,60.92,60.92,0,0,0,9.38-23.2,72.86,72.86,0,0,0,.06-25.17,131.08,131.08,0,0,0-6.79-24.83c-3-8.19-6.64-16.08-10.28-24.39s-7-17-8.76-26.63a58.45,58.45,0,0,1-.86-15,43.86,43.86,0,0,1,4.13-15.06,49,49,0,0,1,8.72-12.6,113.29,113.29,0,0,1,10.42-9.73c3.52-2.95,7-5.72,10.31-8.51s6.57-5.67,9.73-8.63a249.94,249.94,0,0,0,18.11-18.58c2.84-3.24,5.61-6.55,8.27-9.94,1.33-1.7,2.65-3.4,3.92-5.14s2.53-3.44,3.61-5.08c4.56-6.79,5.53-11.7,3.54-17.92s-7.14-12.39-13-17.81-13.08-10.29-20.39-15.79-15-11.41-21.62-19.81l-1.21-1.58-1.15-1.69a39.57,39.57,0,0,1-2.17-3.5,31.08,31.08,0,0,1-1.88-3.79,37.06,37.06,0,0,1-1.64-4,49.09,49.09,0,0,1-2.59-16.92,58.42,58.42,0,0,1,3.12-16.35c.46-1.27,1-2.51,1.51-3.76l.77-1.87.91-1.78c.61-1.18,1.22-2.37,1.85-3.54l2.09-3.35c.36-.55.7-1.11,1.08-1.65l1.16-1.57,2.36-3.12,2.54-2.92,1.28-1.46,1.36-1.37,2.74-2.72c.93-.88,1.92-1.69,2.88-2.53a76.11,76.11,0,0,1,6-4.74c2.07-1.49,4.27-2.82,6.42-4.18,2.16-1.18,4.29-2.49,6.5-3.55s4.4-2.2,6.64-3.15,4.49-1.88,6.76-2.73c18.17-6.8,36.81-9.69,55-11.54,18.24-1.62,36.13-2.35,54.19-2.63s36.06.14,54,1.25a676.43,676.43,0,0,1,106.71,14.27Z"/><path class="cls-5" d="M359.78,563.5a133.91,133.91,0,0,0-63.8-4,115.29,115.29,0,0,0-15.61,3.9,24.84,24.84,0,0,0-7,3.58,16.42,16.42,0,0,0-4.83,6c-2.26,4.76-2.71,10.21-2.75,15.53a154.6,154.6,0,0,0,.84,16.07c.95,10.71,2.44,21.5,1.7,32.39a66,66,0,0,1-3.05,16,49.58,49.58,0,0,1-3.18,7.56,44.15,44.15,0,0,1-4.54,6.87,38.28,38.28,0,0,1-6,5.67,37.48,37.48,0,0,1-7.14,4.09,63.84,63.84,0,0,1-15.72,4.32c-5.35.9-10.71,1.48-16,2.39a65.89,65.89,0,0,0-15.42,4.25c-9.83,4.21-18.2,11.42-24.62,20A82.42,82.42,0,0,0,159,737a128,128,0,0,0-3.78,31.93,267.07,267.07,0,0,0,2.14,32.21,350.86,350.86,0,0,0,12.84,63.28A233.51,233.51,0,0,0,197,923l-.12.08c-11.86-18.05-20.72-38-27.18-58.55a352.13,352.13,0,0,1-13.16-63.32,266.26,266.26,0,0,1-2.25-32.31,128.71,128.71,0,0,1,3.7-32.17,83.34,83.34,0,0,1,13.79-29.27,62.87,62.87,0,0,1,25-20.41,67.28,67.28,0,0,1,15.68-4.4c5.34-.95,10.7-1.56,16-2.47a62.61,62.61,0,0,0,15.37-4.28,36.26,36.26,0,0,0,6.85-4,35.83,35.83,0,0,0,5.7-5.45,41.56,41.56,0,0,0,4.37-6.61,48.14,48.14,0,0,0,3.08-7.33,64.12,64.12,0,0,0,3-15.67c.73-10.68-.74-21.41-1.7-32.15a156.74,156.74,0,0,1-.71-16.23c.09-5.4.57-11,3-16a17.59,17.59,0,0,1,5.24-6.43,26.07,26.07,0,0,1,7.36-3.69,116.44,116.44,0,0,1,15.8-3.8,130.19,130.19,0,0,1,64,4.81Z"/><path class="cls-5" d="M620.5,297.24a53.8,53.8,0,0,1,7.58,14.26,86.32,86.32,0,0,1,3.85,15.78,111.4,111.4,0,0,1-.25,32.46,142.47,142.47,0,0,1-3.53,15.89c-1.5,5.2-3.32,10.3-5.3,15.32-4,10-8.82,19.64-13.68,29.15s-9.62,19.16-15.78,28.09a64.43,64.43,0,0,1-10.68,12.3A49.58,49.58,0,0,1,569,469.33c-1.26.5-2.49,1.12-3.79,1.51l-3.88,1.23c-2.63.64-5.26,1.31-7.93,1.69a142,142,0,0,1-16,1.57c-5.34.31-10.67.49-16,.93a107.49,107.49,0,0,0-15.76,2.4l-.12-.44a107.37,107.37,0,0,1,15.79-2.86c5.33-.6,10.66-.93,16-1.39a140.75,140.75,0,0,0,15.79-2c2.61-.44,5.14-1.17,7.68-1.86l3.71-1.29c1.24-.42,2.4-1.05,3.6-1.56a47,47,0,0,0,12.89-8.7,61.69,61.69,0,0,0,10-12c5.79-8.79,10.33-18.43,15-28s9.06-19.27,12.74-29.18q2.82-7.4,5-15A137.25,137.25,0,0,0,627.2,359a122.82,122.82,0,0,0,1.58-31.35,84.15,84.15,0,0,0-2.68-15.52,57.81,57.81,0,0,0-6-14.64Z"/><path class="cls-5" d="M643.48,291.45q2,10.24,3.47,20.55c1,6.87,1.86,13.79,2.39,20.77a125.82,125.82,0,0,1-.18,21.08,93.66,93.66,0,0,1-1.69,10.5,67.18,67.18,0,0,1-3,10.25,48.76,48.76,0,0,1-11.54,17.95,38.33,38.33,0,0,1-8.69,6.33,55.92,55.92,0,0,1-9.86,3.95c-6.75,2-13.59,3.11-20,5.48a38.85,38.85,0,0,0-9.06,4.72,35.13,35.13,0,0,0-7.31,7.2l-.37-.26a35.81,35.81,0,0,1,7.13-7.67,39.93,39.93,0,0,1,9.11-5.26c6.49-2.71,13.36-4.16,19.83-6.37a52.77,52.77,0,0,0,9.28-4.08,35.23,35.23,0,0,0,7.87-6.13A45.53,45.53,0,0,0,641,373.36a75.36,75.36,0,0,0,3.64-19.88c.21-3.39.33-6.79.29-10.21s-.05-6.84-.17-10.27c-.46-13.72-1.7-27.59-1.77-41.51Z"/><path class="cls-5" d="M1061.83,349c-3.57,12-7.54,24-8.34,36.34A100.66,100.66,0,0,0,1057.6,422a86.81,86.81,0,0,0,17.94,32.29,61.5,61.5,0,0,0,14.22,11.95,42.64,42.64,0,0,0,17.57,5.92l0,.3a43.31,43.31,0,0,1-18-5.43,62.92,62.92,0,0,1-14.88-11.71,88.79,88.79,0,0,1-19.14-32.58c-4-12-6.15-24.88-4.81-37.64s5.88-24.76,11.06-36.18Z"/><path d="M756.25,541.07a7.89,7.89,0,0,1,.7-.86,8.86,8.86,0,0,1,.77-.73,8,8,0,0,1,1.71-1.15A8,8,0,0,0,758.3,540c-.14.29-.28.58-.39.88a4.85,4.85,0,0,0-.28.87Z"/><path d="M753.85,539a9.13,9.13,0,0,1,.82-1.11,10.36,10.36,0,0,1,.92-.95,11.12,11.12,0,0,1,2.07-1.52,10.38,10.38,0,0,0-1.48,2,10.12,10.12,0,0,0-.55,1.09,8.28,8.28,0,0,0-.38,1.08Z"/><path d="M751.25,537.13a6.54,6.54,0,0,1,.73-1.34,8.9,8.9,0,0,1,.93-1.09,8.08,8.08,0,0,1,2.28-1.57,7.71,7.71,0,0,0-1.68,2,7.09,7.09,0,0,0-.52,1.16,5,5,0,0,0-.27,1.15Z"/><path d="M748.36,535.1a7.38,7.38,0,0,1,.61-1.39,8.26,8.26,0,0,1,.82-1.18,5.81,5.81,0,0,1,2.24-1.66,5.42,5.42,0,0,0-1.6,2.07,7.39,7.39,0,0,0-.41,1.2,5.92,5.92,0,0,0-.16,1.2Z"/><path d="M745.12,532.82a9.86,9.86,0,0,1,.78-1.36,11.92,11.92,0,0,1,.92-1.2,8.48,8.48,0,0,1,2.29-1.86,7.85,7.85,0,0,0-1.66,2.29,10.88,10.88,0,0,0-.54,1.28,10,10,0,0,0-.34,1.3Z"/><path d="M742.64,530.7a7.75,7.75,0,0,1,.7-1.38,8.68,8.68,0,0,1,.89-1.18,6.4,6.4,0,0,1,2.33-1.69,6,6,0,0,0-1.7,2.12,8.08,8.08,0,0,0-.49,1.23,6.64,6.64,0,0,0-.26,1.25Z"/><path d="M739.12,528.65a6.1,6.1,0,0,1,.49-1.58,6.4,6.4,0,0,1,3.15-3.19,5.89,5.89,0,0,0-1.69,2.24,5.58,5.58,0,0,0-.38,1.29,5,5,0,0,0-.06,1.26Z"/><path d="M735.08,527.11a16,16,0,0,1,1.56-3.28,8.26,8.26,0,0,1,2.42-2.57,7.75,7.75,0,0,0-1.74,2.91,13.91,13.91,0,0,0-.75,3.25Z"/><path d="M731.42,525.44A15.33,15.33,0,0,1,732.9,522a9.58,9.58,0,0,1,2.35-2.78,9.27,9.27,0,0,0-1.66,3.09,14.51,14.51,0,0,0-.68,3.37Z"/><path d="M727.08,523.72a14.75,14.75,0,0,1,.61-2,15.67,15.67,0,0,1,.86-1.86,11,11,0,0,1,2.49-3.17,10.74,10.74,0,0,0-1.8,3.47,15,15,0,0,0-.45,1.87,13.72,13.72,0,0,0-.21,1.87Z"/><path d="M722.22,522.16a14.49,14.49,0,0,1,1.12-4,9.56,9.56,0,0,1,2.35-3.3,9.07,9.07,0,0,0-1.63,3.54,12.44,12.44,0,0,0-.3,1.91,13.34,13.34,0,0,0,0,1.89Z"/><path d="M717.58,521a13.65,13.65,0,0,1,.23-2.08,13.22,13.22,0,0,1,.54-2,9.19,9.19,0,0,1,2.1-3.37,8.78,8.78,0,0,0-1.36,3.56,12,12,0,0,0-.15,1.88,10.76,10.76,0,0,0,.15,1.83Z"/><path d="M713.12,520.31a19.91,19.91,0,0,1,.48-4.11,9.38,9.38,0,0,1,1.61-3.73,9,9,0,0,0-.86,3.83,20,20,0,0,0,.27,3.88Z"/><path d="M707.75,519.42a14.42,14.42,0,0,1,0-2,17,17,0,0,1,.23-1.9,12.3,12.3,0,0,1,1.17-3.59,12.21,12.21,0,0,0-.42,3.64,15.6,15.6,0,0,0,.16,1.81,12.91,12.91,0,0,0,.35,1.73Z"/><path d="M702.1,519.34a14.17,14.17,0,0,1-.36-2.08,15.59,15.59,0,0,1,0-2,8.56,8.56,0,0,1,1.11-3.87,8.12,8.12,0,0,0-.35,3.84,13,13,0,0,0,.4,1.87,11.33,11.33,0,0,0,.66,1.75Z"/><path d="M696.51,519.76a18,18,0,0,1-.88-4.24,8.13,8.13,0,0,1,.61-4.18,7.72,7.72,0,0,0,.14,4.05,17.3,17.3,0,0,0,1.5,3.74Z"/><path d="M691,520.61a12.33,12.33,0,0,1-1.62-4.28,7.63,7.63,0,0,1,.47-4.37,7.28,7.28,0,0,0,.26,4.19,11.08,11.08,0,0,0,2.08,3.52Z"/><path d="M685.38,521.43a12,12,0,0,1-1.08-2,11.75,11.75,0,0,1-.66-2.14,9.06,9.06,0,0,1-.2-2.2,8.56,8.56,0,0,1,.36-2.14,8.34,8.34,0,0,0,0,2.12,8.65,8.65,0,0,0,.54,2,11.24,11.24,0,0,0,.95,1.82,10.29,10.29,0,0,0,1.23,1.57Z"/><path d="M680.15,524A17.23,17.23,0,0,1,679,521.9a18.5,18.5,0,0,1-.89-2.16,10.2,10.2,0,0,1-.54-4.53,9.79,9.79,0,0,0,1.24,4.24,16.17,16.17,0,0,0,1.17,1.86,15.25,15.25,0,0,0,1.37,1.67Z"/><path d="M675,526.08a19.15,19.15,0,0,1-1.39-2.11,20,20,0,0,1-1.1-2.23,11.51,11.51,0,0,1-1-4.8,11.12,11.12,0,0,0,1.63,4.45,18.83,18.83,0,0,0,1.37,1.94,20,20,0,0,0,1.56,1.72Z"/><path d="M669.78,528.92a20.82,20.82,0,0,1-2.17-3.64,8.71,8.71,0,0,1-1-4,8.38,8.38,0,0,0,1.62,3.65,20.47,20.47,0,0,0,2.63,3Z"/><path d="M664.84,532a20.27,20.27,0,0,1-2.53-3,8.44,8.44,0,0,1-1.53-3.5,8,8,0,0,0,2.11,3,19.13,19.13,0,0,0,2.87,2.26Z"/><path d="M660.42,535.44a13.75,13.75,0,0,1-1.69-1.39,13.35,13.35,0,0,1-1.41-1.59,8.39,8.39,0,0,1-1.68-3.8,8.05,8.05,0,0,0,2.24,3.3,13.12,13.12,0,0,0,1.57,1.21,12.27,12.27,0,0,0,1.69.93Z"/><path d="M655.65,539.62a23.12,23.12,0,0,1-2.33-3.06,13.52,13.52,0,0,1-1.59-3.43,13.13,13.13,0,0,0,2.19,3,21.84,21.84,0,0,0,2.73,2.39Z"/><path d="M651.33,543.9a13.94,13.94,0,0,1-2.36-2.51,7.13,7.13,0,0,1-1.35-3.06,6.83,6.83,0,0,0,1.91,2.55,13.12,13.12,0,0,0,2.6,1.74Z"/><path d="M887,528.51a5.92,5.92,0,0,0-.31-.85c-.13-.29-.27-.58-.43-.86a7.44,7.44,0,0,0-1.2-1.57,7.88,7.88,0,0,1,1.77,1.07c.27.22.53.45.79.7a7.63,7.63,0,0,1,.74.83Z"/><path d="M889.31,526.35a7,7,0,0,0-.42-1.08c-.18-.36-.37-.71-.59-1.06a10.56,10.56,0,0,0-1.56-1.93,11.08,11.08,0,0,1,2.13,1.44,9.06,9.06,0,0,1,1,.91,7.45,7.45,0,0,1,.87,1.08Z"/><path d="M891.75,524.09a4.65,4.65,0,0,0-.31-1.14,7,7,0,0,0-.57-1.13,7.43,7.43,0,0,0-1.76-2,7.94,7.94,0,0,1,2.34,1.47,8.1,8.1,0,0,1,1,1,6.15,6.15,0,0,1,.79,1.31Z"/><path d="M894.53,521.84a6.15,6.15,0,0,0-.22-1.19,6.51,6.51,0,0,0-.45-1.18,5.4,5.4,0,0,0-1.69-2,5.85,5.85,0,0,1,2.31,1.56,8.26,8.26,0,0,1,.87,1.15,7.16,7.16,0,0,1,.66,1.36Z"/><path d="M897.73,519.64a8.9,8.9,0,0,0-.4-1.28,10.21,10.21,0,0,0-.58-1.26,8,8,0,0,0-1.76-2.21,8.22,8.22,0,0,1,2.37,1.76,13.84,13.84,0,0,1,1,1.16,9.52,9.52,0,0,1,.82,1.32Z"/><path d="M900.1,517.32a6,6,0,0,0-.32-1.23,7.76,7.76,0,0,0-.53-1.22,6.1,6.1,0,0,0-1.79-2,6.39,6.39,0,0,1,2.39,1.59,8,8,0,0,1,.94,1.15,7.8,7.8,0,0,1,.76,1.34Z"/><path d="M903.47,514.81a4.71,4.71,0,0,0-.11-1.26,5.51,5.51,0,0,0-.43-1.28,5.81,5.81,0,0,0-1.77-2.16,6.21,6.21,0,0,1,2.41,1.75,6.37,6.37,0,0,1,.86,1.3,6,6,0,0,1,.55,1.56Z"/><path d="M907.49,513.39a14.58,14.58,0,0,0-.89-3.22,7.83,7.83,0,0,0-1.86-2.84,8.16,8.16,0,0,1,2.52,2.48A15.57,15.57,0,0,1,909,513Z"/><path d="M911.06,511.5a14,14,0,0,0-.81-3.34,9.4,9.4,0,0,0-1.79-3,9.73,9.73,0,0,1,2.47,2.68,15.74,15.74,0,0,1,1.62,3.38Z"/><path d="M915.32,509.53a14.21,14.21,0,0,0-.28-1.86,15.57,15.57,0,0,0-.54-1.85,10.58,10.58,0,0,0-1.93-3.38,11.18,11.18,0,0,1,2.62,3.05,15.72,15.72,0,0,1,.93,1.83,14.88,14.88,0,0,1,.69,2Z"/><path d="M920.09,507.63a12.23,12.23,0,0,0-.1-1.89,13.75,13.75,0,0,0-.38-1.89,9.13,9.13,0,0,0-1.77-3.48,9.55,9.55,0,0,1,2.48,3.2,16.07,16.07,0,0,1,.78,1.92,13.19,13.19,0,0,1,.5,2.06Z"/><path d="M924.68,506.13a11,11,0,0,0,.07-1.83,11.78,11.78,0,0,0-.22-1.87,8.69,8.69,0,0,0-1.51-3.51,8.94,8.94,0,0,1,2.23,3.29,12.8,12.8,0,0,1,.63,1.93,12.27,12.27,0,0,1,.31,2.07Z"/><path d="M929.11,505.25a20,20,0,0,0,.12-3.88,9,9,0,0,0-1-3.79,9.36,9.36,0,0,1,1.76,3.66,19.72,19.72,0,0,1,.65,4.09Z"/><path d="M934.46,504a13.17,13.17,0,0,0,.28-1.74,15.66,15.66,0,0,0,.08-1.81,11.91,11.91,0,0,0-.57-3.63,12.38,12.38,0,0,1,1.33,3.54q.2.93.3,1.89a14.19,14.19,0,0,1,.07,2Z"/><path d="M940.15,503.43a12,12,0,0,0,.59-1.78,13,13,0,0,0,.32-1.88,8.08,8.08,0,0,0-.5-3.82,8.52,8.52,0,0,1,1.26,3.81,12.86,12.86,0,0,1,0,2.06,13,13,0,0,1-.27,2.09Z"/><path d="M945.8,503.53a17.85,17.85,0,0,0,1.35-3.8,7.84,7.84,0,0,0,0-4.05,8.14,8.14,0,0,1,.78,4.15,18.57,18.57,0,0,1-.7,4.27Z"/><path d="M951.49,503.84a11,11,0,0,0,1.12-1.69,10.14,10.14,0,0,0,.81-1.92,7.23,7.23,0,0,0,.09-4.2,7.6,7.6,0,0,1,.65,4.35,10.57,10.57,0,0,1-.51,2.21,11.35,11.35,0,0,1-.94,2.13Z"/><path d="M957.19,504.38a10,10,0,0,0,1.16-1.62,10.5,10.5,0,0,0,.87-1.86,8.22,8.22,0,0,0,.46-2,8,8,0,0,0-.07-2.12,8.43,8.43,0,0,1,.45,2.12,9.11,9.11,0,0,1-.1,2.21,12.78,12.78,0,0,1-.58,2.16,11.47,11.47,0,0,1-1,2.06Z"/><path d="M962.51,506.69a14.4,14.4,0,0,0,1.31-1.72,16.27,16.27,0,0,0,1.09-1.91,9.85,9.85,0,0,0,1.06-4.29,10.11,10.11,0,0,1-.35,4.56,17.46,17.46,0,0,1-.81,2.19,17.64,17.64,0,0,1-1.1,2.1Z"/><path d="M967.77,508.55a17.33,17.33,0,0,0,1.49-1.78,18.81,18.81,0,0,0,1.29-2,11.13,11.13,0,0,0,1.45-4.52,11.48,11.48,0,0,1-.76,4.83,21.06,21.06,0,0,1-1,2.28,18.85,18.85,0,0,1-1.31,2.16Z"/><path d="M973.12,511.18a20.4,20.4,0,0,0,2.51-3.09,8.63,8.63,0,0,0,1.48-3.72,9,9,0,0,1-.81,4.07,21.68,21.68,0,0,1-2,3.72Z"/><path d="M978.37,513.91a19.38,19.38,0,0,0,2.78-2.37,8.12,8.12,0,0,0,2-3.1,8.44,8.44,0,0,1-1.38,3.56,20.09,20.09,0,0,1-2.41,3.07Z"/><path d="M983.12,517a11.7,11.7,0,0,0,1.66-1,13,13,0,0,0,1.51-1.27,8,8,0,0,0,2.11-3.38,8.34,8.34,0,0,1-1.53,3.86,14.09,14.09,0,0,1-1.35,1.65,12.65,12.65,0,0,1-1.62,1.45Z"/><path d="M987.79,521.17a21.15,21.15,0,0,0,2.62-2.49,12.53,12.53,0,0,0,2.07-3,13.29,13.29,0,0,1-1.45,3.49,22,22,0,0,1-2.2,3.15Z"/><path d="M992.47,525.13a13,13,0,0,0,2.52-1.84,6.89,6.89,0,0,0,1.81-2.63,7.25,7.25,0,0,1-1.22,3.11,13.77,13.77,0,0,1-2.25,2.6Z"/><path d="M650.07,552.66a1.8,1.8,0,0,0-.62.35,3.11,3.11,0,0,0-.59.61,4.28,4.28,0,0,0-.72,1.67,4.73,4.73,0,0,1,0-2,3.84,3.84,0,0,1,.39-1,3.23,3.23,0,0,1,.71-.94Z"/><path d="M653.88,554.22a1.65,1.65,0,0,0-.54.44,3.37,3.37,0,0,0-.49.68,5.58,5.58,0,0,0-.59,1.71,6.16,6.16,0,0,1-.14-1.93,5.39,5.39,0,0,1,.22-1,3.15,3.15,0,0,1,.55-1Z"/><path d="M657.48,555.5a3.94,3.94,0,0,0-.75.6,4.37,4.37,0,0,0-.63.79,3.13,3.13,0,0,0-.46,2,3.49,3.49,0,0,1-.25-2.31,5.31,5.31,0,0,1,.4-1.16,5.91,5.91,0,0,1,.68-1.09Z"/><path d="M661.31,556.56a6.22,6.22,0,0,0-.8.76,5.31,5.31,0,0,0-.68.95,4.66,4.66,0,0,0-.65,2.31,5,5,0,0,1-.06-2.58,7.66,7.66,0,0,1,.42-1.28,6.92,6.92,0,0,1,.7-1.22Z"/><path d="M664.87,557.52a3.39,3.39,0,0,0-.82.73,3.82,3.82,0,0,0-.64,1,4.93,4.93,0,0,0-.37,2.52,5.38,5.38,0,0,1-.36-2.72,5,5,0,0,1,1.24-2.73Z"/><path d="M669,558.09a3.45,3.45,0,0,0-.76.8,4.4,4.4,0,0,0-.56,1.05,5,5,0,0,0-.25,2.51,5.42,5.42,0,0,1-.2-4.07A4.89,4.89,0,0,1,668,557Z"/><path d="M673,558.45a6.55,6.55,0,0,0-.76,1.09,6.92,6.92,0,0,0-.54,1.28,5.81,5.81,0,0,0-.17,2.85,6.24,6.24,0,0,1-.58-3,8.4,8.4,0,0,1,.23-1.56,7.83,7.83,0,0,1,.57-1.54Z"/><path d="M676.85,558.71a6.49,6.49,0,0,0-.7,1.06,7.37,7.37,0,0,0-.53,1.22,4.45,4.45,0,0,0,0,2.68,4.83,4.83,0,0,1-.7-2.81,8.59,8.59,0,0,1,.2-1.49,8.18,8.18,0,0,1,.49-1.47Z"/><path d="M681.42,558.77a9.41,9.41,0,0,0-.62,1.23,9.25,9.25,0,0,0-.44,1.35,6.59,6.59,0,0,0-.12,2.87,6.88,6.88,0,0,1-.64-3,10.19,10.19,0,0,1,.11-1.55,9.58,9.58,0,0,1,.33-1.57Z"/><path d="M686.12,558.71a6.45,6.45,0,0,0-.56,1.24,8.85,8.85,0,0,0-.34,1.37,6.37,6.37,0,0,0,.21,2.9,6.73,6.73,0,0,1-1-2.91,9.37,9.37,0,0,1,0-1.59,8.14,8.14,0,0,1,.29-1.62Z"/><path d="M690.22,558.63a7.62,7.62,0,0,0-.47,1.32,8.36,8.36,0,0,0-.27,1.41,5.1,5.1,0,0,0,.47,2.86,5.41,5.41,0,0,1-1.22-2.83,10.62,10.62,0,0,1-.11-1.59,10.4,10.4,0,0,1,.15-1.63Z"/><path d="M694.82,558.24a9.19,9.19,0,0,0-.46,1.4,11.08,11.08,0,0,0-.26,1.51,6.89,6.89,0,0,0,.35,3.07,7.52,7.52,0,0,1-1.11-3.05,13.1,13.1,0,0,1-.11-1.66,11.36,11.36,0,0,1,.14-1.71Z"/><path d="M699,557.78a9.21,9.21,0,0,0-.47,1.51,10,10,0,0,0-.22,1.63,7.43,7.43,0,0,0,.54,3.3,7.87,7.87,0,0,1-1.3-3.25,10.75,10.75,0,0,1-.15-1.8,10,10,0,0,1,.16-1.85Z"/><path d="M703.19,557.15a13.84,13.84,0,0,0-.33,3.25,8.68,8.68,0,0,0,.66,3.27,8.91,8.91,0,0,1-1.41-3.17,14.38,14.38,0,0,1-.42-3.55Z"/><path d="M708,557.06a9.46,9.46,0,0,0-.29,1.48,11.71,11.71,0,0,0-.07,1.57,8.53,8.53,0,0,0,.64,3.12,8.72,8.72,0,0,1-1.39-3,11.7,11.7,0,0,1-.31-1.67,11.05,11.05,0,0,1-.08-1.75Z"/><path d="M712.62,555.54a10.66,10.66,0,0,0-.37,1.77,12.67,12.67,0,0,0-.08,1.85,8.1,8.1,0,0,0,.94,3.63,8.48,8.48,0,0,1-1.69-3.52,13.27,13.27,0,0,1-.3-2,10.84,10.84,0,0,1,0-2Z"/><path d="M717,555a9.76,9.76,0,0,0-.22,1.67,12.49,12.49,0,0,0,0,1.73,8.12,8.12,0,0,0,1,3.36,8.35,8.35,0,0,1-1.74-3.21,14.09,14.09,0,0,1-.41-1.82,13.08,13.08,0,0,1-.15-1.91Z"/><path d="M721.19,553.63a7.1,7.1,0,0,0-.34,1.54,8.16,8.16,0,0,0,0,1.64,7.17,7.17,0,0,0,1,3.19,7.44,7.44,0,0,1-1.76-3,9.79,9.79,0,0,1-.36-1.79,9.94,9.94,0,0,1,0-1.89Z"/><path d="M725.58,552.38a6.6,6.6,0,0,0-.34,1.36,7.9,7.9,0,0,0-.06,1.46,5.47,5.47,0,0,0,1,2.82,6,6,0,0,1-1.69-2.68,8,8,0,0,1-.33-1.62,8.14,8.14,0,0,1,0-1.71Z"/><path d="M729.27,551.16a5.81,5.81,0,0,0-.35,1.16,6.67,6.67,0,0,0-.15,1.26,4.13,4.13,0,0,0,.66,2.45,4.49,4.49,0,0,1-1.41-2.36,8.31,8.31,0,0,1-.24-1.41,8.08,8.08,0,0,1,0-1.47Z"/><path d="M732.91,550.43a4,4,0,0,0-.26.87,5,5,0,0,0-.1,1,3.9,3.9,0,0,0,.42,1.93,4.4,4.4,0,0,1-1.17-1.79,5.81,5.81,0,0,1-.28-1.09,6.15,6.15,0,0,1-.1-1.17Z"/><path d="M736.57,549.36a7.69,7.69,0,0,0-.37,2,4.09,4.09,0,0,0,.41,2.07,4.31,4.31,0,0,1-1.16-2,8.6,8.6,0,0,1-.27-1.14,7.8,7.8,0,0,1-.1-1.21Z"/><path d="M740.39,548.56a3.76,3.76,0,0,0-.29.84,4.26,4.26,0,0,0-.13.94,3.26,3.26,0,0,0,.5,1.89,3.72,3.72,0,0,1-1.25-1.76,6,6,0,0,1-.26-1.11,5.17,5.17,0,0,1,0-1.19Z"/><path d="M744.12,547.61a5.16,5.16,0,0,0-.39,1.68,2.26,2.26,0,0,0,.49,1.68,2.61,2.61,0,0,1-1.24-1.56,5.54,5.54,0,0,1-.26-1,7.12,7.12,0,0,1-.09-1.07Z"/><path d="M747.38,547.11c0-.15-.13,0-.13.16a1.1,1.1,0,0,0,.14.55,3.94,3.94,0,0,0,.91,1.12,4.48,4.48,0,0,1-1.47-.6,2.1,2.1,0,0,1-.65-.7,1.47,1.47,0,0,1-.12-1.27Z"/><path d="M751.61,545.74a1.61,1.61,0,0,0-.05.57,3,3,0,0,0,.1.65,3.46,3.46,0,0,0,.64,1.27,4.06,4.06,0,0,1-1.29-.88,3.69,3.69,0,0,1-.52-.66,2.85,2.85,0,0,1-.39-.84Z"/><path d="M990.8,532.15a3.25,3.25,0,0,1,.81.87,4.46,4.46,0,0,1,.48,1,4.64,4.64,0,0,1,.23,2,4.26,4.26,0,0,0-.89-1.59,2.7,2.7,0,0,0-.64-.54,2,2,0,0,0-.66-.3Z"/><path d="M987.37,534.21a3.2,3.2,0,0,1,.65,1,4.49,4.49,0,0,1,.32,1,5.72,5.72,0,0,1,0,1.93,5.58,5.58,0,0,0-.75-1.64,4.21,4.21,0,0,0-.55-.63,1.65,1.65,0,0,0-.59-.38Z"/><path d="M983.94,535.85a5.43,5.43,0,0,1,.78,1,5.18,5.18,0,0,1,.52,1.12,3.45,3.45,0,0,1,0,2.31,3.15,3.15,0,0,0-.66-2,4.4,4.4,0,0,0-.71-.72,4.34,4.34,0,0,0-.8-.52Z"/><path d="M980.3,537.35a7,7,0,0,1,.82,1.15,6.67,6.67,0,0,1,.54,1.23,4.83,4.83,0,0,1,.2,2.57,4.61,4.61,0,0,0-.87-2.23,5.92,5.92,0,0,0-.78-.88,5.64,5.64,0,0,0-.87-.67Z"/><path d="M976.73,538.56a4.57,4.57,0,0,1,1,1.23,4.93,4.93,0,0,1,.53,1.36,5.39,5.39,0,0,1-.08,2.74,5,5,0,0,0-.63-2.47,4.06,4.06,0,0,0-.73-1,3.72,3.72,0,0,0-.89-.64Z"/><path d="M972.78,539.63a4.91,4.91,0,0,1,.84,1.29,5.37,5.37,0,0,1,.2,4.07,5.1,5.1,0,0,0-.5-2.47,4.56,4.56,0,0,0-.66-1,3.84,3.84,0,0,0-.84-.72Z"/><path d="M969,540.58a7.13,7.13,0,0,1,.71,1.48,7.47,7.47,0,0,1,.39,1.53,6.26,6.26,0,0,1-.28,3,5.7,5.7,0,0,0-.45-2.82,6.87,6.87,0,0,0-.67-1.22,5.78,5.78,0,0,0-.86-1Z"/><path d="M965.28,541.27a7.41,7.41,0,0,1,.64,1.42,8,8,0,0,1,.35,1.46,4.8,4.8,0,0,1-.42,2.86,4.55,4.55,0,0,0-.31-2.67,7.27,7.27,0,0,0-.64-1.16,6.71,6.71,0,0,0-.81-1Z"/><path d="M960.86,542a10.82,10.82,0,0,1,.49,1.53,11.65,11.65,0,0,1,.26,1.53,7.06,7.06,0,0,1-.34,3,6.52,6.52,0,0,0-.4-2.85,11.53,11.53,0,0,0-.58-1.29,8.23,8.23,0,0,0-.74-1.16Z"/><path d="M956.19,542.38a8.35,8.35,0,0,1,.44,1.58,9.46,9.46,0,0,1,.14,1.58,6.73,6.73,0,0,1-.67,3,6.21,6.21,0,0,0-.08-2.91,7.52,7.52,0,0,0-.48-1.33,6.62,6.62,0,0,0-.67-1.18Z"/><path d="M952.18,542.85a10.85,10.85,0,0,1,.31,1.61,9.39,9.39,0,0,1,0,1.59,5.48,5.48,0,0,1-.93,2.94,5.2,5.2,0,0,0,.18-2.89,9.73,9.73,0,0,0-1-2.65Z"/><path d="M947.57,542.94a10.55,10.55,0,0,1,.3,1.69,10.24,10.24,0,0,1,0,1.66,7.29,7.29,0,0,1-.79,3.14,7,7,0,0,0,0-3.09,10.68,10.68,0,0,0-.41-1.47,9.3,9.3,0,0,0-.59-1.35Z"/><path d="M943.31,542.89a9.36,9.36,0,0,1,.34,1.82,10.84,10.84,0,0,1,0,1.8,7.84,7.84,0,0,1-1,3.36,7.39,7.39,0,0,0,.21-3.33,9.56,9.56,0,0,0-.38-1.6,9.29,9.29,0,0,0-.62-1.46Z"/><path d="M939.2,542.92a15.17,15.17,0,0,1-.06,3.57,9,9,0,0,1-1.09,3.3,8.57,8.57,0,0,0,.33-3.33,13.29,13.29,0,0,0-.66-3.19Z"/><path d="M934.24,541.88a17.51,17.51,0,0,1,0,4.09,12.59,12.59,0,0,1-1,3.85,12,12,0,0,0,.26-3.86,16.69,16.69,0,0,0-.74-3.72Z"/><path d="M929.55,541.33a15.49,15.49,0,0,1,.16,4.43,10,10,0,0,1-1.29,4.1,9.68,9.68,0,0,0,.53-4.12,13.92,13.92,0,0,0-.29-2,12.85,12.85,0,0,0-.56-1.94Z"/><path d="M925.12,540.39A20.93,20.93,0,0,1,925,545a12.27,12.27,0,0,1-1.33,4.33,11.86,11.86,0,0,0,.57-4.37,20.28,20.28,0,0,0-.63-4.29Z"/><path d="M921.09,540.15a10.28,10.28,0,0,1,0,4.18,8.24,8.24,0,0,1-1.67,3.63,7.9,7.9,0,0,0,.92-3.71,8.9,8.9,0,0,0-.19-1.86,7.87,7.87,0,0,0-.54-1.72Z"/><path d="M916.72,539.06a8.88,8.88,0,0,1,.08,4,6.78,6.78,0,0,1-1.81,3.35,6.29,6.29,0,0,0,1.06-3.44,8,8,0,0,0-.19-1.76,6.85,6.85,0,0,0-.55-1.6Z"/><path d="M912.5,538.22a11.68,11.68,0,0,1,.18,1.73,12.08,12.08,0,0,1-.06,1.7,6.33,6.33,0,0,1-1.12,3.12,5.79,5.79,0,0,0,.36-3.12,10,10,0,0,0-.31-1.54,10.14,10.14,0,0,0-.49-1.44Z"/><path d="M908.86,538.27a7.7,7.7,0,0,1,0,1.35,8.08,8.08,0,0,1-.14,1.3,6.05,6.05,0,0,1-1,2.36,5.57,5.57,0,0,0,.19-2.39,6.62,6.62,0,0,0-.23-1.16,6.39,6.39,0,0,0-.36-1.07Z"/><path d="M905.38,537.7a8.62,8.62,0,0,1,.06,1.42,9,9,0,0,1-.16,1.38,4.83,4.83,0,0,1-1.17,2.41,4.58,4.58,0,0,0,.42-2.46,9.9,9.9,0,0,0-.22-1.21,6.8,6.8,0,0,0-.39-1.13Z"/><path d="M901.4,536.93a6.62,6.62,0,0,1,.14,1.44,7.1,7.1,0,0,1-.14,1.38,4.47,4.47,0,0,1-1.26,2.33,4.07,4.07,0,0,0,.5-2.39,5.75,5.75,0,0,0-.22-1.17,5.35,5.35,0,0,0-.44-1Z"/><path d="M898.05,536.59a7.24,7.24,0,0,1-.11,1.35,7,7,0,0,1-.34,1.27,3.18,3.18,0,0,1-1.62,1.92,2.81,2.81,0,0,0,.88-2.08,6.23,6.23,0,0,0-.06-1.14,5.78,5.78,0,0,0-.25-1.07Z"/><path d="M894.48,536.43a4.44,4.44,0,0,1-.39,1,8.26,8.26,0,0,1-.51.87,12,12,0,0,1-1.2,1.52,11.1,11.1,0,0,0,.5-1.81,7,7,0,0,0,.12-.89,3.82,3.82,0,0,0,0-.79Z"/><path d="M890.71,536.27a20,20,0,0,1-2.41,3.11,18.56,18.56,0,0,0,1-3.66Z"/><path d="M882,534.48a90.94,90.94,0,0,1,12.77-13.11,95.38,95.38,0,0,1,15.14-10.49c10.82-5.9,23.33-9.34,36-8.67a66.06,66.06,0,0,1,9.4,1.12l4.64,1,4.54,1.4a68.53,68.53,0,0,1,16.72,8.7c1.28.9,2.47,1.92,3.7,2.87a45.09,45.09,0,0,1,3.58,3l3.4,3.19.83.78c.22.22.44.43.68.63a9.73,9.73,0,0,0,1.51,1.1,11.56,11.56,0,0,0,7.62,1.37,56.63,56.63,0,0,0,8.71-2.12l.27.55a37.79,37.79,0,0,1-8.3,4.25,14.21,14.21,0,0,1-12.52-1.45,11.58,11.58,0,0,1-1.09-.79l-.91-.68-3.57-2.68c-1.15-.92-2.39-1.73-3.61-2.56s-2.41-1.69-3.68-2.43a112.83,112.83,0,0,0-15.46-8.12A57.15,57.15,0,0,0,945.56,507c-11.61-1.2-23.54,1.37-34.25,6.53a96.42,96.42,0,0,0-28.82,21.29Z"/><path d="M883,534.67c9.61,1.27,19.16,2.43,28.86,3.28,1.22.16,2.43.38,3.64.65s2.33.48,3.52.67c2.36.38,4.75.68,7.14.92,4.79.48,9.6.73,14.4.78a157.59,157.59,0,0,0,28.57-2.51A95.61,95.61,0,0,0,983,534.88a55,55,0,0,0,6.59-2.76,52.47,52.47,0,0,0,6.28-3.53l.19.23a41,41,0,0,1-5.78,4.52,56.28,56.28,0,0,1-6.48,3.52,70.53,70.53,0,0,1-14,4.58c-9.62,2.1-19.5,2.29-29.22,1.92-4.87-.21-9.73-.61-14.56-1.26-2.42-.32-4.83-.7-7.22-1.17-1.2-.22-2.4-.5-3.59-.79s-2.32-.54-3.49-.75c-9.55-1.22-19.17-2.77-28.69-4.42Z"/><path d="M758.92,543.64A96.55,96.55,0,0,0,728,525.5c-11.2-4-23.33-5.31-34.75-2.9A57.23,57.23,0,0,0,677,528.69a112.25,112.25,0,0,0-14.52,9.7c-1.19.87-2.27,1.87-3.41,2.8s-2.27,1.89-3.32,2.93l-3.26,3-.84.78a12.12,12.12,0,0,1-1,.9,13.56,13.56,0,0,1-2.24,1.48,14.16,14.16,0,0,1-10.06,1.28,37.36,37.36,0,0,1-8.7-3.36l.21-.57a56.06,56.06,0,0,0,8.89,1.19,11.52,11.52,0,0,0,7.42-2.16,9.82,9.82,0,0,0,1.39-1.25c.22-.23.42-.46.61-.7l.75-.86,3-3.53a44.79,44.79,0,0,1,3.25-3.36c1.13-1.08,2.19-2.22,3.38-3.25a68.3,68.3,0,0,1,15.71-10.41l4.37-1.87,4.5-1.52a64.88,64.88,0,0,1,9.23-2.1c12.51-2,25.31.11,36.7,4.83a96.88,96.88,0,0,1,16.16,8.84,91.31,91.31,0,0,1,14.08,11.7Z"/><path d="M758.43,543.8c-9.3,2.64-18.7,5.2-28.07,7.41-1.14.33-2.28.69-3.39,1.11s-2.31.82-3.48,1.17c-2.34.72-4.7,1.35-7.06,1.92-4.74,1.15-9.53,2.06-14.35,2.78-9.63,1.4-19.47,2.25-29.27,1.17a71,71,0,0,1-14.41-3.08,55.6,55.6,0,0,1-6.82-2.82,41.06,41.06,0,0,1-6.22-3.89l.16-.25a52,52,0,0,0,6.62,2.85,54.87,54.87,0,0,0,6.84,2.06,96.2,96.2,0,0,0,14.12,2.1,157.06,157.06,0,0,0,28.67-.51c4.77-.56,9.53-1.3,14.23-2.29,2.36-.49,4.7-1,7-1.67,1.16-.3,2.3-.66,3.43-1s2.35-.74,3.55-1c9.56-1.86,18.93-4,28.36-6.29Z"/><path class="cls-5" d="M554.66,298a25.19,25.19,0,0,0-9.84,9.33,31.33,31.33,0,0,0-4.13,13,38.71,38.71,0,0,0,1,13.74,55.61,55.61,0,0,0,5.44,13c4.7,8.53,11,16.58,17.19,25.43a137.85,137.85,0,0,1,8.81,14.14A132.37,132.37,0,0,1,580.34,402c1.08,2.61,1.9,5.3,2.86,8s1.6,5.4,2.4,8.11c.64,2.73,1.31,5.47,1.89,8.21s1.09,5.5,1.49,8.25a252.64,252.64,0,0,1,2.82,32.94c.56,21.8-.8,43.05-1.26,63.63s-.22,40.55,3.36,59c.45,2.3.89,4.6,1.48,6.83l.81,3.36,1,3.29,1,3.28,1.13,3.19c.7,2.13,1.56,4.25,2.41,6.35,3.58,8.54,8.22,17.42,13,27.27s9.58,20.76,12.77,33.37a105.43,105.43,0,0,1,2.93,19.8,119.65,119.65,0,0,1-.62,19.34c-1.35,12.42-4.06,23.65-6.54,34s-4.85,19.85-6.07,28.59A144.7,144.7,0,0,0,616,805.62a207.46,207.46,0,0,0,3.38,27.63c1.74,9.3,4.09,18.67,6.75,28.11s5.66,19,8.84,28.61c6.24,19.1,12.72,36.71,20.73,52.08,2,3.84,4.22,7.52,6.44,11.36l3.57,5.73q1.95,2.88,3.83,5.8c2.65,3.92,5.4,7.81,8.28,11.83,1.39,2,2.88,4,4.37,6.06l4.52,6.15c6.06,8.32,12.44,16.85,18.73,26a325.15,325.15,0,0,1,18.1,29.31c2.81,5.2,5.4,10.69,7.85,16.25,1.16,2.85,2.35,5.67,3.43,8.54s2,5.79,2.86,8.67a225.79,225.79,0,0,1,7.4,33.82c3.22,21.94,4.24,42.51,7.19,62.18a178,178,0,0,0,6.48,28.8,130.41,130.41,0,0,0,5.46,13.85,136.51,136.51,0,0,0,7.39,13.41l-4.42,4.57a93.71,93.71,0,0,1-13.38-10.15,112.28,112.28,0,0,1-11.57-12.56,155.07,155.07,0,0,1-17.67-29.16c-9.66-20.36-15.93-41.2-23-59.88q-2.6-7-5.46-13.6c-1.87-4.39-3.8-8.6-5.89-12.58-1-2-2.12-3.91-3.2-5.82s-2.31-3.74-3.44-5.61c-2.41-3.72-4.9-7.41-7.7-11.06-10.9-14.74-24.54-29.06-38.67-45.17l-5.29-6.14c-1.77-2.07-3.54-4.14-5.32-6.32-3.56-4.24-7-8.8-10.51-13.38a221.3,221.3,0,0,1-19.21-30.55,229,229,0,0,1-13.68-33.14c-3.62-11-6.42-22-8.88-32.63s-4.57-21.37-6.44-32.4-3.34-22.29-4.3-33.78a275.93,275.93,0,0,1-.79-35.07,216.2,216.2,0,0,1,4.39-35.74c2.51-11.91,6-22.6,9-32.44s5.79-18.93,7.26-27.31a78.85,78.85,0,0,0,1.3-12,59.56,59.56,0,0,0-.79-11.38c-1.36-7.89-4.26-16.53-8-25.89s-8-19.43-11.63-30.58a171.77,171.77,0,0,1-7.26-34.65c-2.38-23.12-.62-45.32,1.77-66.53s5.69-41.71,7-61.86.81-40-4.4-58.65a112.82,112.82,0,0,0-4.76-13.71,121.58,121.58,0,0,0-6.51-13.3c-4.92-8.91-10.77-18.05-15.17-28.46a67.19,67.19,0,0,1-4.81-16.64,49.22,49.22,0,0,1,.64-17.54,40.21,40.21,0,0,1,7.21-16,32.49,32.49,0,0,1,14.06-10.48Z"/><path class="cls-5" d="M1153.64,1087.26l117.4,42.42s-153.79-254.92-157.45-270c0,0,40.29-64.11,29.3-86.09,0,0-8.7-18.31,16.49-31.13,0,0,48.07-51.29,76.92-99.82,0,0,48.08-72.11,17.4-125.8,0,0,14.65-22.56-9.16-50.49,0,0-13.28-53.12-54-94.33,0,0-15.57-37.54-68.68-101.65,0,0-33-60.9-64.1-86.08,0,0-43.41-48.08-63.38-56.78,0,0-83.54-64.57-250.25-36.63,0,0-141.06,53.57-210.66,132.33,0,0-69.15,95.76-103.77,169.34A92.46,92.46,0,0,0,421.43,425c-.72,9.58-8.47,28.2-43.22,61,0,0-41.21,35.23-34.34,74.85,0,0,10.11,38.18-21.13,72.31-9.61,10.5-18.23,21.93-24.62,34.65-6.31,12.56-23.59,32.3-68.72,59,0,0-46.71,36.17-52.2,82.42,0,0,17.86,28.46-24.73,65.29,0,0-37.09,36.36-24.72,68.41,0,0,15.11,43-7.33,77.84,0,0-18.77,47.62,0,76,0,0-50.37,25.65-50.37,44.88,0,0-48.08,65.94,36.63,66.85,0,0,16.94-1.37,27.48-14.65,0,0-34.35,15.11-46.71,2.75,0,0-56.32-22.9,34.8-71.9,0,0,54.95-16.48,69.6-26.55,0,0,10.07,103.94,84.25,103.48,0,0-46.25-19.23-51.28-41.21,0,0,23.81,25.19,38.46,28.39,0,0-44.87-34.8-42.13-46.7,0,0-28.84-51.29,32.06-55,0,0,10.53-35.72,17.4-44,0,0,64.56,46.71,74.17,63.19,0,0,44.41,61.08-29.82,67.93l37.13-6s-19.56,22.21-44.42,15.92c0,0,9.38,5.1,23.12,1.34l-29.74,5.27,7.15.75s-10.73,2.45-19.2-.38c0,0,9.41,5.46,28.24,1.51,0,0-4.52,5.08-20.71,5.65,0,0,4.14,5.27,21.08-.38,0,0-16,8.66-39.53,7.53l11.67,2.94s-19,.07-26-3.31c0,0,22,13.93,43.3.75,0,0-3.77,2.67-5.27,5.67,0,0,4.52,0,10.16-6.8,0,0,23.72-9.41,39.16-23,0,0,23.15-24.28,27.11-47.81,0,0,3.58-22.17-4.35-40.25a62.61,62.61,0,0,1-.85-48.44c10.7-26.72,30-60.43,60.18-64.57,0,0,15.34-5.23,30.67,0,0,0-18.64,2.17-39,15.77-36,24.07-39.73,74.77-9.26,105.48,8.82,8.89,14,20.16,7.8,33.49,0,0-2.52,38.26-36.94,35.55,0,0-9.16,1.18-19.52,2.79,0,0,13.25,4.18,18.82,5.57,0,0-17.85,12.47-25.79.7,0,0,3.14,11.85,36.25,5.58,0,0-8.72,11.15-50.89,23,0,0,66.92-4.88,72.5-39,0,0,18.12,66.91,55.76,85.73,0,0,43.56,15.68,59.94-18.12,0,0-30.67,20.58-57.85,8.36,0,0-15.29-3.06-35.63-51.5-7-16.74,9.21-34,26.31-27.87,27.29,9.75,60.35,27.44,71.36,57.77,0,0,11.15,40.77-39.74,57.15,0,0,48.45,9.41,61.34-41.12,0,0-4.53-65.87-53.67-87.13,0,0,44.61,15.68,55.76,53.67,0,0,19.17-7,23.7-31.37,0,0,9.06-29.62,29.28-45.3,0,0,5.57,22.65-2.09,43.21,0,0,8.36-9.06,12.54-15.33,0,0,6.63,16-16.73,40.42,0,0-24.39,54.36-71.09,83.64,0,0,28.58-10.8,55.06-39,0,0-46,57.85-62.73,68.31,0,0,38.34-20.91,62-56.46,0,0-40.07,77-56.45,79.46,0,0,29.85-7.2,55.5-54.35a121.81,121.81,0,0,1,35.68-40.27c11.08-8,24-19.74,34-35.72,0,0-12.31,43.22-40.88,63.43,0,0-4.19,4.18-16-4.18,0,0,1.39,13.59,25.78,10.45,0,0-19.51,8.71-33.45,10.46,0,0,25.79,7.67,44.61-6.28,0,0,41.12-45,50.18-71.09,0,0,16.73-23.7,15.34-55.07,0,0,1-27.18-5.58-51.58,0,0-13.24-34.85-24.4-53.67a140.53,140.53,0,0,1-12.54-48.09s9.07-53.63,5.44-91.73a40,40,0,0,0-9-21.75c-11.6-14-34.26-42-41.66-55,0,0-.08-.12-.21-.36A247.73,247.73,0,0,1,586.1,730.6c-1.93-19.43-5.22-42.78-10.69-59.57,0,0-6.3-19.72-12.34-59.84a142.64,142.64,0,0,1-1.29-30.06c.62-9.92,1.22-23.4.75-33.83a166.61,166.61,0,0,1,.89-27.26c3.14-26.53,9.35-75.94,13.38-87.77,0,0,34.85-76.32,73.19-103.85s81-62.47,267-52.5c0,0,50.39,8.25,93.73,61.5,0,0,34.63,38.69,41.5,56.09,0,0,31.14,78.3,35.71,109,0,0,9.86,34.14,16.61,68.17a156.51,156.51,0,0,0,5.33,19.81c2.16,6.37,5.56,20,10,49.33.8,5.32,14.39,20.75,15.56,26,0,.08,0,.16,0,.24,4.1,19-15.77,34.11-33,25.32a93.72,93.72,0,0,1-8.39-4.88s-12.42,60.9-21,94.45a107.47,107.47,0,0,1-8.39,21.72c-12.23,24.35-53.32,102.14-41.91,120.28,0,0-12.48,80.77,51.89,115"/><path class="cls-36" d="M1423.79,1245.86s-93.39-112.47-117.6-112.27l-.21,0c-2.18-1.16-71.17-37.72-115-43.79,0,0-32.18-6.84-79.42-43.81,0,0-53.11-19.9-83-67.38h0c0,.24.13,1.07.22,2.42-.57-.86-1.14-1.73-1.69-2.62,0,0,18.6,129.18-204.62,138.48,0,0-148.81,8.26-277-163.28,0,0-316.22-4.14-349.29,66.14,0,0-63,62-59.94,134.34l-63.53,219a57.82,57.82,0,0,0-2,22.07h801v.12H1437c1-14.33,1.72-26.21,1.88-33C1438.85,1362.24,1460.07,1272.56,1423.79,1245.86Z"/><path d="M1048.3,1004.63a126.88,126.88,0,0,1-9.24,25,152.14,152.14,0,0,1-13.94,22.78c-10.55,14.39-23.19,27.13-36.58,38.86l-.07.06-.11.06a46,46,0,0,0-5.57,3.36,39.87,39.87,0,0,0-5,4.1l-.07.07-.09,0A273.32,273.32,0,0,1,924,1125.11a289,289,0,0,1-58,14.13c-9.87,1.47-19.82,2.08-29.72,2.74s-19.86.91-29.81.91c-19.88,0-39.83-1.54-59.28-5.59l.06-.3a347,347,0,0,0,59.2,3.42c9.89-.19,19.77-.72,29.63-1.46,4.94-.34,9.88-.71,14.8-1.14l3.69-.31,3.67-.44c2.45-.29,4.9-.56,7.34-.91a295.46,295.46,0,0,0,57.6-13.34,271.16,271.16,0,0,0,53.42-25.38l-.16.12a42.63,42.63,0,0,1,5.3-4.24,47.2,47.2,0,0,1,5.83-3.44l-.18.12c13.43-11.56,26.18-24,36.86-38.19a151.61,151.61,0,0,0,14.16-22.47,125.65,125.65,0,0,0,9.55-24.79Z"/><path d="M1041.58,1023.28a187.08,187.08,0,0,0,16,13.6q8.36,6.4,17.25,12c5.91,3.75,12,7.26,18.24,10.41a207.79,207.79,0,0,0,19.15,8.61l.06,0,0,0c5.15,3.6,10.47,7,15.85,10.28s10.83,6.42,16.38,9.41a306.77,306.77,0,0,0,34.18,16q8.79,3.43,17.84,6.08c1.49.49,3,.85,4.54,1.23l4.58,1.14c3.09.75,6.13,1.61,9.17,2.49q18.21,5.36,35.82,12.49a313.22,313.22,0,0,1,34.29,16.27c2.81,1.48,5.48,3.2,8.22,4.78,1.39.77,2.68,1.72,4,2.61l4,2.71q7.61,5.67,15.07,11.51c9.93,7.81,19.7,15.85,29.12,24.31a262.61,262.61,0,0,1,26.74,27l-.13-.15c7.4,6.92,14.6,14,21.59,21.35q5.25,5.49,10.21,11.27a103.39,103.39,0,0,1,9.25,12.27l-.2-.26a21.6,21.6,0,0,1,2.87,4.5,45.85,45.85,0,0,1,2,4.68,66.51,66.51,0,0,1,2.57,9.71c.32,1.64.63,3.28.8,4.93s.48,3.3.55,5l.35,5,.08,5,0,2.48-.09,2.48-.17,5c-.23,3.29-.51,6.58-.81,9.87l-1.27,9.79-1.69,9.73a187.48,187.48,0,0,0-2.65,19.39q-1,9.8-2.15,19.56-2.37,19.53-5.36,39l-.3,0q2.43-19.51,4.25-39.09,1-9.78,1.77-19.57a190.92,190.92,0,0,1,2.31-19.61c2.2-12.87,3.74-25.89,3.47-38.88l-.13-4.87-.4-4.84c-.08-1.62-.38-3.21-.58-4.81s-.5-3.19-.83-4.76a64.19,64.19,0,0,0-2.56-9.25c-.59-1.47-1.18-2.94-1.9-4.33-.33-.73-.76-1.36-1.12-2a21,21,0,0,0-1.25-1.74l-.13-.15-.07-.11a99.11,99.11,0,0,0-9-11.88c-3.25-3.81-6.63-7.52-10.1-11.16-6.92-7.28-14.11-14.35-21.44-21.21l-.07-.07-.07-.08c-4-4.79-8.26-9.4-12.66-13.87s-9-8.82-13.63-13c-9.29-8.48-19-16.56-28.81-24.41q-7.38-5.9-14.93-11.57l-3.84-2.67c-1.29-.88-2.53-1.81-3.9-2.58-2.71-1.59-5.34-3.31-8.11-4.79a312.71,312.71,0,0,0-34-16.36q-17.46-7.2-35.56-12.64c-3-.89-6.05-1.77-9.08-2.52l-4.61-1.18c-1.53-.39-3.07-.76-4.57-1.26q-9.12-2.73-17.94-6.24A302.2,302.2,0,0,1,1144,1088.8q-8.31-4.56-16.36-9.57c-5.37-3.33-10.66-6.77-15.82-10.44l.1.06c-6.49-2.69-13-5.49-19.16-8.81s-12.31-6.78-18.22-10.6-11.64-7.86-17.19-12.18a191.41,191.41,0,0,1-16-13.76Z"/><path d="M89.63,1405.53c5.89-25.48,12.77-50.72,19.94-75.87s15.22-50,23.21-74.93,16.08-49.76,24.18-74.6c7.81-24.88,12.75-50.71,21.82-75.28l.29.1c-8.68,24.68-13.21,50.51-20.66,75.63q-11.74,37.44-23.32,74.87c-7.67,25-15,50.07-22.62,75.06s-15,50.07-22.54,75.1Z"/><path class="cls-1" d="M39.67,33.73v1350.6H1466.46V33.73ZM1151.61,898.89c-24.19,2.55-47.73,11.88-68.31,24.63-20.78,12.88-39.52,30.29-50.26,52.54-2.8,5.8-11.42.72-8.63-5,11.45-23.72,31.71-42.39,53.85-56.12s47.35-23.26,73.35-26C1158,888.21,1157.94,898.22,1151.61,898.89Z"/><path class="cls-1" d="M19.84-164.23V1384.33H1466.46V-164.23ZM1151.61,898.89c-24.19,2.55-47.73,11.88-68.31,24.63-20.78,12.88-39.52,30.29-50.26,52.54-2.8,5.8-11.42.72-8.63-5,11.45-23.72,31.71-42.39,53.85-56.12s47.35-23.26,73.35-26C1158,888.21,1157.94,898.22,1151.61,898.89Z"/><path class="cls-1" d="M19.84-164.23V1384.33H1466.46V-164.23ZM1151.61,898.89c-24.19,2.55-47.73,11.88-68.31,24.63-20.78,12.88-39.52,30.29-50.26,52.54-2.8,5.8-11.42.72-8.63-5,11.45-23.72,31.71-42.39,53.85-56.12s47.35-23.26,73.35-26C1158,888.21,1157.94,898.22,1151.61,898.89Z"/><path class="cls-5" d="M329.83,1169.69,315.6,1172A100.49,100.49,0,0,0,329.83,1169.69Z"/><path class="cls-5" d="M1025.85,968.19c11.66-22.38,31.16-40.13,52.41-53.3a181.89,181.89,0,0,1,54.31-22.78c-10.63-18.77-17.59-31.79-18.34-34.87,0,0,40.29-64.1,29.3-86.08,0,0-8.7-18.32,16.49-31.14,0,0,48.08-51.28,76.92-99.82,0,0,48.08-72.1,17.4-125.79,0,0,14.66-22.56-9.15-50.5,0,0-13.28-53.11-54-94.32,0,0-15.57-37.55-68.69-101.65,0,0-33-60.9-64.1-86.09,0,0-43.41-48.07-63.38-56.77,0,0-83.54-64.57-250.25-36.64,0,0-141.06,53.58-210.66,132.33,0,0-69.14,95.77-103.76,169.35a92.41,92.41,0,0,0-8.25,32.48c-.72,9.57-8.46,28.2-43.21,61,0,0-41.21,35.24-34.35,74.86,0,0,10.11,38.18-21.13,72.31-9.6,10.5-18.22,21.93-24.62,34.65-6.31,12.56-23.58,32.3-68.72,59,0,0-46.7,36.18-52.2,82.43,0,0,17.86,28.46-24.72,65.28,0,0-37.09,36.37-24.73,68.42,0,0,15.11,43-7.33,77.84,0,0-18.77,47.62,0,76,0,0-50.37,25.65-50.37,44.88,0,0-48.07,65.93,36.64,66.85,0,0,16.94-1.37,27.47-14.66,0,0-34.34,15.12-46.71,2.75,0,0-56.32-22.89,34.81-71.89,0,0,54.94-16.48,69.59-26.56,0,0,10.08,104,84.26,103.49,0,0-46.25-19.23-51.29-41.21,0,0,23.81,25.18,38.47,28.39,0,0-44.88-34.8-42.13-46.71,0,0-28.85-51.28,32-54.94,0,0,10.53-35.72,17.4-44,0,0,64.56,46.7,74.18,63.19,0,0,38.23,52.6-15.6,65.64l22.9-3.68s-19.56,22.21-44.42,15.91c0,0,6.25,3.4,16,2.6l-22.63,4,7.15.76s-10.73,2.45-19.2-.38c0,0,9.41,5.46,28.24,1.51,0,0-4.52,5.08-20.71,5.64,0,0,4.14,5.28,21.09-.37,0,0-16,8.66-39.54,7.53l11.67,2.94s-19,.07-26-3.32c0,0,22,13.93,43.29.76,0,0-3.76,2.67-5.27,5.66,0,0,4.52,0,10.17-6.79,0,0,23.72-9.42,39.15-23,0,0,23.16-24.28,27.11-47.82,0,0,3.59-22.17-4.35-40.25a62.59,62.59,0,0,1-.84-48.43c10.69-26.73,30-60.43,60.17-64.57,0,0,15.34-5.23,30.67,0,0,0-18.63,2.17-39,15.77-36,24.06-39.72,74.76-9.25,105.48,8.81,8.88,13.94,20.16,7.8,33.49,0,0-2.52,38.25-36.94,35.55,0,0-9.17,1.17-19.52,2.78,0,0,13.24,4.19,18.82,5.58,0,0-17.86,12.46-25.79.7,0,0,3.13,11.85,36.24,5.58,0,0-8.71,11.15-50.88,23,0,0,66.91-4.88,72.49-39,0,0,18.12,66.92,55.76,85.74,0,0,43.57,15.68,60-18.13,0,0-30.67,20.59-57.86,8.37,0,0-15.29-3.06-35.63-51.5-7-16.75,9.22-34,26.32-27.87,27.28,9.75,60.34,27.44,71.35,57.76,0,0,11.15,40.78-39.73,57.16,0,0,48.44,9.41,61.34-41.13,0,0-4.53-65.87-53.67-87.13,0,0,44.61,15.68,55.76,53.67,0,0,19.17-7,23.7-31.36,0,0,9.06-29.63,29.27-45.31,0,0,5.58,22.65-2.09,43.22,0,0,8.37-9.06,12.55-15.34,0,0,6.62,16-16.73,40.43,0,0-24.4,54.36-71.1,83.64,0,0,28.58-10.8,55.07-39,0,0-46,57.85-62.74,68.31,0,0,38.34-20.91,62-56.46,0,0-36.79,70.7-54.28,78.76,7.32-2.65,31.8-14.09,53.33-53.65a121.49,121.49,0,0,1,35.68-40.27c11.07-8,24-19.75,34-35.72,0,0-12.3,43.21-40.88,63.43,0,0-4.18,4.18-16-4.19,0,0,1.39,13.6,25.79,10.46,0,0-19.52,8.71-33.46,10.46,0,0,25.79,7.66,44.61-6.28,0,0,41.13-45,50.19-71.1,0,0,16.73-23.69,15.33-55.06,0,0,1.05-27.19-5.57-51.58,0,0-13.25-34.85-24.4-53.67a140.68,140.68,0,0,1-12.55-48.1s9.08-53.62,5.44-91.72a40.06,40.06,0,0,0-9-21.75c-11.61-14-34.27-42-41.67-55l-.21-.37a247.61,247.61,0,0,1-31.7-98.83c-1.93-19.42-5.23-42.77-10.7-59.56,0,0-6.29-19.72-12.33-59.85a141.92,141.92,0,0,1-1.3-30.06c.63-9.91,1.22-23.39.75-33.82a167.73,167.73,0,0,1,.9-27.26c3.14-26.54,9.34-75.94,13.37-87.77,0,0,34.85-76.33,73.19-103.86s81-62.46,267-52.49c0,0,50.4,8.25,93.74,61.49,0,0,34.62,38.7,41.49,56.1,0,0,31.14,78.3,35.72,109,0,0,9.85,34.13,16.6,68.16a157.29,157.29,0,0,0,5.33,19.81c2.16,6.38,5.56,20.06,10,49.34.81,5.32,14.4,20.75,15.56,26q0,.11.06.24c4.1,19-15.77,34.1-33.05,25.32a92.67,92.67,0,0,1-8.4-4.89s-12.41,60.91-21,94.46a108.1,108.1,0,0,1-8.4,21.72c-12.23,24.35-53.32,102.14-41.91,120.28A142,142,0,0,0,1025.85,968.19Z"/><polygon class="cls-37" points="1121.63 1232.79 1097.12 1212.85 1072.51 1192.83 1047.89 1212.85 1023.38 1232.79 1023.28 1232.79 1023.28 1269.35 1047.89 1289.37 1072.51 1309.39 1097.12 1289.37 1121.73 1269.35 1121.73 1232.79 1121.63 1232.79"/><circle class="cls-38" cx="1101.24" cy="1292.25" r="17.94"/></g></svg>