<svg id="Layer_1" data-name="Layer 1" xmlns="http://www.w3.org/2000/svg" viewBox="0 0 260 260"><defs><style>.cls-1{fill:#f4f2f2;}</style></defs><title>pen</title><path class="cls-1" d="M59.73,138.64a12.76,12.76,0,0,0-8.07,8.07L28.17,217.23,30,219.08l37.05-37a12.54,12.54,0,0,1-.61-3.09A12.76,12.76,0,1,1,79.23,191.7h0a12.17,12.17,0,0,1-3.11-.62l-37,37.06L40.92,230l70.54-23.51a12.76,12.76,0,0,0,8.07-8.07l13.19-33.53L93.27,125.45Z"/><path class="cls-1" d="M174.9,41.29l-73,79.57,39,39,79.55-73C254.33,56.92,204.6,7.69,174.9,41.29Z"/></svg>