<svg id="Layer_1" data-name="Layer 1" xmlns="http://www.w3.org/2000/svg" viewBox="0 0 260 260"><title>phone</title><path id="FontAwsome_phone_" data-name="FontAwsome phone " d="M222.72,44.25,182.1,34.89a9.44,9.44,0,0,0-10.74,5.44L152.61,84.08A9.35,9.35,0,0,0,155.31,95L179,114.38a144.81,144.81,0,0,1-69.22,69.22L90.38,159.93a9.35,9.35,0,0,0-10.93-2.7L35.7,176a9.49,9.49,0,0,0-5.46,10.78l9.34,40.63a9.39,9.39,0,0,0,9.15,7.27C148.81,234.68,230,153.56,230,53.48v-.07A9.35,9.35,0,0,0,222.72,44.25Z"/><path d="M115.84,63.72l29.43,12c1.63.66,3.48.39,4.13-.61l1.19-1.8c.65-1-.14-2.34-1.76-3l-29.43-12c-1.63-.67-3.48-.39-4.13.6l-1.19,1.81C113.43,61.71,114.22,63.06,115.84,63.72Z"/><path d="M128,27.45l-1.09,1.84c-.6,1,.29,2.28,2,2.81l30.83,9.74c1.7.54,3.57.15,4.17-.86L165,39.14c.6-1-.29-2.28-2-2.82L132.2,26.58C130.5,26.05,128.63,26.43,128,27.45Z"/><path d="M136.37,53.59l17.23,5.86a2.62,2.62,0,0,0,2.84-1.24l1.11-1.84a1.53,1.53,0,0,0-.61-2.41L139.71,48.1a2.61,2.61,0,0,0-2.84,1.25l-1.11,1.83A1.52,1.52,0,0,0,136.37,53.59Z"/></svg>