<svg id="hair" xmlns="http://www.w3.org/2000/svg" xmlns:xlink="http://www.w3.org/1999/xlink" width="955.53" height="892.1" viewBox="0 0 955.53 892.1">
  <defs>
    <clipPath id="clip-path">
      <rect x="13.1" width="942.43" height="892.1" style="fill: none"/>
    </clipPath>
    <linearGradient id="linear-gradient" x1="433.94" y1="333.3" x2="464.13" y2="333.3" gradientUnits="userSpaceOnUse">
      <stop offset="0.05" stop-color="#0d5e42"/>
      <stop offset="0.15" stop-color="#05653b"/>
      <stop offset="0.31" stop-color="#006237"/>
      <stop offset="0.43" stop-color="#004d45"/>
      <stop offset="0.67" stop-color="#115b45"/>
      <stop offset="0.82" stop-color="#006837"/>
      <stop offset="1" stop-color="#004f37"/>
    </linearGradient>
    <linearGradient id="linear-gradient-2" x1="433.44" y1="333.3" x2="464.63" y2="333.3" gradientUnits="userSpaceOnUse">
      <stop offset="0"/>
      <stop offset="0.13" stop-color="#026b38"/>
      <stop offset="0.26"/>
      <stop offset="0.41" stop-color="#046d38"/>
      <stop offset="0.57" stop-color="#1e9141"/>
      <stop offset="0.7"/>
      <stop offset="0.82" stop-color="#2fa846"/>
      <stop offset="0.93" stop-color="#4d4d4d"/>
    </linearGradient>
    <linearGradient id="linear-gradient-3" x1="546.02" y1="317.38" x2="576.2" y2="317.38" gradientTransform="matrix(-0.99, 0.11, 0.11, 0.99, 1132.98, -51.21)" xlink:href="#linear-gradient"/>
    <linearGradient id="linear-gradient-4" x1="545.52" y1="317.38" x2="576.7" y2="317.38" gradientTransform="matrix(-0.99, 0.11, 0.11, 0.99, 1132.98, -51.21)" xlink:href="#linear-gradient-2"/>
  </defs>
  <path d="M374.88,471c4.46,23.37,15.37,61.32,43.6,87.36,8.2,7.55,19.1,15,20.7,16.35,5.68,4.79,18.95,19.84,54.56,28,11.08,2.53,24.93,2.89,43.14,4.7,12.94,1.29,28.41,1.14,46.93-6.88a39.83,39.83,0,0,0,7-4.16c9.74-6.86,31.61-20.58,36.52-21.8,3.83-.95,6.73-4,10.21-5.9C659.79,556.8,703.74,516,710,429.57c0,0,19.4,48.5,44.09-34.4L701.15,142.09s-142.41-60-209-41.44-161.37,89.94-161.37,89.94S299,458.67,326.38,493.94c2.47,3.18,8.95,11.26,17.72,11.35C360.89,505.46,372.85,476.13,374.88,471Z" style="fill: #d7b299"/>
  <g style="clip-path: url(#clip-path)">
    <g>
      <path d="M411.22,553.59l1.69,16,7.12-8.4C414.52,556.62,411.22,553.59,411.22,553.59Z" style="fill: #d7b299"/>
      <path d="M553.42,596.13s30.52-1.79,53.52-19.52c0-.27.14-.55.2-.83-95.63,47.69-175.81-28-175.81-28L420,561.16c11,9.06,30.73,24.17,50.74,33.5C470.77,594.66,513.42,603.6,553.42,596.13Z" style="fill: #d7b299"/>
      <path d="M499.1,791.29s-12-17.11-18.82-20.54c0,0-18.74-21.15-19-29.86,0,0-26.09-32.67-32-40.45,0,0,.42-20.29-3.37-33.64,0,0-6.28-24.54-6-31.08l-7-66.16L296.77,706.72l73.05,65.36c59.59,39.73,132,51.26,132,51.26a258.27,258.27,0,0,0,30.8-1.64,41.4,41.4,0,0,1-5.66-3.65Z" style="fill: #d7b299"/>
      <path d="M690.2,706.72c-32.68-16.66-24.35-75.61-24.35-75.61-2.56-21.15,15.38-117.9,15.38-117.9-25,30.78-50,50.57-74.09,62.57-.06.28-.15.56-.2.83-23,17.73-53.52,19.52-53.52,19.52-40,7.47-82.65-1.47-82.65-1.47-20-9.33-39.77-24.44-50.74-33.5l-7.12,8.4,7,66.16c-.31,6.54,6,31.08,6,31.08,3.79,13.35,3.37,33.64,3.37,33.64,5.91,7.78,32,40.45,32,40.45.27,8.71,19,29.86,19,29.86,6.82,3.43,18.82,20.54,18.82,20.54L527,818.05a41.4,41.4,0,0,0,5.66,3.65c54.6-6,102.48-26.55,102.48-26.55C703.66,744.52,690.2,706.72,690.2,706.72Z" style="fill: #d7b299"/>
    </g>
    <path d="M936.33,877.43s14-59.24-10-76.87c0,0-62-74.62-77.78-74.16,0,0-46.58-24.87-76-28.94,0,0-21.26-4.53-52.46-29,0,0-35.12-13.16-54.87-44.56,0,0,12.29,85.32-135.15,91.47,0,0-98.29,5.46-182.93-107.85,0,0-208.88-2.73-230.72,43.68,0,0-41.64,41-39.59,88.74L35,884.65a38.25,38.25,0,0,0-1.32,14.58H935.09C935.75,889.77,936.22,881.92,936.33,877.43Z" style="fill: #2f4858"/>
    <path d="M801.73,322.1a141.22,141.22,0,0,1,8.33,28c1.92,9.5,3.18,19,4.3,28.35,2.19,18.66,3.74,36.74,7.62,52.79a123.52,123.52,0,0,0,7.48,22.36,98,98,0,0,0,5.21,10c2,3.24,4.42,6.77,7.13,10.69,1.33,2,2.73,4.05,4.15,6.25s2.79,4.58,4.11,6.94c.64,1.19,1.37,2.33,1.92,3.56l1.74,3.64c1.22,2.4,2.16,4.91,3.17,7.37a141.39,141.39,0,0,1,8,30.43,137.08,137.08,0,0,1-4.61,61,160.52,160.52,0,0,1-11.85,27.49c-4.56,8.53-9.39,16.59-13.88,24.6a178.55,178.55,0,0,0-11.85,24.16A85.18,85.18,0,0,0,816.9,695a94,94,0,0,0,2.39,26.6,157.43,157.43,0,0,0,8.54,26.2l-3,1.54a153.25,153.25,0,0,1-12.43-25.71,102.82,102.82,0,0,1-6.13-28.61c-.68-10,.79-20.08,3.27-29.65a194.58,194.58,0,0,1,9.82-27.47c7.54-17.47,15.76-33.91,19.14-50.42a115.18,115.18,0,0,0,2.6-25.21,112.55,112.55,0,0,0-2.88-24.91,90.32,90.32,0,0,0-8.7-22.92,58.13,58.13,0,0,0-3.07-5.17l-1.63-2.5c-.51-.86-1.18-1.6-1.76-2.4-1.2-1.58-2.3-3.15-3.66-4.72s-2.75-3.23-4.26-5c-3-3.48-6.3-7.32-9.51-11.86a93,93,0,0,1-8.34-14.54,106.84,106.84,0,0,1-8.75-31.13,171.82,171.82,0,0,1-1-30.33c.23-4.9.61-9.75,1.13-14.51.24-2.4.5-4.76.78-7.13l.92-7c1.3-9.35,2.78-18.52,4.2-27.7.73-4.6,1.37-9.18,2-13.82s1.18-9.29,1.8-14.06Z" style="fill: #603813"/>
    <path d="M618.43,125.65,404.54,136.89l-87.49,91.5,14,245.83,74.5,188.08,56.53,43,23.16,7.77s9.54-35-49.77-102.49a63.52,63.52,0,0,0,2.3-16h0c19.05,15.59,47.11,21.52,47.11,21.52,48.07,11.53,86.66,3.91,86.66,3.91,26.27-8.36,68.62-36.51,80.32-44.48-4.36,20.41-5,46.84,11.35,68.63L698,622l70.5-304Zm96.05,290.77c-4.84,2.06-8.91,5.62-10.68,10.57A55,55,0,0,0,700.67,441s-5.3,55.19-37.48,101.84a109.23,109.23,0,0,0-4.58,10.31c-11.51,10.61-29.83,20-29.83,20-13.28,2.62-35.12,21.31-35.12,21.31-11.31,8.28-25.26,10.91-25.26,10.91-30,3.92-63.92-1.33-63.92-1.33a127.4,127.4,0,0,1-37-9.77c-5.54-.8-26.72-18.29-31.69-22.45a113.8,113.8,0,0,0-6.95-22.17s-12.5-20.56-28-29.31c0,0-10.7-7.47,11.18-72.65,0,0-5.47-61.39-23.46-74.1,0,0-1.45-110.28-8.33-126.37,0,0,26.6-53.16,72.88-65.83,0,0,56.43-19.17,130.59-9.89,0,0,33.08-6.56,82.82,60.52,0,0,25.21,56.44,31.6,81.68,0,0,14.53,58.43,16.8,74.58C714.93,388.32,722.76,412.9,714.48,416.42Z" style="opacity: 0.07"/>
    <path d="M692.61,375.16c-13.2-1.59-32.18,1.27-48.26,23.59-7.51,10.42-8.83,23.42-2.87,27.81,9.82,7.25,28.1,12.08,51.71-20.53C702.8,392.76,702.49,376.35,692.61,375.16Z" style="fill: #fff;opacity: 0.16"/>
    <path d="M750.58,219.23c1.7,24.24,2.11,48.2,3.68,71.71.81,11.75,1.81,23.37,3.37,34.73l.58,4.26c.2,1.41.46,2.81.69,4.21.47,2.8.89,5.61,1.52,8.33s1,5.52,1.77,8.17,1.26,5.39,2.13,7.94,1.46,5.24,2.46,7.69c.46,1.24.89,2.49,1.34,3.74l.32.93.39.9.78,1.78,1.53,3.58,1.75,3.48.87,1.75c.29.58.63,1.14,1,1.72l1.93,3.43c5.39,9.11,12.25,18.08,19.42,28.62,1.77,2.58,3.48,5.4,5.19,8.16.85,1.39,1.64,2.88,2.46,4.31s1.63,2.88,2.34,4.42l2.2,4.54c.71,1.53,1.3,3.12,2,4.68,1.36,3.09,2.33,6.33,3.39,9.52.57,1.59.95,3.22,1.36,4.84l1.22,4.85c.7,3.24,1.17,6.5,1.79,9.73a145.94,145.94,0,0,1,1.64,19.42,198,198,0,0,1-13,74.44,224.24,224.24,0,0,1-16.59,33.52c-6.29,10.5-12.66,20.3-17.76,30.58a121.65,121.65,0,0,0-11.23,32.15A135.93,135.93,0,0,0,759,695.79c.42,5.8,1.08,11.61,2.08,17.4s2.24,11.56,3.75,17.28c2.93,11.47,6.75,22.78,10.85,34L773,765.61c-5.11-10.87-10-21.9-14-33.35-2-5.72-3.76-11.56-5.33-17.47s-2.72-11.95-3.65-18l-.58-4.59-.28-2.31-.18-2.31-.34-4.64-.13-4.66c-.07-1.55,0-3.11,0-4.67s0-3.11.12-4.67c.21-3.12.39-6.25.81-9.36A126.42,126.42,0,0,1,753,641a150.29,150.29,0,0,1,6.14-17.81c4.8-11.56,10.84-22.3,16.17-32.73a204.52,204.52,0,0,0,13.18-31.79q2.63-8.11,4.43-16.43t2.78-16.72a173.56,173.56,0,0,0,.76-33.69,124.59,124.59,0,0,0-2.38-16.26l-1-3.92c-.37-1.3-.63-2.63-1.06-3.89L790.71,464a35.91,35.91,0,0,0-1.38-3.72c-4-9.79-9.47-18.45-16.56-27.3-1.69-2.21-3.56-4.52-5.38-6.8l-2.83-3.54-1.43-1.77L761.7,419a167.89,167.89,0,0,1-11-16l-2.48-4.39c-.4-.74-.84-1.46-1.21-2.22l-1.1-2.29-2.17-4.6c-.66-1.57-1.26-3.15-1.87-4.74a97.38,97.38,0,0,1-3.21-9.55c-1-3.19-1.66-6.4-2.43-9.59s-1.19-6.4-1.75-9.59-.88-6.36-1.24-9.54-.55-6.33-.75-9.48c-.09-1.58-.22-3.16-.27-4.73l-.1-4.7L732,322.9l.06-4.67c0-3.1.11-6.21.31-9.29s.28-6.18.56-9.24l.83-9.18c1.28-12.2,3.16-24.24,5.48-36.17s5.06-23.73,8.45-35.42Z" style="fill: #603813"/>
    <path d="M750.57,421.33c.81,8.19,1.17,16.24,1.7,24.15s1,15.67,1.94,23.19a152.31,152.31,0,0,0,3.91,21.55c.24.83.5,1.66.72,2.5a21.11,21.11,0,0,0,.74,2.45l.83,2.39.41,1.19c.15.39.33.75.49,1.13a55.09,55.09,0,0,0,4.19,8.54,50,50,0,0,0,5.2,7.38,91.94,91.94,0,0,0,6.69,7c4.94,4.73,11,9.62,17.2,15.62a116.54,116.54,0,0,1,9.26,10,74.41,74.41,0,0,1,8.09,12.15,65.19,65.19,0,0,1,5.37,13.81,70,70,0,0,1,2.24,14.31,83.46,83.46,0,0,1-3.34,27.26,86.67,86.67,0,0,1-4.76,12.66A99.71,99.71,0,0,1,805,640.21,130.67,130.67,0,0,1,788.75,660c-5.77,5.84-11.41,11.12-16.23,16.75A58.8,58.8,0,0,0,761.34,695,50.66,50.66,0,0,0,759,705.32a59.2,59.2,0,0,0,0,10.9,70.15,70.15,0,0,0,2.11,11,98.75,98.75,0,0,0,3.82,10.86c1.51,3.58,3.17,7.13,5,10.62s3.74,7,5.71,10.41l-2.41,1.62a179.44,179.44,0,0,1-13.78-19.91,105.06,105.06,0,0,1-5.52-11.09,80.68,80.68,0,0,1-3.88-12,63.49,63.49,0,0,1-1.47-12.89A60.87,60.87,0,0,1,750,691.68a71.3,71.3,0,0,1,11-23.74c4.87-7,10.31-13.19,15.15-19.2a112.92,112.92,0,0,0,12.28-18.37,71.68,71.68,0,0,0,7.18-19.62,60.86,60.86,0,0,0,.82-20.07,39.94,39.94,0,0,0-2.31-9.07,37.12,37.12,0,0,0-4.28-8c-3.49-4.9-8.25-9.13-14.08-13.53s-12.5-9.13-19.12-15.34a82.59,82.59,0,0,1-9.5-10.5,73.54,73.54,0,0,1-4.12-6.17c-1.31-2.14-2.31-4.38-3.39-6.59a80.61,80.61,0,0,1-4.64-13.6,92.85,92.85,0,0,1-2.16-13.57,106.77,106.77,0,0,1-.26-13.23,119.58,119.58,0,0,1,1.15-12.8,166.55,166.55,0,0,1,5.38-24.39,180.8,180.8,0,0,1,8.61-23.08Z" style="fill: #603813"/>
    <path d="M686.84,513.38a99.5,99.5,0,0,1-4.39,9.85c-1.65,3.19-3.44,6.32-5.38,9.36-.47.77-1,1.53-1.46,2.28s-1,1.52-1.49,2.26a49.09,49.09,0,0,1-3.32,4.29,52.29,52.29,0,0,1-7.85,7.46l-.14-.14c2.08-3,4.33-5.71,6.44-8.58s4.43-5.55,6.49-8.46,4-5.89,5.84-9a98.27,98.27,0,0,0,5.08-9.43Z"/>
    <path d="M395.58,531c1.87,2.35,3.79,4.67,5.72,7s3.86,4.6,5.84,6.86l6,6.7c2,2.27,4,4.49,6,6.75l-.07.07a64.3,64.3,0,0,1-6.63-6.15c-2.09-2.17-4-4.53-5.87-6.86q-5.73-7-11-14.27Z"/>
    <path d="M434.81,570.89c7.16,5.17,14,10.72,21.15,15.92,1.78,1.29,3.58,2.57,5.42,3.78a33.47,33.47,0,0,0,5.7,3.14c1,.37,2.11.64,3.15,1s2,.89,3.06,1.28c2,.83,4.1,1.57,6.19,2.25a123,123,0,0,0,25.78,5.19c2.18.22,4.38.36,6.57.49l1.72.2c.58.06,1.09.19,1.64.27,1.08.19,2.16.36,3.25.51,4.34.62,8.72,1,13.1,1.31a192.94,192.94,0,0,0,26.34-.19c2.19-.21,4.39-.28,6.46-.69a27.48,27.48,0,0,0,3.1-.76c1-.32,2.07-.7,3.1-1,4.17-1.41,8.29-2.92,12.34-4.6,2-.83,4-1.71,6-2.68,1-.49,1.92-1,2.83-1.56.47-.27.87-.57,1.3-.86s.87-.69,1.3-1q5.29-4.08,10.89-7.64a135.08,135.08,0,0,1,23.57-12.15l.08.18c-4,1.87-7.92,3.89-11.72,6.1s-7.54,4.54-11.16,7-7.18,5.07-10.58,7.83l-1.29,1c-.48.33-1,.7-1.44,1-1,.62-1.94,1.17-2.93,1.69-2,1-4,2-6,2.87-4.1,1.73-8.26,3.28-12.44,4.72a41.4,41.4,0,0,1-6.51,1.85c-2.27.42-4.5.46-6.7.65a194.86,194.86,0,0,1-26.58-.18c-4.41-.33-8.82-.8-13.21-1.48-1.09-.16-2.19-.35-3.28-.55-.54-.08-1.11-.23-1.63-.29l-1.56-.2c-2.21-.16-4.42-.32-6.62-.57a122.65,122.65,0,0,1-26-5.54c-2.1-.71-4.17-1.48-6.22-2.36-1-.41-2-.93-3-1.32s-2-.67-3.11-1.09a33.56,33.56,0,0,1-5.82-3.31c-1.83-1.25-3.62-2.55-5.38-3.88-7.06-5.32-13.85-11-20.92-16.24Z"/>
    <path d="M470.84,340.72c-7.39,2.3-37.63,11.69-56.92.5,0,0,29.83-42.45,74.4-4.5" style="fill: #fff"/>
    <path d="M488.32,336.66c-4.33,1.37-11.78,3.13-19,4.53,0,0,14.27-9.47,1-16.09A56.19,56.19,0,0,1,488.32,336.66Z" style="fill: #ff9eb7"/>
    <path d="M460.89,321.73a.75.75,0,0,1-.41-.19c-.76-.11-1.52-.26-2.27-.4a8.56,8.56,0,0,0-1.34,0,.68.68,0,0,1-.61-.3l-.09-.07-.11,0a.77.77,0,0,1-.57.24.79.79,0,0,1-.62-.27c-.44,0-.88.06-1.31.1a.76.76,0,0,1-.38.09.8.8,0,0,1-.36-.09.76.76,0,0,1-.48.17.76.76,0,0,1-.71-.44c-1.41.07-2.82.16-4.22.27a.61.61,0,0,1-.29.14c-2,.32-4.13.15-6.08.9-.83.32-1.6.78-2.43,1.12a6.32,6.32,0,0,1-2.65.51,15.05,15.05,0,0,0,12.15,22.56.81.81,0,0,1,.47-.36c2-.44,4-.27,5.9-.88a.72.72,0,0,1,.54.05A15.1,15.1,0,0,0,464.13,331,14.89,14.89,0,0,0,460.89,321.73Z" style="stroke-miterlimit: 10;fill: url(#linear-gradient);stroke: url(#linear-gradient-2)"/>
    <circle cx="449.48" cy="330.47" r="8.45" style="fill: #1a1a1a"/>
    <rect x="452.47" y="329.21" width="9.27" height="3.48" rx="1.74" style="fill: #fff"/>
    <path d="M587.45,333.08c7.6,1.51,38.66,7.66,56.66-5.49,0,0-34.13-39.08-74.46,3.35" style="fill: #fff"/>
    <path d="M569.64,330.88c4.46.91,12.05,1.87,19.38,2.51,0,0-15.18-7.92-2.72-15.9A56.24,56.24,0,0,0,569.64,330.88Z" style="fill: #ff9eb7"/>
    <path d="M595.35,313.15a.75.75,0,0,0,.39-.23c.75-.2,1.48-.42,2.22-.64a7.41,7.41,0,0,1,1.33-.14.71.71,0,0,0,.58-.37l.07-.07.12,0a.8.8,0,0,0,.59.17.77.77,0,0,0,.58-.34l1.32,0a.78.78,0,0,0,.38,0,.64.64,0,0,0,.35-.13.81.81,0,0,0,.5.12.76.76,0,0,0,.66-.51c1.41-.08,2.81-.14,4.22-.17a.63.63,0,0,0,.31.1c2,.1,4.12-.28,6.14.26.86.23,1.67.61,2.53.86a6.45,6.45,0,0,0,2.69.23,14.87,14.87,0,0,1,2.79,7.26A15.07,15.07,0,0,1,610.62,336a.81.81,0,0,0-.51-.31c-2-.23-4,.16-6-.26a.78.78,0,0,0-.54.11,15.1,15.1,0,0,1-10.52-12.82A14.93,14.93,0,0,1,595.35,313.15Z" style="stroke-miterlimit: 10;fill: url(#linear-gradient-3);stroke: url(#linear-gradient-4)"/>
    <circle cx="607.62" cy="320.64" r="8.45" style="fill: #1a1a1a"/>
    <path d="M483.55,323.59a74,74,0,0,0-19.28-6.85,68,68,0,0,0-20.3-1.29,63.33,63.33,0,0,0-10,1.86c-1.62.49-3.24.94-4.81,1.56s-3.15,1.22-4.71,1.86c-.77.34-1.52.73-2.29,1.09s-1.53.73-2.26,1.15l-2.23,1.22-2.17,1.34a99.74,99.74,0,0,0-8.35,5.94l-.14-.14c.6-.62,1.2-1.24,1.81-1.85s1.21-1.25,1.87-1.81c1.32-1.11,2.6-2.29,4-3.29a53.62,53.62,0,0,1,8.9-5.46,54.91,54.91,0,0,1,9.86-3.53,64.67,64.67,0,0,1,10.34-1.54,69.17,69.17,0,0,1,20.64,1.92,74.32,74.32,0,0,1,19.16,7.65Z"/>
    <path d="M573.25,317.42a51.4,51.4,0,0,1,8.55-5.83,62.31,62.31,0,0,1,9.46-4.26,63,63,0,0,1,30.9-2.61l1.29.22,1.28.28c.85.2,1.71.36,2.55.58,1.67.53,3.36.95,5,1.59l2.44.93,2.39,1.06c1.6.69,3.13,1.53,4.65,2.35s3,1.78,4.47,2.67,2.83,2,4.22,3l-.11.17c-1.55-.77-3-1.62-4.57-2.39s-3.06-1.55-4.63-2.22-3.11-1.41-4.72-2l-2.37-.92-2.42-.8a78.08,78.08,0,0,0-9.82-2.61,59.51,59.51,0,0,0-30.22,1.61,58.09,58.09,0,0,0-18.2,9.29Z"/>
    <path d="M483.69,408.52a39.85,39.85,0,0,0-1.42,7.31,30.54,30.54,0,0,0,0,7.34,26.12,26.12,0,0,0,2.1,6.82,21.17,21.17,0,0,0,1.72,3.12,36.51,36.51,0,0,0,2.25,2.94l-.12.16a12.68,12.68,0,0,1-5.63-5.32,13.46,13.46,0,0,1-1.41-3.69,27.11,27.11,0,0,1-.5-3.88,32,32,0,0,1,.56-7.64,36.34,36.34,0,0,1,2.23-7.24Z" style="fill: #42210b"/>
    <path d="M580.75,406.36a18.49,18.49,0,0,1,2.82,6.42,22.19,22.19,0,0,1,.48,7.09,19.07,19.07,0,0,1-1.85,6.92,20.06,20.06,0,0,1-1.92,3,23,23,0,0,1-2.47,2.56l-.16-.12c.42-1.13.94-2.15,1.43-3.17.2-.54.44-1.05.66-1.56l.35-.77c.11-.25.19-.52.29-.78.19-.52.39-1,.62-1.55s.35-1,.55-1.56l.3-.78c.09-.26.15-.53.22-.8.13-.54.3-1.08.39-1.62a20.84,20.84,0,0,0,.13-6.69,19.13,19.13,0,0,0-2-6.49Z" style="fill: #42210b"/>
    <g>
      <path d="M498.37,434.49a22,22,0,0,1,17.07-.05.86.86,0,0,1-.47,1.65c-3.07-.45-6.58-.72-7.56.21a4.36,4.36,0,0,1-2.1,1.22,25.63,25.63,0,0,1-6.38.31A1.74,1.74,0,0,1,498.37,434.49Z"/>
      <path d="M498.35,434.44a25.25,25.25,0,0,1,10.13-1.91,21.4,21.4,0,0,1,5.14.9,12.9,12.9,0,0,1,1.24.42l.62.22a1.3,1.3,0,0,1,.67.52,1.26,1.26,0,0,1-.3,1.65,1.24,1.24,0,0,1-.88.25l-.65-.08a24.46,24.46,0,0,0-5-.19,4.61,4.61,0,0,0-1.13.23,1.59,1.59,0,0,0-.38.22,5.7,5.7,0,0,1-.52.46,4.8,4.8,0,0,1-1.25.72,6.87,6.87,0,0,1-1.37.29,21.79,21.79,0,0,1-5.23,0,3,3,0,0,1-1.33-.36,1.88,1.88,0,0,1-.8-1.12A1.83,1.83,0,0,1,498.35,434.44Zm0,.1a1.59,1.59,0,0,0-.88,2,1.47,1.47,0,0,0,.75.85,2.34,2.34,0,0,0,1.17.16,34,34,0,0,0,5.06-.44,6.38,6.38,0,0,0,1.15-.25,3.46,3.46,0,0,0,1-.59,5.58,5.58,0,0,0,.46-.39,2.49,2.49,0,0,1,.73-.42,5.5,5.5,0,0,1,1.39-.27,25.33,25.33,0,0,1,5.25.38l.62.1a.47.47,0,0,0,.34-.07.55.55,0,0,0,.15-.67.59.59,0,0,0-.34-.24l-.59-.24a11.2,11.2,0,0,0-1.19-.44,21,21,0,0,0-5-1A21.43,21.43,0,0,0,498.39,434.54Z" style="fill: #42210b"/>
    </g>
    <g>
      <path d="M548.16,435.32c-1.25-.8-1.64-2.29,3.68-4.78,0,0,7.36-1.91,12.65,0a2.59,2.59,0,0,1,.44,3,2.94,2.94,0,0,1-4.62.62c-1.32-1.26-3.89-2.1-8.62,1.07A3.22,3.22,0,0,1,548.16,435.32Z"/>
      <path d="M548.13,435.37a2.14,2.14,0,0,1-.67-.67,1.14,1.14,0,0,1-.06-.94,3.92,3.92,0,0,1,1.19-1.43,16.22,16.22,0,0,1,1.55-1.05c.53-.32,1.08-.61,1.63-.9h0a29.83,29.83,0,0,1,6.37-1,18.37,18.37,0,0,1,6.45.77l.09,0,.06.07a3,3,0,0,1,.76,2.92,3.18,3.18,0,0,1-2.17,2.13,3.54,3.54,0,0,1-3-.51,12.42,12.42,0,0,0-1-.8,3.28,3.28,0,0,0-1.1-.43,8.26,8.26,0,0,0-4.94,1,20.93,20.93,0,0,1-2.47,1.19A3.25,3.25,0,0,1,548.13,435.37Zm0-.09a2.94,2.94,0,0,0,2.55.23,20.39,20.39,0,0,0,2.27-1.44,7.88,7.88,0,0,1,5.41-1.48,4.51,4.51,0,0,1,1.42.53A8.71,8.71,0,0,1,561,434a2.61,2.61,0,0,0,2.15.42,2.28,2.28,0,0,0,1.6-1.46,2.19,2.19,0,0,0-.48-2.11l.14.09a17.53,17.53,0,0,0-6.17-.91,34.25,34.25,0,0,0-6.3.71h0a15.83,15.83,0,0,0-3.24,1.75,3.08,3.08,0,0,0-1.18,1.35,1,1,0,0,0,0,.85A2,2,0,0,0,548.18,435.28Z" style="fill: #42210b"/>
    </g>
    <path d="M602.62,429.65q6,4.56,12.16,9c4.09,2.93,8.21,5.83,12.47,8.48a21.22,21.22,0,0,1,10.12,11.18,18.2,18.2,0,0,1,1.06,7.59,17.4,17.4,0,0,1-.19,1.91l-.39,1.87a11.56,11.56,0,0,1-.55,1.82l-.63,1.78-.1,0a27,27,0,0,0,1.16-7.37,18.13,18.13,0,0,0-1.3-7.22,21.72,21.72,0,0,0-9.61-10.86c-4.24-2.75-8.3-5.74-12.33-8.75s-8-6.13-11.93-9.28Z" style="fill: #42210b"/>
    <path d="M464.16,444a78.06,78.06,0,0,0-8.18,7.46,70.58,70.58,0,0,0-7,8.5,53.84,53.84,0,0,0-5.26,9.62,36.35,36.35,0,0,0-1.74,5.19,35.22,35.22,0,0,0-.86,5.44H441a24.3,24.3,0,0,1,.27-5.58,33,33,0,0,1,1.5-5.42,41.3,41.3,0,0,1,5.54-9.71,70.68,70.68,0,0,1,7.34-8.39,76.27,76.27,0,0,1,8.47-7.19Z" style="fill: #42210b"/>
    <circle cx="614.99" cy="326.71" r="2.11" style="fill: #fff"/>
    <g>
      <path d="M571.14,297.21c15.67-5.54,62.89-18.08,105.49,13.21,0,0,4-65.63-114.24-31.11,0,0-8,.44,0,14.66A7.22,7.22,0,0,0,571.14,297.21Z" style="fill: #42210b"/>
      <path d="M571.13,297.16a129.94,129.94,0,0,1,26.89-6.3,122.25,122.25,0,0,1,27.64-.38,105.69,105.69,0,0,1,26.9,6.38,112,112,0,0,1,12.57,5.85,116.15,116.15,0,0,1,11.7,7.44l-.54.25a34.32,34.32,0,0,0-.95-8.42,40.15,40.15,0,0,0-2.8-8,40.92,40.92,0,0,0-4.54-7.17,40.44,40.44,0,0,0-2.89-3.11l-1.54-1.47-1.66-1.32a46.63,46.63,0,0,0-15.09-7.68,82.69,82.69,0,0,0-16.76-3.11c-11.38-.82-22.83.2-34.12,1.93a293.79,293.79,0,0,0-33.49,7.49h-.05a4,4,0,0,0-1.51.5,4.26,4.26,0,0,0-.63.49l-.28.29-.22.34a5.57,5.57,0,0,0-.7,3.15,18.82,18.82,0,0,0,1.89,6.46c1,2,1.8,4.27,3.73,5.53A7.2,7.2,0,0,0,571.13,297.16Zm0,.1a7.38,7.38,0,0,1-6.59-.82,7.25,7.25,0,0,1-2.3-2.53c-.52-1-1.12-2-1.57-3l-.71-1.56-.58-1.62a15.91,15.91,0,0,1-.71-3.37,6,6,0,0,1,.72-3.39l.24-.38.32-.32a3.82,3.82,0,0,1,.7-.56,4.29,4.29,0,0,1,1.7-.58h0a294.78,294.78,0,0,1,33.46-8,145.83,145.83,0,0,1,34.35-2,80.87,80.87,0,0,1,17,3.21,47.39,47.39,0,0,1,15.33,7.91l1.69,1.36,1.56,1.51A37.54,37.54,0,0,1,676,301.82a34.62,34.62,0,0,1,.93,8.62l0,.63-.53-.37a116.47,116.47,0,0,0-11.59-7.45,113.23,113.23,0,0,0-12.47-5.86,108,108,0,0,0-26.74-6.53,119.36,119.36,0,0,0-27.57.19A129.11,129.11,0,0,0,571.16,297.26Z" style="fill: #42210b"/>
    </g>
    <g>
      <path d="M476,304c-18.87-1.88-81.36-4.76-93.38,37.66,0,0-26.54-69,93.41-55.87,0,0,9.81-.11,7.15,12.92A6.65,6.65,0,0,1,476,304Z" style="fill: #42210b"/>
      <path d="M476,304a184.91,184.91,0,0,0-27.24-.61,125,125,0,0,0-26.87,4.21c-8.71,2.45-17.21,6.14-24.24,11.87a44.2,44.2,0,0,0-9.09,10,45,45,0,0,0-5.61,12.26l-.3,1-.35-1a47.23,47.23,0,0,1-2.52-16.54,37.7,37.7,0,0,1,4-16.23,36.38,36.38,0,0,1,11-12.62,33.76,33.76,0,0,1,3.5-2.33l1.83-1.06.91-.52.95-.45c1.27-.58,2.54-1.2,3.82-1.75l3.95-1.44A92.53,92.53,0,0,1,426,285.09c1.39-.18,2.77-.41,4.15-.57l4.17-.35c2.78-.29,5.57-.32,8.36-.39a259.61,259.61,0,0,1,33.34,1.78h0a8,8,0,0,1,6,3,10,10,0,0,1,1.72,6.49c-.05.56,0,1.13-.13,1.69l-.27,1.67A6.74,6.74,0,0,1,476,304Zm0-.1a6.54,6.54,0,0,0,7.11-5.59l.25-1.66c.09-.55.06-1.11.1-1.67a9.74,9.74,0,0,0-1.72-6.26A7.59,7.59,0,0,0,476,286h0a256.89,256.89,0,0,0-33.27-1.32c-11.05.44-22.2,1.58-32.7,5.09l-3.89,1.42c-1.27.54-2.51,1.15-3.76,1.71l-.94.43-.9.52-1.79,1a30.51,30.51,0,0,0-3.44,2.27,35.47,35.47,0,0,0-10.8,12.24,36.89,36.89,0,0,0-4,15.87,46.58,46.58,0,0,0,2.4,16.28l-.65,0a44.28,44.28,0,0,1,15-22.49,56.85,56.85,0,0,1,11.63-7.18,81.21,81.21,0,0,1,12.86-4.63,129.41,129.41,0,0,1,27-4A185.18,185.18,0,0,1,476,303.94Z" style="fill: #42210b"/>
    </g>
    <path d="M478.75,284.55a.45.45,0,0,1,.16,0l.1,0,.18.06.34.14c.22.09.44.2.65.31a13.23,13.23,0,0,1,1.25.74,18.54,18.54,0,0,1,2.31,1.76,13.28,13.28,0,0,1,3.46,4.84,9.3,9.3,0,0,1,.65,3.07,7,7,0,0,1-.62,3.11,9.49,9.49,0,0,1-4.11,4.33l-.14-.15a25.92,25.92,0,0,0,2.39-4.9,9,9,0,0,0,.31-5,12,12,0,0,0-2.65-4.64,18.32,18.32,0,0,0-2-2c-.35-.3-.72-.6-1.1-.87l-.58-.4c-.17-.12-.45-.25-.53-.3Z" style="fill: #42210b"/>
    <path d="M474.71,284.36a10.85,10.85,0,0,1,2.91.92,19.18,19.18,0,0,1,2.69,1.5,13.25,13.25,0,0,1,4.25,4.6,9.93,9.93,0,0,1,1,3.14,7.35,7.35,0,0,1-.28,3.3,10.47,10.47,0,0,1-3.68,5.09l-.15-.13a28.1,28.1,0,0,0,1.89-5.45,9.2,9.2,0,0,0-.27-5.27,11.92,11.92,0,0,0-3.41-4.49,15.38,15.38,0,0,0-5-3Z" style="fill: #42210b"/>
    <path d="M484.77,288.07a3.63,3.63,0,0,1,1.85,1.33,12,12,0,0,1,1.3,1.85,11.89,11.89,0,0,1,1.39,4.39,10.24,10.24,0,0,1,0,2.41,5.81,5.81,0,0,1-.84,2.3,6.45,6.45,0,0,1-3.73,2.8l-.12-.17a20.9,20.9,0,0,0,2.09-3.58,10.64,10.64,0,0,0,1-3.7,10.48,10.48,0,0,0-.7-4,11.42,11.42,0,0,0-.89-1.91,5.81,5.81,0,0,0-.61-.86,2,2,0,0,0-.76-.63Z" style="fill: #42210b"/>
    <path d="M559,280.73c0,.09-.19.36-.25.56s-.17.44-.24.66c-.15.45-.27.9-.38,1.35a17.3,17.3,0,0,0-.44,2.75,12,12,0,0,0,.56,5.32,9,9,0,0,0,3.15,3.84,26.43,26.43,0,0,0,4.8,2.58l0,.19a9.45,9.45,0,0,1-5.86-1.1,7.14,7.14,0,0,1-2.32-2.16,9.3,9.3,0,0,1-1.27-2.87,13.28,13.28,0,0,1,0-6,19,19,0,0,1,.84-2.78c.18-.45.36-.9.58-1.33.11-.22.22-.43.35-.64l.19-.31a1.58,1.58,0,0,1,.12-.15l.06-.07a.48.48,0,0,1,.14-.09Z" style="fill: #42210b"/>
    <path d="M562.28,278.16a15.22,15.22,0,0,0-2.31,5.38,12,12,0,0,0-.15,5.63,9.22,9.22,0,0,0,2.87,4.43,27.38,27.38,0,0,0,4.72,3.32l0,.19a10.21,10.21,0,0,1-3.09-.51,9.86,9.86,0,0,1-2.87-1.46,7.31,7.31,0,0,1-2.16-2.52,10,10,0,0,1-1-3.15,13.28,13.28,0,0,1,.76-6.22,18.08,18.08,0,0,1,1.3-2.78,10.66,10.66,0,0,1,1.83-2.45Z" style="fill: #42210b"/>
    <path d="M556.62,283.73a2.1,2.1,0,0,0-.31.95,7.32,7.32,0,0,0,0,1.05,11.79,11.79,0,0,0,1.86,5.86,10.82,10.82,0,0,0,2.85,2.57,20.91,20.91,0,0,0,3.7,1.89v.2a6.46,6.46,0,0,1-4.66-.35,5.9,5.9,0,0,1-2-1.48,10.72,10.72,0,0,1-1.31-2,11.84,11.84,0,0,1-1.19-4.45,11.41,11.41,0,0,1,.09-2.26,3.65,3.65,0,0,1,.84-2.11Z" style="fill: #42210b"/>
    <polygon points="506.63 473.23 593.86 477.4 583.47 487.74 531.76 492.06 494.56 484.19 488.32 482.51 506.63 473.23" style="opacity: 0.48"/>
    <path d="M615.51,479.1l-2.85-.18a96.09,96.09,0,0,1-17-2.63l-2-.49c-11-2.62-13-2.37-21.35-4.63-4.89-1.33-6.57-1.53-11.17-3-8-2.57-12-.37-13.24.65a15.51,15.51,0,0,1-2,1.39c-5,2.62-10.7,1.43-13.91.36a11.28,11.28,0,0,1-3.29-1.81c-3.61-2.46-13-2.37-38,7.93a62.29,62.29,0,0,1-7.17,2.16c-11.81,2.81-18.84.88-19.73,3.14s4.54,6.71,11,10.57c15,9,29.87,10.07,35.23,11.4,27.63,6.88,49.43,5.09,75.33-4.93a122.78,122.78,0,0,0,31-17.61A1.3,1.3,0,0,0,615.51,479.1Zm-116.75,4.69-3.68.28c1.48-.17,3.06-.31,4.64-.42Zm86,1.6c0,.32-5.53.2-9.4-.05l-.48,0c-6.36-.44-23.64,3.72-34,3.87s-9.71-3.76-26.77-5.22a110,110,0,0,0-14.35-.31c15.12-2.07,23.23-1.16,27.89.3.49.15,1.75.56,3.53,1a45.26,45.26,0,0,0,15.63.63c19-2,19.38-2.48,24.1-2.31C578.37,483.51,584.78,485,584.75,485.39Z" style="fill: #af696e"/>
    <path d="M556.06,339.55c14.27,9.08,83.9,50.3,110.58,7.94a12.9,12.9,0,0,0,1.8-4.79c2.16-13.46,5.93-72.59-105.18-34.46a19.32,19.32,0,0,0-11.61,25.69l.4.93A10.69,10.69,0,0,0,556.06,339.55Z" style="opacity: 0.02"/>
    <path d="M414.91,364.45a34.78,34.78,0,0,1,6.76,1.94c8.44,3.36,33,9.5,63.4-15.77a4.11,4.11,0,0,1,1.67-.65c5.68-.65,10.65-4.21,12.12-9.74,1.75-6.62,1.18-14.08-5.71-20.4,0,0-43.49-30.82-88-2a36.11,36.11,0,0,0-16,24c0,.11,0,.21-.05.31a13.42,13.42,0,0,0,5.31,13A50.8,50.8,0,0,0,414.91,364.45Z" style="opacity: 0.02"/>
    <path d="M483.89,408.15s-5.75,19.71,1.24,24.62c0,0-8.08-14.83-15.23-6.27,0,0-7-8.56,15.23-33C485.13,393.53,490.11,394.93,483.89,408.15Z" style="opacity: 0.02"/>
    <path d="M599.14,82.25a122,122,0,0,1,18-10.46,101.33,101.33,0,0,1,19.56-7.07A61.87,61.87,0,0,1,657.36,63a42.71,42.71,0,0,1,19.55,6.79,49.46,49.46,0,0,1,14.37,15,71.26,71.26,0,0,1,5,9.18,98.58,98.58,0,0,1,3.79,9.71c4.33,13.24,6.37,27.09,7.49,40.92l-.45-.33a48.57,48.57,0,0,1,12.61-.79A41,41,0,0,1,732,146.11a31.41,31.41,0,0,1,10.65,6.8,33.58,33.58,0,0,1,7.19,10.41,51.85,51.85,0,0,1,3.6,12.12c.22,1,.28,2.09.43,3.13s.3,2.09.33,3.14l.17,3.16.07,1.57V188a138.38,138.38,0,0,1-2.57,25l-.75-.51a21,21,0,0,1,13.3-2.56,21.93,21.93,0,0,1,11.9,6.41A43.29,43.29,0,0,1,784,227.58a88.62,88.62,0,0,1,4.75,12.63c.64,2.15,1.16,4.34,1.73,6.51s1,4.39,1.38,6.6.77,4.42,1.12,6.63l.9,6.67c1,8.92,1.54,17.87,1.87,26.83h-.1c-.46-8.95-1.13-17.88-2.25-26.77l-1-6.64c-.37-2.21-.79-4.41-1.17-6.61s-1-4.37-1.43-6.56-1.11-4.33-1.76-6.46a88.22,88.22,0,0,0-4.8-12.47A42.29,42.29,0,0,0,775.7,217,21,21,0,0,0,764.29,211a20,20,0,0,0-12.62,2.41l-.95.54.19-1.05A138.58,138.58,0,0,0,753.47,188v-1.56l-.07-1.56-.16-3.11c0-1-.23-2.07-.33-3.1s-.19-2.07-.41-3.09A51,51,0,0,0,749,163.7a32.65,32.65,0,0,0-7-10.17,30.41,30.41,0,0,0-10.34-6.66,39.79,39.79,0,0,0-12.1-2.64,48.06,48.06,0,0,0-12.39.73l-.42.08,0-.41c-1.07-13.79-3.07-27.6-7.33-40.78a95.13,95.13,0,0,0-3.74-9.67,69.45,69.45,0,0,0-4.89-9.12,49.2,49.2,0,0,0-14.17-14.88,42.39,42.39,0,0,0-19.34-6.81A61.86,61.86,0,0,0,636.73,65a100.54,100.54,0,0,0-19.53,7,121.78,121.78,0,0,0-18,10.37Z" style="fill: #603813"/>
    <path d="M625,71.2a12,12,0,0,1,3.5-3.57,17.35,17.35,0,0,1,4.56-2.11A41,41,0,0,1,643,64c6.68-.27,13.35-.48,20-.34a101.5,101.5,0,0,1,20,2.12,58.57,58.57,0,0,1,18.59,7.44l-.05.09a69.78,69.78,0,0,0-18.75-6.55A122.32,122.32,0,0,0,663,64.48c-6.66-.24-13.33-.13-20,0a40.4,40.4,0,0,0-9.85,1.29,13.78,13.78,0,0,0-8.06,5.45Z" style="fill: #603813"/>
    <path d="M651.72,109.66a59.69,59.69,0,0,1,7.15-6.22,19.29,19.29,0,0,1,8.72-3.68,18.48,18.48,0,0,1,9.36,1.63c2.94,1.21,5.76,2.58,8.68,3.79a118,118,0,0,0,17.84,6,59.25,59.25,0,0,0,18.68,1.63v.1a50.25,50.25,0,0,1-18.92-.75,96.63,96.63,0,0,1-17.93-6.24c-2.9-1.25-5.73-2.68-8.61-3.92a17.94,17.94,0,0,0-9.05-1.74,19,19,0,0,0-8.61,3.44,59.53,59.53,0,0,0-7.25,6Z" style="fill: #603813"/>
    <path d="M701.57,172.13a70.67,70.67,0,0,1,7.32-36.39,55.63,55.63,0,0,1,3.08-5.48,17.22,17.22,0,0,1,4.3-4.67,14.33,14.33,0,0,1,5.91-2.38,23,23,0,0,1,6.36-.12c4.22.49,8.19,2,12.15,3.13s8,2.22,12.1,1.69a15.85,15.85,0,0,0,5.81-1.83,12.16,12.16,0,0,0,2.47-1.81,11,11,0,0,0,1.86-2.47l.09,0a11.36,11.36,0,0,1-1.75,2.61,12.1,12.1,0,0,1-2.44,2,16.29,16.29,0,0,1-5.94,2.13,19.82,19.82,0,0,1-3.17.24,27.85,27.85,0,0,1-3.17-.27,48.75,48.75,0,0,1-6.14-1.39c-4-1.18-7.92-2.63-12-3.11a22.18,22.18,0,0,0-6.09,0,13.42,13.42,0,0,0-5.6,2.16,16.35,16.35,0,0,0-4.16,4.41,57.12,57.12,0,0,0-3.1,5.37,69.19,69.19,0,0,0-4.69,11.5,70.77,70.77,0,0,0-3.11,24.59Z" style="fill: #603813"/>
    <path d="M730.74,203.26a30.57,30.57,0,0,0,8.69-1.42c2.83-.84,5.58-1.91,8.37-2.89a49.27,49.27,0,0,1,8.56-2.35,34.44,34.44,0,0,1,8.9-.2,58.07,58.07,0,0,1,17,4.9,46.38,46.38,0,0,1,7.8,4.31,29.58,29.58,0,0,1,6.49,6.15,35.08,35.08,0,0,1,6.66,16.46,47.68,47.68,0,0,1-.92,17.77A79.15,79.15,0,0,1,796,262.61c-2.66,5.3-5.72,10.36-8.81,15.4l-.08-.05c2.86-5.17,5.74-10.33,8.26-15.66a80.65,80.65,0,0,0,6-16.54,46.83,46.83,0,0,0,.91-17.41A34.39,34.39,0,0,0,796,212.24a29,29,0,0,0-6.28-6,46,46,0,0,0-7.65-4.31,57.53,57.53,0,0,0-16.84-5,34,34,0,0,0-8.78.09,48.83,48.83,0,0,0-8.52,2.24c-2.8,1-5.57,2-8.42,2.8a30.47,30.47,0,0,1-8.75,1.33Z" style="fill: #603813"/>
    <path d="M743.21,222.44a9.59,9.59,0,0,1,3.45-4.94A13.48,13.48,0,0,1,752.2,215c4-.85,8.18-.22,12.16.44A38.86,38.86,0,0,1,776,219a17.72,17.72,0,0,1,4.91,3.74,15.76,15.76,0,0,1,3.19,5.31,29.74,29.74,0,0,1,1.49,6,52.34,52.34,0,0,1,.57,6.12,53.26,53.26,0,0,1-1.07,12.21,50.66,50.66,0,0,1-10.59,21.83l-.08-.06a55.57,55.57,0,0,0,9.69-22,52.47,52.47,0,0,0,1.06-12,50.51,50.51,0,0,0-.47-6,28.07,28.07,0,0,0-1.35-5.83,15.74,15.74,0,0,0-7.66-8.76,38.49,38.49,0,0,0-11.46-3.66c-4-.72-8-1.41-12-.63a13.34,13.34,0,0,0-5.48,2.39,9.53,9.53,0,0,0-3.48,4.82Z" style="fill: #603813"/>
    <path d="M714,213.43a131.67,131.67,0,0,1,21.51-10.25c7.45-2.81,15-5.31,22.58-7.73a38.34,38.34,0,0,1,11.79-2,31.91,31.91,0,0,1,11.73,2.38c7.46,3,13.75,8.39,18.82,14.54a66.53,66.53,0,0,1,6.71,9.93,46.72,46.72,0,0,1,4.53,11.13,33.28,33.28,0,0,1,.76,12,73.68,73.68,0,0,1-2.49,11.73c-2.29,7.62-4.71,15.19-7.06,22.79l-3.55,11.39-3.63,11.36-.1,0c4.32-15.31,9-30.51,13.38-45.78a73.57,73.57,0,0,0,2.46-11.57,32.23,32.23,0,0,0-.73-11.66,46,46,0,0,0-4.35-10.94,65.57,65.57,0,0,0-6.55-9.85c-5-6.1-11.14-11.42-18.45-14.45a31.5,31.5,0,0,0-11.48-2.41,38.3,38.3,0,0,0-11.65,1.86c-7.58,2.36-15.16,4.79-22.61,7.54A130.56,130.56,0,0,0,714,213.52Z" style="fill: #603813"/>
    <path d="M783.08,279.76l16.62-6.52c5.53-2.14,11.08-4.48,17-5.38a26,26,0,0,1,9,.12c.75.11,1.46.38,2.2.56s1.4.54,2.11.82,1.35.67,2,1.06a21.32,21.32,0,0,1,1.87,1.28A22.81,22.81,0,0,1,842.73,287a20.58,20.58,0,0,1-1,9,35,35,0,0,1-4,8.08A87.29,87.29,0,0,1,796.29,337l0-.09a95.09,95.09,0,0,0,29.33-19.77,87.72,87.72,0,0,0,11.34-13.6,33.75,33.75,0,0,0,4-7.82,19.87,19.87,0,0,0,1-8.61,22.1,22.1,0,0,0-8.46-14.86,20.59,20.59,0,0,0-1.8-1.25c-.62-.39-1.29-.69-1.93-1s-1.35-.58-2-.8-1.39-.45-2.12-.57a25.44,25.44,0,0,0-8.79-.18c-5.87.81-11.43,3.08-17,5.16l-16.69,6.33Z" style="fill: #603813"/>
    <path d="M784.64,323.31a41.07,41.07,0,0,0,14.3,4.21c5,.66,10,.82,14.95,1.24,10,.83,20,2.47,29.38,6a69.12,69.12,0,0,1,6.89,3,58.79,58.79,0,0,1,6.51,3.8,53.2,53.2,0,0,1,11.21,10,46.65,46.65,0,0,1,4.38,6.15c.69,1.06,1.23,2.2,1.82,3.31l.78,1.73a17.85,17.85,0,0,1,.72,1.75A36.23,36.23,0,0,1,878,379.45a35,35,0,0,1-4.21,14.48,30.82,30.82,0,0,1-10.15,11.16,27.79,27.79,0,0,1-7,3.14,30,30,0,0,1-7.54,1,52.26,52.26,0,0,1-14.92-2.3c-4.84-1.38-9.54-3.09-14.32-4.57s-9.57-2.85-14.42-4.07a293.7,293.7,0,0,0-29.43-5.79v-.1q7.45.88,14.87,2.18c4.92.89,9.83,1.93,14.7,3.09s9.71,2.47,14.51,3.91,9.54,3.08,14.35,4.39a51.51,51.51,0,0,0,14.64,2.27,29.4,29.4,0,0,0,7.29-1,26.43,26.43,0,0,0,6.68-3A29.91,29.91,0,0,0,873,393.5a34.09,34.09,0,0,0,4.2-14.1,35.31,35.31,0,0,0-2.31-14.55,17.31,17.31,0,0,0-.69-1.73l-.76-1.7c-.58-1.09-1.11-2.22-1.78-3.27a46,46,0,0,0-4.29-6.08,54.71,54.71,0,0,0-5.16-5.39,56.53,56.53,0,0,0-12.3-8.39,67.26,67.26,0,0,0-6.83-3c-9.33-3.59-19.28-5.3-29.22-6.19-5-.45-10-.65-15-1.34a41,41,0,0,1-14.31-4.32Z" style="fill: #603813"/>
    <path d="M780.58,399A76.27,76.27,0,0,1,792,422.48a96.24,96.24,0,0,1,3.91,26.19,86.23,86.23,0,0,1-3.8,26.35,137.21,137.21,0,0,1-10.41,24.42A141.86,141.86,0,0,1,767,521c-5.47,6.61-11.23,12.85-17.22,18.89a262.89,262.89,0,0,1-39.14,32.17l-.91-1.19a308.5,308.5,0,0,0,34.49-36c5.22-6.4,10.21-13,14.78-19.82a130.27,130.27,0,0,0,11.94-20.94,99.37,99.37,0,0,0,6.75-22.7c1.43-7.74,2.47-15.47,3.22-23.31a179.81,179.81,0,0,0,.63-23.84c-.29-8.07-1.18-16.22-2.32-24.73Z" style="fill: #603813"/>
    <path d="M754.59,433.09a31,31,0,0,1,8.76,8.33,46,46,0,0,1,5.73,10.9,74,74,0,0,1,4.14,23.79c0,2,0,3.93-.1,5.89,0,1-.08,2-.12,2.95s-.2,1.95-.31,2.93q-.33,2.92-.77,5.84l-1.23,5.76-.68,2.87-.81,2.82-1.63,5.63-1.88,5.55-.9,2.77-1,2.73-2,5.44-2.32,5.34-1.16,2.66-1.28,2.6-2.57,5.2-2.87,5-1.44,2.51-1.55,2.43-3.11,4.86-3.34,4.7L740.38,565l-1.8,2.24L735,571.67l-3.8,4.29-1.9,2.13-2,2-4,4L719,588l-2.12,1.89-2.23,1.78-4.42,3.54-1-1.13,3.81-4.11,1.9-2.05,1.78-2.15,3.6-4.25,3.36-4.44,1.67-2.21,1.58-2.28,3.14-4.55,2.9-4.71,1.44-2.34,1.33-2.42a172.52,172.52,0,0,0,16.55-40.34l.71-2.61.57-2.66,1.07-5.3.77-5.35.39-2.67.24-2.68.6-5.33c.14-1.79.29-3.56.48-5.34.11-.88.19-1.77.32-2.65s.12-1.78.21-2.67c.15-1.77.35-3.55.56-5.32a125.41,125.41,0,0,0,.52-20.92,55.35,55.35,0,0,0-5.27-20.61Z" style="fill: #603813"/>
    <path d="M733.15,461.25c.74.12,1.46.32,2.21.49s1.42.51,2.15.78a16.48,16.48,0,0,1,2.08,1,18.18,18.18,0,0,1,2,1.21,29.56,29.56,0,0,1,6.82,6.49,38.79,38.79,0,0,1,7.2,17.42A42,42,0,0,1,754.07,507a136.84,136.84,0,0,1-6.57,16.11c-2.39,5.11-4.86,10-7.43,14.85s-5.45,9.68-8.53,14.35c-6.17,9.28-13.74,18-23,24l-.94-1.16c7.57-7.73,13.11-16.85,17.43-26.53,2.22-4.81,4.17-9.76,6-14.8s3.74-10.13,5.35-15.12a77.94,77.94,0,0,0,3.23-14.92c.3-2.43.52-4.8.72-7.13.1-1.16.17-2.33.25-3.46s.1-2.23.12-3.37A51.66,51.66,0,0,0,739,476.16a39.13,39.13,0,0,0-6.63-13.62Z" style="fill: #603813"/>
    <path d="M400.09,152.84a128.33,128.33,0,0,0-95-22.14l-3.08.55c-1,.18-2.05.35-3.06.62-2,.49-4.06.95-6.07,1.47-4,1.13-7.92,2.79-10.87,5.66a9.8,9.8,0,0,0-2.83,5.27,11,11,0,0,0,.92,5.95c.78,1.91,1.77,3.76,2.71,5.62s1.94,3.69,3,5.51a187,187,0,0,0,13.64,21,18.69,18.69,0,0,1,1.69,2.71,7.13,7.13,0,0,1,.81,3.17,4.85,4.85,0,0,1-1.23,3.09,10.75,10.75,0,0,1-2.49,2,25.65,25.65,0,0,1-5.66,2.84,35.32,35.32,0,0,1-6.11,1.63A89.53,89.53,0,0,1,273.85,199a102.59,102.59,0,0,0-12.43.94,43,43,0,0,0-6,1.4,31.89,31.89,0,0,0-5.71,2.31c-.93.46-1.78,1-2.65,1.57a23.23,23.23,0,0,0-2.38,1.92,16.28,16.28,0,0,0-3.67,4.82c-1.93,3.61-2,7.86-1.85,12s.38,8.36.45,12.53q.24,12.56-.4,25.09c-.24,4.18-.53,8.35-.92,12.52a50,50,0,0,1-2.48,12.36,24.3,24.3,0,0,1-7.15,10.34,33.46,33.46,0,0,1-11.08,6c-8,2.68-16.35,3.61-24.48,5.45a63.2,63.2,0,0,0-11.91,3.69,35.42,35.42,0,0,0-5.46,3A29.53,29.53,0,0,0,171,319l-.07-.07a29.44,29.44,0,0,1,4.66-4.19,37.19,37.19,0,0,1,5.45-3.11A63.47,63.47,0,0,1,193,307.71c8.14-1.91,16.5-2.91,24.37-5.62a32.73,32.73,0,0,0,10.81-5.91A23.46,23.46,0,0,0,235,286.11a49,49,0,0,0,2.34-12.17c.36-4.15.62-8.32.83-12.48q.65-12.49.41-25c-.08-4.17-.25-8.33-.45-12.51a40.65,40.65,0,0,1,.14-6.33,19.94,19.94,0,0,1,.62-3.15,16.13,16.13,0,0,1,.54-1.52,10.17,10.17,0,0,1,.66-1.47,17.29,17.29,0,0,1,3.89-5.08,25.17,25.17,0,0,1,2.5-2,29,29,0,0,1,2.75-1.61,33.13,33.13,0,0,1,5.88-2.36,43.68,43.68,0,0,1,6.17-1.4,103.83,103.83,0,0,1,12.54-.91,88.45,88.45,0,0,0,12.41-1.1,35.19,35.19,0,0,0,6-1.57,25.11,25.11,0,0,0,5.51-2.75,10.14,10.14,0,0,0,2.34-1.9,4,4,0,0,0,1.05-2.61c0-2-1.16-3.79-2.34-5.44a188.86,188.86,0,0,1-13.62-21.07c-1-1.82-2-3.67-3-5.53s-1.92-3.72-2.72-5.68a11.49,11.49,0,0,1-.93-6.27,10.25,10.25,0,0,1,3-5.58c3.09-3,7.12-4.64,11.13-5.78,2-.52,4.08-1,6.11-1.46,1-.27,2.05-.43,3.08-.61l3.09-.54a128.63,128.63,0,0,1,95.18,22.55Z" style="fill: #603813"/>
    <path d="M466.56,71.8c-14.36-2-28.78-3.83-43.28-3.79a126,126,0,0,0-21.6,1.77A90.58,90.58,0,0,0,381,75.94a205.35,205.35,0,0,0-19.24,10A214.64,214.64,0,0,1,342.39,96a73.82,73.82,0,0,1-21,5.67,47.48,47.48,0,0,1-10.92-.11,37.62,37.62,0,0,1-10.46-3l0-.09a37.41,37.41,0,0,0,10.48,2.62,47.48,47.48,0,0,0,10.79-.08,73.14,73.14,0,0,0,20.71-6,215.52,215.52,0,0,0,19.25-10,206.85,206.85,0,0,1,19.4-9.9,91,91,0,0,1,20.92-6.06,126.45,126.45,0,0,1,21.71-1.63c14.54.09,29,2.1,43.29,4.2Z" style="fill: #603813"/>
    <path d="M221.31,581a141.21,141.21,0,0,1,50.06-28.17,126.07,126.07,0,0,1,14.38-3.64c1.21-.27,2.44-.47,3.68-.66l3.7-.57,3.74-.41c1.25-.14,2.5-.26,3.75-.32l3.78-.23c1.26,0,2.53,0,3.8,0,2.55-.06,5.08.1,7.63.2,1.28,0,2.54.22,3.81.33s2.54.23,3.81.42c2.52.39,5.06.69,7.57,1.24l3.76.8,3.72,1c1.25.31,2.49.67,3.7,1.09l3.68,1.2a101.22,101.22,0,0,1,14.18,6.3A98.37,98.37,0,0,1,373.21,568l3.05,2.5,1.51,1.25,1.44,1.35,2.87,2.69c.93.93,1.82,1.9,2.73,2.86a102.37,102.37,0,0,1,17.1,25.87,137,137,0,0,1,5.58,14c.85,2.34,1.52,4.71,2.25,7.06s1.33,4.72,1.91,7.09c4.74,18.88,6.74,37.56,9.71,55.64,1.39,9.06,3,18,5.27,26.64a130.14,130.14,0,0,0,9.05,25c1,1.93,2,3.93,3.11,5.8.56.94,1.1,1.9,1.68,2.84s1.19,1.86,1.81,2.79c2.49,3.72,5.26,7.45,8,11.4a80.67,80.67,0,0,1,7.33,12.7,66.6,66.6,0,0,1,4.64,14,107.67,107.67,0,0,1,2,28.55c-.52,9.42-1.79,18.68-3.14,27.88l-2.29-.23c.5-9.27.9-18.54.56-27.69s-1.41-18.22-4.06-26.68a62.59,62.59,0,0,0-5.11-12.07,71.76,71.76,0,0,0-7.45-10.86c-2.81-3.53-5.87-7-8.84-10.82-.75-1-1.48-1.91-2.21-2.9s-1.4-2-2.1-3c-1.45-2-2.66-4.11-4-6.19a143.19,143.19,0,0,1-11.77-26.62c-3-9.14-5.39-18.4-7.45-27.58-4.06-18.39-7.1-36.62-12.4-53.54a119.76,119.76,0,0,0-10.13-23.8,80.41,80.41,0,0,0-15.22-19.24c-.75-.68-1.47-1.38-2.22-2.05L364,590.64l-1.17-1-1.23-.89c-.82-.6-1.64-1.19-2.45-1.8a104.73,104.73,0,0,0-10.42-6.33,114.54,114.54,0,0,0-11.17-5.18c-1.95-.69-3.85-1.51-5.84-2.1l-3-1-3-.83c-2-.63-4-1-6.08-1.54-1-.24-2.05-.39-3.08-.6s-2.06-.42-3.1-.54c-2.08-.3-4.16-.67-6.26-.83-1.05-.09-2.09-.22-3.15-.3l-3.19-.18A141.71,141.71,0,0,0,275,568.7a190.22,190.22,0,0,0-26.24,5.48C240,576.62,231.3,579.7,222.5,583Z" style="fill: #603813"/>
    <path d="M197,495a21.81,21.81,0,0,0,6.93,3.72,27.09,27.09,0,0,0,7.61,1.34,76.22,76.22,0,0,0,16-1.44l8.31-1.5c2.86-.5,5.74-.95,8.63-1.33,5.77-.8,11.56-1.35,17.36-1.72,23.23-1.5,46.34-.13,68.93,1.69,5.6.48,11.42.91,17.55,1.87a84.24,84.24,0,0,1,18.89,5,55.39,55.39,0,0,1,17.92,11.62,44.61,44.61,0,0,1,7.06,8.95,41.45,41.45,0,0,1,4.51,10.87c1.79,7.5,1.5,14.22,1.25,20L397,571.13l-2,34.06c-1.38,22.68-3.11,45.38-5.16,68-.53,5.56-.93,11-.92,16.21a55.14,55.14,0,0,0,1.88,14.89,34.2,34.2,0,0,0,1.14,3.37,31.11,31.11,0,0,0,1.51,3.13,26.52,26.52,0,0,0,4,5.6,44.72,44.72,0,0,0,12.1,8.7c4.68,2.48,9.82,4.6,15.07,6.87a115.25,115.25,0,0,1,15.85,8,42.05,42.05,0,0,1,13.53,13,35.08,35.08,0,0,1,3.93,8.68,45.82,45.82,0,0,1,1.72,9,91.92,91.92,0,0,1-.35,17.6c-.57,5.69-1.26,11.37-2.16,17a297.09,297.09,0,0,1-7.31,33.38l-2.23-.54a293.47,293.47,0,0,0,4.7-33.43c.49-5.59.8-11.2,1-16.8a85.15,85.15,0,0,0-.77-16.31,32.47,32.47,0,0,0-5.43-14A33.16,33.16,0,0,0,435.71,748a104.37,104.37,0,0,0-14.91-6.33c-5.27-1.91-10.75-3.76-16.25-6.24a56.54,56.54,0,0,1-15.88-10.25,39,39,0,0,1-6.33-7.79,46.83,46.83,0,0,1-2.43-4.38c-.64-1.51-1.36-3-1.85-4.57a68.42,68.42,0,0,1-3.47-18.53c-.36-6.06-.23-12,0-17.72q1.51-33.88,2-67.67l.15-16.92c0-5.63-.05-11.27-.1-16.91l-.26-16.89c-.1-5.49-.48-10.23-1.66-13.7a18,18,0,0,0-2.25-4.64,24,24,0,0,0-3.69-4.15,35.76,35.76,0,0,0-10.58-6.46c-8.28-3.37-18.64-4.65-30-6.21-22.39-3.15-44.39-6.6-66.47-8.29-2.77-.23-5.52-.39-8.29-.58s-5.53-.29-8.29-.36c-1.38,0-2.77-.11-4.15-.13l-4.16-.05c-2.79-.06-5.69,0-8.62-.1s-5.9-.24-8.9-.59a54.33,54.33,0,0,1-9-1.77,32.11,32.11,0,0,1-8.5-3.81,23.34,23.34,0,0,1-6.56-6.42Z" style="fill: #603813"/>
    <path d="M270.09,373.93l-30.35,2.53-15.17,1.21a100.64,100.64,0,0,0-14.95,2.15,48.26,48.26,0,0,0-7.1,2.31,30.21,30.21,0,0,0-6.36,3.68c-4,2.89-6.62,7.11-8.76,11.65-4.43,9.11-8.8,18.29-13.58,27.26l-.18-.08c3.74-9.46,7.84-18.73,12-28a44.6,44.6,0,0,1,3.8-6.79,30.83,30.83,0,0,1,2.56-3l1.47-1.33c.48-.46,1-.81,1.55-1.22a31.91,31.91,0,0,1,6.87-3.76,51.32,51.32,0,0,1,7.42-2.21,101.94,101.94,0,0,1,15.21-1.88l15.2-.92,30.41-1.73Z" style="fill: #603813"/>
    <path d="M578.85,48.85A56.68,56.68,0,0,1,608.63,34.2a55.8,55.8,0,0,1,16.82-.26,57,57,0,0,1,8.25,1.79c2.7.81,5.33,1.79,7.95,2.79s5.22,2,7.86,2.93,5.32,1.66,8,2.33A111.84,111.84,0,0,0,674,46.42c11.12,1.09,22.33.8,33.53.74v.1c-11.17.63-22.41,1.07-33.62.15a111.67,111.67,0,0,1-16.65-2.67c-2.72-.71-5.42-1.51-8.08-2.45s-5.24-2-7.85-3-5.21-2-7.87-2.84a57.94,57.94,0,0,0-8.13-1.84,55.65,55.65,0,0,0-16.65.11,56.45,56.45,0,0,0-29.79,14.23Z" style="fill: #603813"/>
    <path d="M575.53,86.16a1.5,1.5,0,0,0,0-3,1.5,1.5,0,0,0,0,3Z" style="fill: #603813"/>
    <path d="M567,36.5c-5.17-4.31-10.31-8.68-15.51-12.94a45.11,45.11,0,0,0-8.37-5.5,22.26,22.26,0,0,0-4.67-1.68A15.34,15.34,0,0,0,524.69,20a49.06,49.06,0,0,0-6.8,7.29c-2.13,2.59-4.19,5.29-6.56,7.72a32.2,32.2,0,0,1-3.82,3.37,20.91,20.91,0,0,1-4.42,2.49l0-.09a26.41,26.41,0,0,0,7.77-6.25c2.23-2.49,4.22-5.19,6.28-7.86a44.17,44.17,0,0,1,7-7.44,17,17,0,0,1,9.42-3.92,16.39,16.39,0,0,1,5.13.42,22.67,22.67,0,0,1,4.79,1.8,45.75,45.75,0,0,1,8.39,5.7C556.94,27.55,562,32,567.06,36.43Z" style="fill: #603813"/>
    <path d="M484.59,42.65a90.7,90.7,0,0,0-18.35-3,63.88,63.88,0,0,0-9.28,0,26.24,26.24,0,0,0-8.88,2.21,12.35,12.35,0,0,0-6.3,6.15c-1.2,2.75-1.27,5.87-1.27,9a110.64,110.64,0,0,0,1.56,18.51l-.09,0a80.71,80.71,0,0,1-2.47-18.52c0-3.09,0-6.38,1.36-9.37a13.33,13.33,0,0,1,6.87-6.47A27.31,27.31,0,0,1,456.91,39a64.93,64.93,0,0,1,9.36.17,90.56,90.56,0,0,1,18.34,3.42Z" style="fill: #603813"/>
    <path d="M246.54,548.91c1,1.31,1.83,2.67,2.67,4.07a48.89,48.89,0,0,1,2.27,4.38,35.29,35.29,0,0,1,3,9.87,28.64,28.64,0,0,1,.23,5.51,25.37,25.37,0,0,1-.35,2.86L254,577c-.12.48-.27,1-.41,1.43a25,25,0,0,1-6.19,10.26,34.57,34.57,0,0,1-9.45,6.62,74.63,74.63,0,0,1-9.6,3.86c-3.09,1-6.07,1.93-8.83,2.9a56.66,56.66,0,0,0-7.56,3,24.67,24.67,0,0,0-3.07,1.73,16,16,0,0,0-2.5,1.94l-.59.51a7,7,0,0,0-.53.56c-.34.39-.72.74-1,1.13s-.62.86-1,1.26l-.24.31-.21.35-.42.69a10.28,10.28,0,0,0-.81,1.42c-.24.51-.52,1-.76,1.51-.4,1.09-.91,2.12-1.23,3.3s-.66,2.36-1,3.57-.52,2.49-.63,3.81a59.82,59.82,0,0,0,.16,16.35c.42,2.73,1,5.65,1.69,8.59s1.48,5.9,2.28,8.93A187.49,187.49,0,0,1,206.45,680a67.53,67.53,0,0,1,.43,20.55,52.92,52.92,0,0,1-7.17,19.53,51.28,51.28,0,0,1-6.25,8.25,61.57,61.57,0,0,1-7.5,6.77c-5.24,4-10.66,7.24-15.7,10.66a136,136,0,0,0-14.35,11.28,136.11,136.11,0,0,0-23.63,28.23l-1.57-.86a129.2,129.2,0,0,1,21.22-31.36,130.61,130.61,0,0,1,13.94-13.17c4.95-4,10-7.68,14.31-11.68A45.06,45.06,0,0,0,190.58,715,41.79,41.79,0,0,0,195,699.16a55.69,55.69,0,0,0-1.5-16.67,176.79,176.79,0,0,0-5.16-17.25c-1-2.93-2-5.94-3-9s-2-6.19-2.81-9.58a77.16,77.16,0,0,1-2.27-20.86c0-1.8.3-3.64.49-5.47a50,50,0,0,1,1.12-5.55,46.33,46.33,0,0,1,1.81-5.53c.38-.91.83-1.81,1.26-2.71.22-.45.41-.91.67-1.35l.8-1.31a36.75,36.75,0,0,1,3.59-5c.68-.78,1.44-1.51,2.16-2.26.38-.36.73-.75,1.13-1.09l1.22-1a37.38,37.38,0,0,1,10.37-5.95c7-2.67,13.57-3.62,19.43-4.75s11.06-2.31,14.79-4.72,6.38-6.34,7.12-11.78a35.94,35.94,0,0,0,.14-8.58c-.13-1.49-.32-3-.59-4.51s-.56-3-.85-4.6Z" style="fill: #603813"/>
    <path d="M141.09,481.06a102.59,102.59,0,0,0-16.18,5.45,99.74,99.74,0,0,0-15,8,88.67,88.67,0,0,0-24.33,23.74l-.08-.05a86.93,86.93,0,0,1,24-24.35,81.32,81.32,0,0,1,15.1-8.25A74,74,0,0,1,141.07,481Z" style="fill: #603813"/>
    <path d="M80.12,588.43a26.56,26.56,0,0,0-11.77,8.12A37.76,37.76,0,0,0,61.24,609a58.46,58.46,0,0,0-2.66,14.28c-.38,4.85-.37,9.74-.34,14.62h-.1c-.16-4.88-.31-9.77-.06-14.66a59.1,59.1,0,0,1,2.4-14.5,34.2,34.2,0,0,1,7.12-12.89,23.91,23.91,0,0,1,12.49-7.56Z" style="fill: #603813"/>
    <path d="M285.44,507.39c-23.61-.82-47.06-1.09-70.44-.37-11.68.43-23.34,1-35,1.87l-8.71.69c-2.9.27-5.81.5-8.7.8-5.81.56-11.59,1.14-17.27,1.91s-11.28,1.63-16.73,2.83a109.25,109.25,0,0,0-15.82,4.51c-1.26.48-2.51,1-3.73,1.5s-2.43,1.07-3.62,1.64S103.13,524,102,524.6s-2.16,1.29-3.19,2-2.08,1.42-3,2.24c-.48.4-1,.78-1.46,1.19l-1.36,1.28-.69.64-.63.68L90.34,534l-1.15,1.43-.57.72c-.18.24-.34.5-.52.74l-1,1.49-.89,1.54-.45.77-.36.79c-.24.53-.51,1-.73,1.58a24.35,24.35,0,0,0-1.57,6.43,18.61,18.61,0,0,0,.65,6.23,14,14,0,0,0,.54,1.49,11.21,11.21,0,0,0,.64,1.48,13.56,13.56,0,0,0,.83,1.48l.45.74.51.72c2.76,3.9,6.87,7.53,11.33,11.1l6.94,5.49a90.91,90.91,0,0,1,7.12,6.2,54.93,54.93,0,0,1,6.48,7.5,33.47,33.47,0,0,1,4.81,9.51,22.72,22.72,0,0,1,.46,11.66,21.69,21.69,0,0,1-2,5.39,38.13,38.13,0,0,1-2.7,4.42c-.94,1.34-1.89,2.58-2.83,3.77s-1.91,2.37-2.88,3.55c-2,2.34-4,4.61-6,6.84a173.31,173.31,0,0,1-13.07,12.65c-2.28,2-4.62,3.91-7,5.78s-4.75,3.64-7,5.39c-4.47,3.51-8.58,7.1-10.72,11.37a20.57,20.57,0,0,0-2.17,6.92,30.43,30.43,0,0,0,.2,7.72c.75,5.29,2.65,10.67,4.72,16.07,4.29,10.81,8.91,22.27,10.34,34.53A54,54,0,0,1,81.88,756a45.24,45.24,0,0,1-7.66,16.9,43.88,43.88,0,0,1-6.28,6.85,47.69,47.69,0,0,1-7.56,5.31,111.54,111.54,0,0,1-16.49,7.1c-5.57,2-11.12,3.86-16.38,6.3a37.15,37.15,0,0,0-13.81,10l-1.2-.9c3.6-4.91,8.67-8.54,14-11.25s10.85-4.93,16.28-7.17a108.81,108.81,0,0,0,15.64-7.49,43.5,43.5,0,0,0,6.68-5.1,39.38,39.38,0,0,0,5.38-6.37,40.23,40.23,0,0,0,6.2-15.32,48.31,48.31,0,0,0,0-16.62A86.5,86.5,0,0,0,72.2,721.9c-2-5.41-4.39-10.61-6.79-16.11s-4.63-11.23-5.78-17.59a38.48,38.48,0,0,1-.57-9.88,29.09,29.09,0,0,1,2.72-10A32.44,32.44,0,0,1,67.55,660a75.85,75.85,0,0,1,6.88-6.42c2.33-2,4.63-3.78,6.81-5.63s4.34-3.74,6.43-5.69a168.8,168.8,0,0,0,12-12.27c1.88-2.15,3.7-4.33,5.46-6.57.88-1.12,1.75-2.25,2.59-3.39s1.67-2.27,2.38-3.36c3-4.49,3.65-7.73,2.34-11.84s-4.71-8.18-8.6-11.76-8.64-6.8-13.47-10.43-9.93-7.54-14.27-13.09l-.81-1-.76-1.11c-.51-.73-1-1.52-1.43-2.32a20.06,20.06,0,0,1-1.24-2.5A24,24,0,0,1,70.74,560,32.54,32.54,0,0,1,69,548.82,38.37,38.37,0,0,1,71.09,538c.3-.84.65-1.66,1-2.49l.51-1.23.6-1.18c.41-.78.81-1.56,1.23-2.34l1.38-2.21c.23-.36.46-.73.71-1.09l.77-1,1.55-2.07,1.68-1.93.85-1,.89-.9,1.81-1.8c.62-.58,1.27-1.12,1.91-1.67A46,46,0,0,1,90,514c1.37-1,2.82-1.87,4.24-2.76s2.83-1.65,4.29-2.35,2.91-1.45,4.39-2.08,3-1.24,4.47-1.8c12-4.49,24.31-6.4,36.33-7.62s23.86-1.56,35.79-1.74,23.81.09,35.68.82a447,447,0,0,1,70.49,9.43Z" style="fill: #603813"/>
    <path d="M224.54,349.92a88.37,88.37,0,0,0-42.14-2.65,76.56,76.56,0,0,0-10.31,2.58,16.46,16.46,0,0,0-4.63,2.36,10.78,10.78,0,0,0-3.19,4c-1.5,3.14-1.8,6.74-1.82,10.25a99.42,99.42,0,0,0,.56,10.62c.62,7.07,1.61,14.2,1.12,21.4a44.06,44.06,0,0,1-2,10.59,32.54,32.54,0,0,1-2.1,5,27.87,27.87,0,0,1-3,4.54,23,23,0,0,1-8.67,6.45A42.11,42.11,0,0,1,138,427.89c-3.53.59-7.08,1-10.57,1.58a43.28,43.28,0,0,0-10.18,2.81A40.68,40.68,0,0,0,101,445.46a54.23,54.23,0,0,0-9.06,19.06,84.11,84.11,0,0,0-2.5,21.09,176.16,176.16,0,0,0,1.41,21.28,231.58,231.58,0,0,0,8.48,41.8A154.19,154.19,0,0,0,117,587.39l-.08.06a154.27,154.27,0,0,1-18-38.67A233.24,233.24,0,0,1,90.3,507a178.88,178.88,0,0,1-1.49-21.34,85.07,85.07,0,0,1,2.45-21.25A54.79,54.79,0,0,1,100.37,445a41.5,41.5,0,0,1,16.52-13.49,44.68,44.68,0,0,1,10.35-2.91c3.53-.62,7.07-1,10.57-1.62A41.44,41.44,0,0,0,148,424.18a24.52,24.52,0,0,0,4.52-2.62,24.23,24.23,0,0,0,3.77-3.6,27.49,27.49,0,0,0,2.88-4.37,32.18,32.18,0,0,0,2-4.84,42.36,42.36,0,0,0,2-10.35c.49-7.06-.49-14.14-1.12-21.24a103.41,103.41,0,0,1-.47-10.72c.06-3.56.38-7.27,2-10.6A11.48,11.48,0,0,1,167,351.6a16.94,16.94,0,0,1,4.86-2.44,78.41,78.41,0,0,1,10.43-2.52,86,86,0,0,1,42.29,3.19Z" style="fill: #603813"/>
    <path d="M396.75,174.05a35.66,35.66,0,0,1,5,9.42,57.31,57.31,0,0,1,2.54,10.43,73.72,73.72,0,0,1-.16,21.44,93.5,93.5,0,0,1-2.34,10.49c-1,3.44-2.19,6.8-3.5,10.12-2.66,6.61-5.82,13-9,19.26s-6.36,12.65-10.43,18.55a42.54,42.54,0,0,1-7,8.12,32.76,32.76,0,0,1-9.06,5.84c-.84.33-1.64.74-2.5,1l-2.57.81c-1.74.42-3.47.87-5.24,1.12a96.71,96.71,0,0,1-10.57,1c-3.53.2-7.05.32-10.56.61a71.68,71.68,0,0,0-10.41,1.58l-.07-.29a71.92,71.92,0,0,1,10.43-1.89c3.51-.39,7-.61,10.54-.91a92.61,92.61,0,0,0,10.43-1.33c1.72-.29,3.4-.77,5.07-1.22l2.46-.86c.82-.27,1.58-.69,2.37-1a31.22,31.22,0,0,0,8.52-5.74,41.16,41.16,0,0,0,6.6-7.95c3.83-5.81,6.82-12.17,9.89-18.52s6-12.72,8.41-19.26q1.86-4.9,3.28-9.91a93.38,93.38,0,0,0,2.37-10.12,81.16,81.16,0,0,0,1-20.71,55.91,55.91,0,0,0-1.77-10.26,38.57,38.57,0,0,0-3.94-9.66Z" style="fill: #603813"/>
    <path d="M411.93,170.23q1.31,6.77,2.29,13.57c.68,4.54,1.23,9.11,1.58,13.72a82.08,82.08,0,0,1-.12,13.93,62.84,62.84,0,0,1-1.11,6.93,46,46,0,0,1-2,6.77A32.38,32.38,0,0,1,405,237a25.1,25.1,0,0,1-5.74,4.17,36,36,0,0,1-6.51,2.62c-4.46,1.3-9,2-13.22,3.61a26.25,26.25,0,0,0-6,3.12,23.38,23.38,0,0,0-4.82,4.76l-.25-.18a24.05,24.05,0,0,1,4.71-5.06,26.48,26.48,0,0,1,6-3.47c4.3-1.79,8.83-2.75,13.1-4.21a35.91,35.91,0,0,0,6.14-2.69,23.77,23.77,0,0,0,5.2-4.05,30.06,30.06,0,0,0,6.74-11.3,49.33,49.33,0,0,0,2.4-13.13c.14-2.24.22-4.49.2-6.74s0-4.52-.11-6.79c-.31-9.06-1.13-18.22-1.18-27.41Z" style="fill: #603813"/>
    <path d="M688.26,208.26c-2.36,8-5,15.85-5.51,24a66.61,66.61,0,0,0,2.72,24.19,57.33,57.33,0,0,0,11.84,21.33,40.66,40.66,0,0,0,9.4,7.89,28.19,28.19,0,0,0,11.61,3.91l0,.2a28.64,28.64,0,0,1-11.89-3.59,41.54,41.54,0,0,1-9.83-7.73A58.68,58.68,0,0,1,683.94,257a59.43,59.43,0,0,1-3.18-24.87c.92-8.43,3.89-16.35,7.31-23.89Z" style="fill: #603813"/>
    <path d="M930.74,903c-5.45,1-10.9,3.82-14,10.47a4.54,4.54,0,0,1-5.57,2.48c-8.2-2.84-26.07-4.28-26.81,36.7,0,0,1.27,45-13.26,40.42a4.64,4.64,0,0,1-3.21-4.43v-55.2a4.66,4.66,0,0,0-3.73-4.55c-3.68-.77-9.08-2.66-11.43-7.23,0,0-8.64-11.84-11.56,0a4.73,4.73,0,0,0,.34,3.18c.93,2,1.47,6.19-7.48,9.12a4.59,4.59,0,0,1-4.26-.83c-1.78-1.4-4.8-.61-5.47,19.57v44.9a4.53,4.53,0,0,1-.19,1.32c-1,3.22-5.57,16.09-14.46.83a4.63,4.63,0,0,1-.57-3.11c1.3-7.68,6.12-40.3-6.65-33.51a4.64,4.64,0,0,0-.74.51c-2.13,1.76-14,11.17-17.1,4.56,0,0-5.41-8.14-8.5,14.17a5.58,5.58,0,0,0,0,.7c0,3.62.19,34.83-7.44,30.9a4.49,4.49,0,0,1-2.3-4.28c.39-6.67,1.52-27.67,1-41a4.63,4.63,0,0,0-6.3-4.15c-3.46,1.34-9.19,2.23-18.66,1.75a3.66,3.66,0,0,1-.74-.1c-1.88-.41-11.78-2-13.22,9.48,0,.14,0,.28,0,.42,0,1-.72,7.81-14.37,10.9a4.79,4.79,0,0,1-4.15-1.19c-2.31-2-6.37-34.71-8.27,51.6,0,.82.57-7.3-.6,13.75-.23,4.22-10.26,19.44-9.85-13.75l-.55-42.21a4.63,4.63,0,0,0-8-3.15,15.6,15.6,0,0,1-4.36,3.49,4.67,4.67,0,0,0-2.57,3.32l-5.27,29.86a4.27,4.27,0,0,1-.36,1.15c-.94,2-4.39,7.43-10.44-2.1a4.67,4.67,0,0,1-.68-3l5.45-44.77a4.69,4.69,0,0,0-.43-2.58c-1.46-3-6-7.52-16.48,14.6a3.45,3.45,0,0,0-.14.34c-1.12,2.94-16.78,43.38-16,8.82,0,0-3.59,71.68-6.49,16.47L622,964.46a4.61,4.61,0,0,1,1.41-3.58c13.54-13.07,115.39-107.53,206.85-84A4.39,4.39,0,0,0,832,877c7.1-.91,57-6.24,100.15,17.38A4.64,4.64,0,0,1,930.74,903Z" style="fill: #2f4858"/>
    <path d="M32.67,896.2s11.55-6.3,18.59,25.94c0,0,1.85,5.92,12.59,11.11,0,0,4.08,8.15,5.93,30.38a227.91,227.91,0,0,0,12.56,56.44,4.88,4.88,0,0,0,6.71,2.84c.17-.09.33-.19.5-.3,7.9-5.38-2.38-32.4,1.06-33.63.44-.16,1.25,0,2.88,2.07,0,0,14.08-1.11,20-5.19a14.4,14.4,0,0,1,3.43,4.83,26.88,26.88,0,0,0,6.93,9.51,31.53,31.53,0,0,1,10.39,20.49s-9.45,34-2.86,22.35c1.33-2.35,13.16-3,13-5.67-.83-11-2.71-44.48,6.95-30.76,0,0,5.56,7.41,11.86.74,0,0,6.67,0,8.15,15.56,0,0-3.4,74.14,6.74,72.54a4.88,4.88,0,0,1,3,.69c2,1.06,5.29.61,6.55-12.46,0,0-4.81-75.22,8.15-61.51,0,0,6.67,4.82,9.64-3.7,0,0,0-10.38,11.11-8.89,0,0,1.85,1.48,11.86-7.41,0,0,7.78-8.16,17,2.22,0,0-1.92,42.67,5.57,34a7.58,7.58,0,0,0,1.75-5.21c-.37-11.22-.85-57.76,17.13-37.05,0,0,20,17.18,17.79,23.85,0,0-.74,40.38,8.89,25.19,0,0,1.48-27,14.82-12.59,0,0,10.37,3.7,5.19-13.34,0,0,1-24.08,10.49-15.56l19.92-37L120.17,886.57Z" style="fill: #410000"/>
    <path d="M38.32,903c5.45,1,10.9,3.82,14,10.47A4.69,4.69,0,0,0,58,915.93c6.12-2.09,9.91-.38,12.78,0,3.84.48,8.8,5.36,13.2,25.61-.52,7.25-4.09,62.55,12.23,67.18l.06,0a7,7,0,0,0,8.71-7.23l-3.81-68a4.65,4.65,0,0,1,3.73-4.55c3.68-.77,9.08-2.66,11.43-7.23,0,0,8.63-11.84,11.56-.06a4.82,4.82,0,0,1-.34,3.19c-.93,2-1.48,6.19,7.48,9.12a4.59,4.59,0,0,0,4.26-.83c1.78-1.4,4.8-.61,5.47,19.57v44.9a4.53,4.53,0,0,0,.19,1.32c1,3.22,5.57,16.1,14.46.82a4.58,4.58,0,0,0,.57-3.09c-1.29-7.66-6.13-40.34,6.66-33.51a3.82,3.82,0,0,1,.72.49c2.1,1.74,14,11.19,17.11,4.57,0,0,5.41-8.15,8.5,14.19a5,5,0,0,1,0,.67c0,3.56-.2,34.85,7.44,30.91a4.51,4.51,0,0,0,2.3-4.29c-.39-6.67-1.52-27.66-1.05-41a4.63,4.63,0,0,1,6.3-4.15c3.45,1.34,9.19,2.23,18.66,1.75a3.66,3.66,0,0,0,.74-.1c1.87-.41,11.78-2,13.22,9.48,0,.14,0,.28,0,.42,0,1,.72,7.81,14.36,10.89a4.79,4.79,0,0,0,4.16-1.18c2.3-2,7.58,3.32,9.51,88.1a9.46,9.46,0,0,0,2.57,6.38c3,3.08,7.5,3.52,7.17-23l0-62.13a4.63,4.63,0,0,1,8-3.15,15.71,15.71,0,0,0,4.38,3.5,4.59,4.59,0,0,1,2.54,3.28l5.27,29.89a4.29,4.29,0,0,0,.37,1.15c.94,2,4.39,7.43,10.44-2.1a4.61,4.61,0,0,0,.67-3l-5.44-44.77a4.69,4.69,0,0,1,.43-2.58c1.46-3,6-7.52,16.48,14.61l.14.32c1.09,2.85,16.78,43.43,16,8.83,0,0,3.59,71.68,6.49,16.47l2.8-53.12a4.61,4.61,0,0,0-1.41-3.58c-13.54-13.07-115.4-107.53-206.85-84a4.35,4.35,0,0,1-1.72.11c-7.05-.9-57-6.25-100.16,17.38A4.64,4.64,0,0,0,38.32,903Z" style="fill: #2f4858"/>
    <polygon points="345.68 960.88 621.97 964.46 812.04 839.16 204.44 839.16 262.06 938.11 345.68 960.88" style="fill: #2f4858"/>
    <path d="M486.42,335.11a4.57,4.57,0,0,1,.46-.57,5.79,5.79,0,0,1,.51-.48,5,5,0,0,1,1.13-.76,5.17,5.17,0,0,0-.75,1.07c-.09.19-.18.38-.26.58a3.71,3.71,0,0,0-.18.57Z"/>
    <path d="M484.83,333.77a5.47,5.47,0,0,1,.55-.74q.28-.33.6-.63a7.39,7.39,0,0,1,1.37-1,7.28,7.28,0,0,0-1,1.32,5.26,5.26,0,0,0-.36.71,5.18,5.18,0,0,0-.25.72Z"/>
    <path d="M483.11,332.5a4.1,4.1,0,0,1,.49-.88,6.1,6.1,0,0,1,.61-.72,5.44,5.44,0,0,1,1.51-1,5.22,5.22,0,0,0-1.11,1.34,4.81,4.81,0,0,0-.35.77,3.4,3.4,0,0,0-.17.76Z"/>
    <path d="M481.21,331.16a4.72,4.72,0,0,1,.4-.91,6.12,6.12,0,0,1,.54-.79,4,4,0,0,1,1.48-1.09,3.65,3.65,0,0,0-1.06,1.36,5.79,5.79,0,0,0-.27.8,3.8,3.8,0,0,0-.1.79Z"/>
    <path d="M479.07,329.66a6,6,0,0,1,.51-.9,7.9,7.9,0,0,1,.61-.79,5.37,5.37,0,0,1,1.51-1.23,5.57,5.57,0,0,0-1.1,1.51,8.93,8.93,0,0,0-.35.85,6,6,0,0,0-.23.85Z"/>
    <path d="M477.43,328.26a4.56,4.56,0,0,1,.46-.91,6.49,6.49,0,0,1,.59-.79,4.31,4.31,0,0,1,1.54-1.11,3.89,3.89,0,0,0-1.13,1.4,5,5,0,0,0-.32.81,4.54,4.54,0,0,0-.17.83Z"/>
    <path d="M475.1,326.9a4.52,4.52,0,0,1,.32-1A4.32,4.32,0,0,1,476,325a4,4,0,0,1,1.54-1.23,4,4,0,0,0-1.11,1.48,3.83,3.83,0,0,0-.25.86,3,3,0,0,0,0,.83Z"/>
    <path d="M472.44,325.89a10,10,0,0,1,1-2.17,5.66,5.66,0,0,1,1.6-1.7,5.27,5.27,0,0,0-1.15,1.92,9.81,9.81,0,0,0-.49,2.15Z"/>
    <path d="M470,324.78a10.22,10.22,0,0,1,1-2.27,6.45,6.45,0,0,1,1.56-1.84,6,6,0,0,0-1.1,2.05,9.22,9.22,0,0,0-.45,2.22Z"/>
    <path d="M467.15,323.65a9,9,0,0,1,.4-1.33,12.53,12.53,0,0,1,.57-1.23,7.49,7.49,0,0,1,1.64-2.09,7.23,7.23,0,0,0-1.18,2.29,8.82,8.82,0,0,0-.3,1.23,7.72,7.72,0,0,0-.14,1.24Z"/>
    <path d="M463.94,322.62a9.83,9.83,0,0,1,.74-2.66,6.33,6.33,0,0,1,1.55-2.18,6.16,6.16,0,0,0-1.08,2.34,9.13,9.13,0,0,0-.19,1.26,7.51,7.51,0,0,0,0,1.25Z"/>
    <path d="M460.88,321.86a7.57,7.57,0,0,1,.15-1.38,7.27,7.27,0,0,1,.36-1.29,6,6,0,0,1,1.38-2.23,5.88,5.88,0,0,0-.9,2.36,8.52,8.52,0,0,0-.1,1.24,9,9,0,0,0,.1,1.2Z"/>
    <path d="M457.93,321.4a12.89,12.89,0,0,1,.32-2.72,6.16,6.16,0,0,1,1.06-2.46,6,6,0,0,0-.57,2.52,12.87,12.87,0,0,0,.18,2.57Z"/>
    <path d="M454.38,320.81a8.06,8.06,0,0,1,0-1.3,10.33,10.33,0,0,1,.14-1.26,8.68,8.68,0,0,1,.78-2.37,8.2,8.2,0,0,0-.28,2.41,9.4,9.4,0,0,0,.11,1.19,7.93,7.93,0,0,0,.23,1.14Z"/>
    <path d="M450.65,320.75a8.34,8.34,0,0,1-.23-1.37,7.73,7.73,0,0,1,0-1.36,5.59,5.59,0,0,1,.73-2.55,5.37,5.37,0,0,0-.23,2.54,8.4,8.4,0,0,0,.26,1.23,8,8,0,0,0,.44,1.16Z"/>
    <path d="M447,321a11.93,11.93,0,0,1-.58-2.8,5.39,5.39,0,0,1,.4-2.76,5.18,5.18,0,0,0,.09,2.68,11.12,11.12,0,0,0,1,2.47Z"/>
    <path d="M443.33,321.59a7.85,7.85,0,0,1-1.07-2.82,5.06,5.06,0,0,1,.31-2.89,4.79,4.79,0,0,0,.17,2.76,7.94,7.94,0,0,0,.59,1.25,6.4,6.4,0,0,0,.79,1.08Z"/>
    <path d="M439.61,322.13a7.19,7.19,0,0,1-.72-1.33,7.93,7.93,0,0,1-.44-1.41,6,6,0,0,1-.12-1.46,5.62,5.62,0,0,1,.23-1.41,5.46,5.46,0,0,0,0,1.4,5.83,5.83,0,0,0,.35,1.32,6.61,6.61,0,0,0,.63,1.21,7.19,7.19,0,0,0,.81,1Z"/>
    <path d="M436.15,323.8a12.24,12.24,0,0,1-1.37-2.78,6.84,6.84,0,0,1-.36-3,6.64,6.64,0,0,0,.82,2.81,13.26,13.26,0,0,0,.77,1.23,12.36,12.36,0,0,0,.91,1.1Z"/>
    <path d="M432.77,325.2a12,12,0,0,1-.93-1.39,14.26,14.26,0,0,1-.72-1.47,7.62,7.62,0,0,1-.64-3.17,7.46,7.46,0,0,0,1.08,2.94,14.66,14.66,0,0,0,.9,1.28,11.33,11.33,0,0,0,1,1.13Z"/>
    <path d="M429.3,327.08a13.69,13.69,0,0,1-1.43-2.4,5.83,5.83,0,0,1-.64-2.67,5.58,5.58,0,0,0,1.07,2.42,12.64,12.64,0,0,0,1.74,2Z"/>
    <path d="M426,329.14a13.34,13.34,0,0,1-1.67-2,5.62,5.62,0,0,1-1-2.32,5.3,5.3,0,0,0,1.4,2,11.71,11.71,0,0,0,1.9,1.5Z"/>
    <path d="M423.12,331.39a9.61,9.61,0,0,1-2.05-2,5.57,5.57,0,0,1-1.11-2.51,5.33,5.33,0,0,0,1.48,2.18,9,9,0,0,0,1,.8,8.18,8.18,0,0,0,1.11.62Z"/>
    <path d="M420,334.15a15.41,15.41,0,0,1-1.54-2,8.83,8.83,0,0,1-1.05-2.27,8.51,8.51,0,0,0,1.45,2,13.32,13.32,0,0,0,1.8,1.57Z"/>
    <path d="M417.11,337a9,9,0,0,1-1.55-1.66,4.77,4.77,0,0,1-.9-2,4.62,4.62,0,0,0,1.27,1.68,8,8,0,0,0,1.72,1.15Z"/>
    <path d="M572.8,326.81a4.85,4.85,0,0,0-.21-.56,4.37,4.37,0,0,0-.29-.57,5.14,5.14,0,0,0-.78-1,5.4,5.4,0,0,1,1.16.71,4.6,4.6,0,0,1,.52.47,5.17,5.17,0,0,1,.49.54Z"/>
    <path d="M574.31,325.38a5.46,5.46,0,0,0-.28-.71c-.12-.23-.24-.47-.39-.7a7.25,7.25,0,0,0-1-1.27,7.53,7.53,0,0,1,1.41.94,7.23,7.23,0,0,1,.63.61,6.09,6.09,0,0,1,.57.71Z"/>
    <path d="M575.92,323.89a3.05,3.05,0,0,0-.21-.75,4.35,4.35,0,0,0-.37-.75,4.93,4.93,0,0,0-1.17-1.29,5,5,0,0,1,1.55,1,4.75,4.75,0,0,1,.64.7,3.78,3.78,0,0,1,.52.86Z"/>
    <path d="M577.75,322.41a4,4,0,0,0-.14-.79,3.7,3.7,0,0,0-.3-.78,3.51,3.51,0,0,0-1.11-1.32,3.85,3.85,0,0,1,1.52,1,5.44,5.44,0,0,1,.58.76,5,5,0,0,1,.43.9Z"/>
    <path d="M579.87,321a8,8,0,0,0-.26-.84,6.28,6.28,0,0,0-.39-.83,5.31,5.31,0,0,0-1.16-1.47,5.65,5.65,0,0,1,1.56,1.17,7.79,7.79,0,0,1,.64.76,6.92,6.92,0,0,1,.55.88Z"/>
    <path d="M581.43,319.42a4.16,4.16,0,0,0-.2-.81,5.87,5.87,0,0,0-.36-.81,3.9,3.9,0,0,0-1.18-1.35,4.21,4.21,0,0,1,1.58,1.05,5.57,5.57,0,0,1,.62.76,5.41,5.41,0,0,1,.5.89Z"/>
    <path d="M583.66,317.76a3.07,3.07,0,0,0-.07-.83,3.61,3.61,0,0,0-.28-.84,4.06,4.06,0,0,0-1.18-1.44,4.19,4.19,0,0,1,1.59,1.16,3.78,3.78,0,0,1,.57.86,4.05,4.05,0,0,1,.37,1Z"/>
    <path d="M586.31,316.82a9.55,9.55,0,0,0-.58-2.12,5.29,5.29,0,0,0-1.23-1.88,5.44,5.44,0,0,1,1.67,1.64,10.65,10.65,0,0,1,1.11,2.12Z"/>
    <path d="M588.68,315.58a9.38,9.38,0,0,0-.54-2.21,5.93,5.93,0,0,0-1.18-2,6.28,6.28,0,0,1,1.63,1.77,10.68,10.68,0,0,1,1.07,2.23Z"/>
    <path d="M591.49,314.28a9.19,9.19,0,0,0-.19-1.23,10.73,10.73,0,0,0-.35-1.23,7.22,7.22,0,0,0-1.28-2.23,7.33,7.33,0,0,1,1.73,2,10.54,10.54,0,0,1,.61,1.21,8.67,8.67,0,0,1,.46,1.3Z"/>
    <path d="M594.64,313a9,9,0,0,0-.07-1.25,7.69,7.69,0,0,0-.25-1.25,6.12,6.12,0,0,0-1.17-2.3,6.33,6.33,0,0,1,1.64,2.12,10.13,10.13,0,0,1,.85,2.63Z"/>
    <path d="M597.67,312a7.94,7.94,0,0,0,.05-1.21,8.74,8.74,0,0,0-.15-1.24,5.77,5.77,0,0,0-1-2.31,6.09,6.09,0,0,1,1.47,2.17,8,8,0,0,1,.41,1.28,8.23,8.23,0,0,1,.21,1.36Z"/>
    <path d="M600.6,311.45a12.91,12.91,0,0,0,.07-2.57,5.79,5.79,0,0,0-.67-2.5,6.27,6.27,0,0,1,1.17,2.42,14.08,14.08,0,0,1,.43,2.7Z"/>
    <path d="M604.13,310.62a9.85,9.85,0,0,0,.19-1.15c0-.4,0-.8,0-1.2a7.85,7.85,0,0,0-.38-2.39,8.14,8.14,0,0,1,.88,2.34c.09.41.15.83.2,1.25a11,11,0,0,1,0,1.3Z"/>
    <path d="M607.89,310.24a8,8,0,0,0,.39-1.17,8.68,8.68,0,0,0,.21-1.24,5.36,5.36,0,0,0-.33-2.53,5.66,5.66,0,0,1,.83,2.52,10.29,10.29,0,0,1,0,1.36,9.67,9.67,0,0,1-.18,1.38Z"/>
    <path d="M611.62,310.31a11.16,11.16,0,0,0,.89-2.51,5.08,5.08,0,0,0,0-2.68,5.45,5.45,0,0,1,.52,2.74,12,12,0,0,1-.47,2.83Z"/>
    <path d="M615.38,310.51a7.65,7.65,0,0,0,.74-1.11,6.69,6.69,0,0,0,.53-1.27,4.75,4.75,0,0,0,.06-2.77,5,5,0,0,1,.43,2.87,7.19,7.19,0,0,1-.33,1.46,8.65,8.65,0,0,1-.62,1.41Z"/>
    <path d="M619.14,310.87a6.23,6.23,0,0,0,.77-1.07,6.78,6.78,0,0,0,.57-1.22,5.56,5.56,0,0,0,.31-1.34,5.07,5.07,0,0,0,0-1.4,5.15,5.15,0,0,1,.3,1.4,6,6,0,0,1-.07,1.46,7.84,7.84,0,0,1-.38,1.42,7.47,7.47,0,0,1-.66,1.37Z"/>
    <path d="M622.66,312.4a10,10,0,0,0,.86-1.14,9.77,9.77,0,0,0,.72-1.26,6.4,6.4,0,0,0,.7-2.83,6.7,6.7,0,0,1-.23,3,10.82,10.82,0,0,1-.53,1.44,10.27,10.27,0,0,1-.73,1.39Z"/>
    <path d="M626.13,313.63a12.86,12.86,0,0,0,1-1.18,14,14,0,0,0,.85-1.31,7.29,7.29,0,0,0,.95-3,7.45,7.45,0,0,1-.5,3.19,13.52,13.52,0,0,1-.66,1.51,12.71,12.71,0,0,1-.87,1.43Z"/>
    <path d="M629.67,315.36a13.25,13.25,0,0,0,1.65-2,5.58,5.58,0,0,0,1-2.46,5.85,5.85,0,0,1-.54,2.69,13.64,13.64,0,0,1-1.33,2.46Z"/>
    <path d="M633.13,317.17A13,13,0,0,0,635,315.6a5.46,5.46,0,0,0,1.31-2.05,5.49,5.49,0,0,1-.92,2.35,13.93,13.93,0,0,1-1.58,2Z"/>
    <path d="M636.27,319.2a7.36,7.36,0,0,0,1.09-.66,9.07,9.07,0,0,0,1-.84,5.39,5.39,0,0,0,1.4-2.24,5.64,5.64,0,0,1-1,2.55,9.4,9.4,0,0,1-.89,1.09,8.39,8.39,0,0,1-1.08,1Z"/>
    <path d="M639.35,322a13.43,13.43,0,0,0,1.74-1.64,8.57,8.57,0,0,0,1.36-2,9,9,0,0,1-1,2.3,15.31,15.31,0,0,1-1.46,2.08Z"/>
    <path d="M642.44,324.58a8.5,8.5,0,0,0,1.67-1.22,4.57,4.57,0,0,0,1.2-1.73,4.83,4.83,0,0,1-.81,2.05A8.93,8.93,0,0,1,643,325.4Z"/>
    <path d="M416.29,342.76a1.23,1.23,0,0,0-.42.24,2,2,0,0,0-.38.39,2.86,2.86,0,0,0-.48,1.11,3.05,3.05,0,0,1,0-1.31,3,3,0,0,1,.25-.66,2.36,2.36,0,0,1,.48-.62Z"/>
    <path d="M418.8,343.8a1,1,0,0,0-.36.28,2.44,2.44,0,0,0-.32.45,3.52,3.52,0,0,0-.39,1.13,4.1,4.1,0,0,1-.09-1.27,3.2,3.2,0,0,1,.14-.67,2.09,2.09,0,0,1,.37-.68Z"/>
    <path d="M421.18,344.64a2.25,2.25,0,0,0-.5.4,2.66,2.66,0,0,0-.42.52,2.1,2.1,0,0,0-.3,1.34,2.3,2.3,0,0,1-.16-1.52,3.18,3.18,0,0,1,.26-.77,4.05,4.05,0,0,1,.45-.72Z"/>
    <path d="M423.71,345.34a3.51,3.51,0,0,0-.53.5,3.59,3.59,0,0,0-.45.63,3,3,0,0,0-.43,1.52,3.37,3.37,0,0,1,0-1.7,4.87,4.87,0,0,1,.28-.84,4.76,4.76,0,0,1,.46-.81Z"/>
    <path d="M426.06,346a2.18,2.18,0,0,0-.55.48,3.11,3.11,0,0,0-.42.68,3.31,3.31,0,0,0-.24,1.67,3.52,3.52,0,0,1-.24-1.8,3.39,3.39,0,0,1,.26-.93,3.17,3.17,0,0,1,.56-.88Z"/>
    <path d="M428.8,346.35a2.34,2.34,0,0,0-.5.53,2.86,2.86,0,0,0-.37.69,3.3,3.3,0,0,0-.17,1.66,3.57,3.57,0,0,1-.32-1.76,3.42,3.42,0,0,1,.19-.93,3.34,3.34,0,0,1,.46-.9Z"/>
    <path d="M431.45,346.59a4,4,0,0,0-.49.72,4.17,4.17,0,0,0-.36.84,3.73,3.73,0,0,0-.12,1.88,4,4,0,0,1-.38-2,5.14,5.14,0,0,1,.16-1,4.84,4.84,0,0,1,.37-1Z"/>
    <path d="M434,346.76a4,4,0,0,0-.46.7,4.41,4.41,0,0,0-.35.8,3,3,0,0,0,0,1.77,3.16,3.16,0,0,1-.46-1.85,5.37,5.37,0,0,1,.13-1,5.14,5.14,0,0,1,.33-1Z"/>
    <path d="M437,346.8a5.57,5.57,0,0,0-.41.81,7.11,7.11,0,0,0-.29.89,4.19,4.19,0,0,0-.08,1.9,4.6,4.6,0,0,1-.42-2,7,7,0,0,1,.07-1,6.54,6.54,0,0,1,.22-1Z"/>
    <path d="M440.1,346.76a4.32,4.32,0,0,0-.37.81,5.63,5.63,0,0,0-.23.92,4.16,4.16,0,0,0,.14,1.91,4.51,4.51,0,0,1-.64-1.92,6.14,6.14,0,0,1,0-1.05,5.46,5.46,0,0,1,.19-1.08Z"/>
    <path d="M442.8,346.71a5.23,5.23,0,0,0-.31.87,5.65,5.65,0,0,0-.17.93,3.37,3.37,0,0,0,.31,1.89,3.56,3.56,0,0,1-.81-1.87,5.3,5.3,0,0,1-.07-1,6.78,6.78,0,0,1,.1-1.08Z"/>
    <path d="M445.84,346.45a6,6,0,0,0-.3.93,6.4,6.4,0,0,0-.17,1,4.57,4.57,0,0,0,.23,2,4.86,4.86,0,0,1-.73-2,7.88,7.88,0,0,1-.08-1.09,7.37,7.37,0,0,1,.09-1.13Z"/>
    <path d="M448.63,346.14a5.85,5.85,0,0,0-.31,1,6.68,6.68,0,0,0-.15,1.08,5,5,0,0,0,.36,2.18,5.21,5.21,0,0,1-.86-2.15,7.72,7.72,0,0,1-.1-1.18,6.61,6.61,0,0,1,.11-1.23Z"/>
    <path d="M451.37,345.73a9.42,9.42,0,0,0-.22,2.14,5.6,5.6,0,0,0,.44,2.16,5.8,5.8,0,0,1-.93-2.09,9.49,9.49,0,0,1-.28-2.34Z"/>
    <path d="M454.56,345.67a5.87,5.87,0,0,0-.19,1,7.11,7.11,0,0,0-.05,1,5.66,5.66,0,0,0,.42,2.06,5.78,5.78,0,0,1-.91-2,6.8,6.8,0,0,1-.21-1.11,7.22,7.22,0,0,1-.05-1.15Z"/>
    <path d="M457.6,344.67a7,7,0,0,0-.24,1.16,8.45,8.45,0,0,0-.06,1.23,5.48,5.48,0,0,0,.62,2.39,5.68,5.68,0,0,1-1.11-2.32,8.29,8.29,0,0,1-.2-1.31,7.74,7.74,0,0,1,0-1.36Z"/>
    <path d="M460.46,344.33a7.51,7.51,0,0,0-.14,1.1,7.37,7.37,0,0,0,0,1.15,5.42,5.42,0,0,0,.66,2.22,5.58,5.58,0,0,1-1.15-2.13,8,8,0,0,1-.27-1.2,8.57,8.57,0,0,1-.1-1.26Z"/>
    <path d="M463.26,343.4a5.09,5.09,0,0,0-.23,1,5.56,5.56,0,0,0,0,1.08,4.76,4.76,0,0,0,.67,2.11,5,5,0,0,1-1.16-2,6,6,0,0,1-.24-1.18,6.52,6.52,0,0,1,0-1.25Z"/>
    <path d="M466.16,342.58a4,4,0,0,0-.22.89,4.48,4.48,0,0,0,0,1,3.65,3.65,0,0,0,.62,1.86,4,4,0,0,1-1.12-1.77,5.34,5.34,0,0,1-.21-1.07,4.74,4.74,0,0,1,0-1.13Z"/>
    <path d="M468.59,341.77a5.36,5.36,0,0,0-.23.77,4.58,4.58,0,0,0-.09.83,2.79,2.79,0,0,0,.43,1.62,3,3,0,0,1-.93-1.56,4.75,4.75,0,0,1-.15-.93,5.24,5.24,0,0,1,0-1Z"/>
    <path d="M471,341.29a2.74,2.74,0,0,0-.17.57,4.5,4.5,0,0,0-.07.63,2.65,2.65,0,0,0,.28,1.28,2.92,2.92,0,0,1-.77-1.19,4.23,4.23,0,0,1-.19-.72,3.76,3.76,0,0,1-.06-.77Z"/>
    <path d="M473.42,340.58a4.82,4.82,0,0,0-.25,1.33,2.62,2.62,0,0,0,.28,1.37,2.83,2.83,0,0,1-.77-1.29,7,7,0,0,1-.18-.76,5.18,5.18,0,0,1-.07-.8Z"/>
    <path d="M475.94,340.05a2.3,2.3,0,0,0-.19.56,3.2,3.2,0,0,0-.09.62,2.21,2.21,0,0,0,.34,1.25,2.41,2.41,0,0,1-.83-1.16,3.68,3.68,0,0,1-.17-.73,4.08,4.08,0,0,1,0-.79Z"/>
    <path d="M478.4,339.43a3.6,3.6,0,0,0-.25,1.11,1.52,1.52,0,0,0,.32,1.11,1.75,1.75,0,0,1-.82-1,3.87,3.87,0,0,1-.17-.67,5.07,5.07,0,0,1-.06-.7Z"/>
    <path d="M480.56,339.1c0-.1-.09,0-.09.11a.9.9,0,0,0,.09.36,2.76,2.76,0,0,0,.61.74,3.12,3.12,0,0,1-1-.4,1.39,1.39,0,0,1-.44-.46,1,1,0,0,1-.07-.85Z"/>
    <path d="M483.35,338.19a1.08,1.08,0,0,0,0,.38,1.65,1.65,0,0,0,.06.43,2.28,2.28,0,0,0,.43.83,2.52,2.52,0,0,1-.86-.58,2.93,2.93,0,0,1-.34-.43,2.09,2.09,0,0,1-.26-.56Z"/>
    <path d="M641.35,329.22a2.34,2.34,0,0,1,.53.57,3.11,3.11,0,0,1,.32.63,3.07,3.07,0,0,1,.14,1.3,2.62,2.62,0,0,0-.58-1.05,2.36,2.36,0,0,0-.42-.36,1.09,1.09,0,0,0-.44-.19Z"/>
    <path d="M639.08,330.58a2.11,2.11,0,0,1,.43.64,3.08,3.08,0,0,1,.21.65,4,4,0,0,1,0,1.28,3.86,3.86,0,0,0-.49-1.09,2.45,2.45,0,0,0-.37-.41,1.11,1.11,0,0,0-.38-.25Z"/>
    <path d="M636.81,331.66a3.8,3.8,0,0,1,.52.67,3.53,3.53,0,0,1,.34.74,2.36,2.36,0,0,1,0,1.53,2.05,2.05,0,0,0-.44-1.31,2.92,2.92,0,0,0-.46-.47,2.54,2.54,0,0,0-.53-.35Z"/>
    <path d="M634.41,332.65a5.08,5.08,0,0,1,.54.76,4.88,4.88,0,0,1,.36.81,3.31,3.31,0,0,1,.13,1.7,3,3,0,0,0-.58-1.47,3.53,3.53,0,0,0-.51-.58,3.79,3.79,0,0,0-.58-.45Z"/>
    <path d="M632.05,333.45a3.12,3.12,0,0,1,.64.81,3.43,3.43,0,0,1,.35.9A3.56,3.56,0,0,1,633,337a3.28,3.28,0,0,0-.4-1.63,2.8,2.8,0,0,0-.49-.63,2.37,2.37,0,0,0-.59-.43Z"/>
    <path d="M629.44,334.16a3.23,3.23,0,0,1,.55.85,3.64,3.64,0,0,1,.29.9,3.7,3.7,0,0,1-.15,1.79,3.45,3.45,0,0,0-.33-1.64,3,3,0,0,0-.44-.65,2.58,2.58,0,0,0-.55-.48Z"/>
    <path d="M627,334.78a5.2,5.2,0,0,1,.48,1,5.14,5.14,0,0,1,.25,1,4.09,4.09,0,0,1-.18,2,3.79,3.79,0,0,0-.3-1.87,4.78,4.78,0,0,0-.44-.8,4.26,4.26,0,0,0-.57-.67Z"/>
    <path d="M624.49,335.24a4.77,4.77,0,0,1,.42.93,4.72,4.72,0,0,1,.23,1,3.2,3.2,0,0,1-.28,1.89,2.92,2.92,0,0,0-.2-1.76,5.19,5.19,0,0,0-.42-.77,5,5,0,0,0-.54-.65Z"/>
    <path d="M621.57,335.69a7.44,7.44,0,0,1,.49,2,4.44,4.44,0,0,1-.23,2,4.24,4.24,0,0,0-.26-1.88,6.6,6.6,0,0,0-.38-.86,5.53,5.53,0,0,0-.49-.76Z"/>
    <path d="M618.48,336a4.87,4.87,0,0,1,.29,1,5.31,5.31,0,0,1,.1,1,4.56,4.56,0,0,1-.44,2,4.28,4.28,0,0,0-.06-1.92,5.4,5.4,0,0,0-.31-.88,4.44,4.44,0,0,0-.45-.78Z"/>
    <path d="M615.83,336.28a7.34,7.34,0,0,1,.21,1.06,6.14,6.14,0,0,1,0,1.05,3.58,3.58,0,0,1-.62,1.95,3.38,3.38,0,0,0,.13-1.91,6.83,6.83,0,0,0-.27-.91,5,5,0,0,0-.4-.84Z"/>
    <path d="M612.79,336.34a7.77,7.77,0,0,1,.2,1.12,6.71,6.71,0,0,1,0,1.1,4.87,4.87,0,0,1-.52,2.07,4.68,4.68,0,0,0,0-2,6.3,6.3,0,0,0-.26-1,5.69,5.69,0,0,0-.4-.9Z"/>
    <path d="M610,336.31a6.62,6.62,0,0,1,.22,1.2,6.78,6.78,0,0,1,0,1.19,5.24,5.24,0,0,1-.64,2.22,5,5,0,0,0,.14-2.2,7.77,7.77,0,0,0-.25-1.06,6.45,6.45,0,0,0-.41-1Z"/>
    <path d="M607.26,336.33a9.78,9.78,0,0,1,0,2.36,5.91,5.91,0,0,1-.72,2.18,5.68,5.68,0,0,0,.22-2.2,9.08,9.08,0,0,0-.43-2.11Z"/>
    <path d="M604,335.64a11.62,11.62,0,0,1,0,2.7,8.14,8.14,0,0,1-.67,2.55,8.19,8.19,0,0,0,.17-2.56,11,11,0,0,0-.48-2.45Z"/>
    <path d="M600.89,335.28a9.4,9.4,0,0,1,.15,1.47,10.13,10.13,0,0,1,0,1.46,6.72,6.72,0,0,1-.85,2.71,6.4,6.4,0,0,0,.35-2.73,8.65,8.65,0,0,0-.19-1.34,9.15,9.15,0,0,0-.37-1.28Z"/>
    <path d="M598,334.66a13.5,13.5,0,0,1-.06,3,8.27,8.27,0,0,1-.87,2.86,8.13,8.13,0,0,0,.37-2.89,13.24,13.24,0,0,0-.42-2.83Z"/>
    <path d="M595.29,334.5a6.37,6.37,0,0,1,.17,1.4,6.82,6.82,0,0,1-.13,1.36,5.45,5.45,0,0,1-1.1,2.4,5.22,5.22,0,0,0,.6-2.45,5,5,0,0,0-.12-1.23,5.26,5.26,0,0,0-.36-1.14Z"/>
    <path d="M592.41,333.78a5.38,5.38,0,0,1,.18,1.34,5.25,5.25,0,0,1-.13,1.31,4.39,4.39,0,0,1-1.19,2.21,4.2,4.2,0,0,0,.7-2.27,5,5,0,0,0-.13-1.16,4.72,4.72,0,0,0-.36-1.06Z"/>
    <path d="M589.63,333.22a7.83,7.83,0,0,1,.11,1.15,8.39,8.39,0,0,1,0,1.12,4.13,4.13,0,0,1-.73,2.06,3.94,3.94,0,0,0,.23-2.06,7.35,7.35,0,0,0-.2-1,7.09,7.09,0,0,0-.33-1Z"/>
    <path d="M587.22,333.26a4.46,4.46,0,0,1,0,.89,6.11,6.11,0,0,1-.09.86,4,4,0,0,1-.63,1.56,3.71,3.71,0,0,0,.13-1.58c0-.26-.09-.52-.15-.77a4.42,4.42,0,0,0-.25-.7Z"/>
    <path d="M584.92,332.88a5,5,0,0,1,0,.94,6.85,6.85,0,0,1-.1.91,3.18,3.18,0,0,1-.78,1.59,3,3,0,0,0,.28-1.62,5.37,5.37,0,0,0-.15-.8,4.12,4.12,0,0,0-.25-.75Z"/>
    <path d="M582.29,332.37a4.65,4.65,0,0,1,.1.95,5.39,5.39,0,0,1-.1.91,3,3,0,0,1-.83,1.55,2.71,2.71,0,0,0,.33-1.58,3.37,3.37,0,0,0-.15-.78,3.67,3.67,0,0,0-.28-.69Z"/>
    <path d="M580.08,332.15a5.08,5.08,0,0,1-.08.89,3.59,3.59,0,0,1-.22.84,2.12,2.12,0,0,1-1.07,1.27,1.87,1.87,0,0,0,.59-1.38,3.78,3.78,0,0,0,0-.75,3.88,3.88,0,0,0-.16-.71Z"/>
    <path d="M577.72,332a2.62,2.62,0,0,1-.26.69,5.3,5.3,0,0,1-.33.57,8,8,0,0,1-.79,1,8.93,8.93,0,0,0,.33-1.2,5.6,5.6,0,0,0,.07-.59,2.13,2.13,0,0,0,0-.52Z"/>
    <path d="M575.23,331.94a12.89,12.89,0,0,1-1.59,2.05,13,13,0,0,0,.66-2.42Z"/>
    <path d="M569.49,330.76a60.08,60.08,0,0,1,8.43-8.67,63.62,63.62,0,0,1,10-6.93,45.21,45.21,0,0,1,23.77-5.72,44.6,44.6,0,0,1,6.21.74l3.06.69,3,.92a45,45,0,0,1,11,5.75c.85.59,1.63,1.27,2.44,1.9a26.44,26.44,0,0,1,2.37,2l2.24,2.1.55.52c.15.14.29.28.45.41a6.57,6.57,0,0,0,1,.73,7.68,7.68,0,0,0,5,.91,39.24,39.24,0,0,0,5.76-1.4l.17.36a24.86,24.86,0,0,1-5.48,2.81,9.37,9.37,0,0,1-6.69-.15,8.73,8.73,0,0,1-1.58-.81c-.25-.16-.48-.34-.72-.52l-.6-.46-2.35-1.76c-.77-.61-1.59-1.15-2.39-1.69s-1.6-1.12-2.43-1.61a74.28,74.28,0,0,0-10.22-5.36,37.7,37.7,0,0,0-11.1-2.87,42.65,42.65,0,0,0-22.63,4.31,63.74,63.74,0,0,0-19,14.07Z"/>
    <path d="M570.16,330.88c6.35.84,12.66,1.61,19.07,2.17.8.1,1.61.25,2.4.43s1.54.31,2.33.44c1.56.25,3.13.45,4.71.61,3.16.31,6.34.48,9.51.51a103.29,103.29,0,0,0,18.87-1.66,62.44,62.44,0,0,0,9.13-2.36,37.67,37.67,0,0,0,4.35-1.82,36.12,36.12,0,0,0,4.15-2.34l.13.16a27.59,27.59,0,0,1-3.82,3,38.48,38.48,0,0,1-4.28,2.33,47.29,47.29,0,0,1-9.26,3,76.37,76.37,0,0,1-19.31,1.27c-3.21-.14-6.42-.41-9.61-.83-1.6-.21-3.19-.46-4.77-.77-.8-.15-1.59-.33-2.37-.53s-1.53-.36-2.31-.49c-6.3-.81-12.66-1.83-19-2.92Z"/>
    <path d="M488.18,336.8a63.82,63.82,0,0,0-20.41-12,42.52,42.52,0,0,0-22.95-1.91,37.75,37.75,0,0,0-10.74,4,74.87,74.87,0,0,0-9.6,6.4c-.78.58-1.49,1.24-2.24,1.86s-1.5,1.24-2.2,1.93l-2.16,2-.54.51c-.22.2-.43.41-.67.59a8.44,8.44,0,0,1-1.48,1,9.39,9.39,0,0,1-6.64.85,24.83,24.83,0,0,1-5.75-2.22l.14-.38a38.62,38.62,0,0,0,5.87.79,7.66,7.66,0,0,0,4.91-1.43,6.55,6.55,0,0,0,.91-.83,5.87,5.87,0,0,0,.41-.46l.49-.57,2-2.33a29.87,29.87,0,0,1,2.14-2.22c.75-.71,1.45-1.47,2.24-2.14a44.81,44.81,0,0,1,10.38-6.88l2.88-1.23,3-1a44.12,44.12,0,0,1,6.1-1.39A45.13,45.13,0,0,1,468.49,323a63.05,63.05,0,0,1,10.67,5.85,58.85,58.85,0,0,1,9.3,7.72Z"/>
    <path d="M487.86,336.91c-6.14,1.74-12.36,3.43-18.54,4.9-.76.21-1.51.45-2.24.73s-1.53.54-2.3.77c-1.55.48-3.1.89-4.67,1.27-3.12.76-6.29,1.36-9.47,1.83a75.77,75.77,0,0,1-19.33.77,45.72,45.72,0,0,1-9.53-2,36.73,36.73,0,0,1-4.5-1.86,27.22,27.22,0,0,1-4.11-2.57l.11-.16a41.59,41.59,0,0,0,8.89,3.24,63.9,63.9,0,0,0,9.32,1.39,103.4,103.4,0,0,0,18.94-.34c3.15-.37,6.3-.86,9.4-1.51,1.56-.33,3.11-.69,4.63-1.1.77-.21,1.52-.44,2.27-.68a24,24,0,0,1,2.34-.68c6.31-1.24,12.51-2.66,18.74-4.16Z"/>
    <path d="M353.26,174.58a16.59,16.59,0,0,0-6.49,6.16,20.6,20.6,0,0,0-2.73,8.59,25.6,25.6,0,0,0,.68,9.07,36.55,36.55,0,0,0,3.6,8.58c3.1,5.63,7.26,11,11.35,16.8a89.94,89.94,0,0,1,5.82,9.34,87.31,87.31,0,0,1,4.73,10.14c.72,1.73,1.26,3.51,1.89,5.27s1.06,3.56,1.59,5.35.87,3.61,1.25,5.43.72,3.63,1,5.45a171.16,171.16,0,0,1,1.86,21.76c.36,14.39-.53,28.43-.84,42s-.15,26.79,2.22,39c.3,1.52.59,3,1,4.51l.54,2.22.63,2.18.64,2.16.75,2.11c.46,1.41,1,2.8,1.59,4.2,2.37,5.63,5.43,11.5,8.6,18a116.45,116.45,0,0,1,8.43,22A69,69,0,0,1,403.27,438a78,78,0,0,1-.4,12.78,177.2,177.2,0,0,1-4.32,22.46c-1.66,6.84-3.21,13.11-4,18.88a94.73,94.73,0,0,0-.77,17.72A136.24,136.24,0,0,0,396,528.1c1.15,6.15,2.7,12.33,4.46,18.57s3.74,12.55,5.84,18.89c4.12,12.62,8.4,24.25,13.69,34.4,1.3,2.54,2.79,5,4.25,7.51l2.36,3.78q1.29,1.9,2.53,3.84c1.75,2.58,3.57,5.15,5.47,7.81.92,1.32,1.9,2.66,2.89,4l3,4.06c4,5.5,8.22,11.13,12.37,17.19a216.38,216.38,0,0,1,12,19.37c1.85,3.43,3.57,7.06,5.18,10.73.77,1.88,1.56,3.75,2.27,5.64s1.33,3.83,1.89,5.73A147.7,147.7,0,0,1,479,712c2.13,14.49,2.81,28.08,4.76,41.07a117.43,117.43,0,0,0,4.27,19,85.13,85.13,0,0,0,3.61,9.15,89.16,89.16,0,0,0,4.89,8.86l-2.93,3a62.1,62.1,0,0,1-8.83-6.71,74.35,74.35,0,0,1-7.64-8.3,101.94,101.94,0,0,1-11.68-19.25c-6.38-13.46-10.52-27.22-15.22-39.56q-1.71-4.65-3.6-9c-1.24-2.9-2.51-5.68-3.89-8.31-.67-1.33-1.41-2.58-2.12-3.85s-1.52-2.47-2.27-3.7c-1.59-2.46-3.24-4.89-5.09-7.31-7.2-9.73-16.2-19.19-25.54-29.83l-3.49-4.06c-1.17-1.36-2.34-2.73-3.52-4.17-2.35-2.8-4.64-5.81-6.94-8.84A146.5,146.5,0,0,1,381.1,620a151.21,151.21,0,0,1-9-21.89c-2.39-7.3-4.24-14.51-5.87-21.55s-3-14.11-4.25-21.4-2.21-14.73-2.84-22.32a181.72,181.72,0,0,1-.52-23.16,142.32,142.32,0,0,1,2.9-23.61c1.66-7.87,3.95-14.92,6-21.42a150.18,150.18,0,0,0,4.8-18,53,53,0,0,0,.86-7.93,40.1,40.1,0,0,0-.52-7.52,88.57,88.57,0,0,0-5.28-17.1c-2.4-6.17-5.27-12.83-7.68-20.2a113.73,113.73,0,0,1-4.8-22.88c-1.57-15.28-.41-29.94,1.17-43.95s3.76-27.55,4.65-40.86.53-26.4-2.91-38.74a75.23,75.23,0,0,0-3.14-9.06,79.8,79.8,0,0,0-4.3-8.78c-3.25-5.88-7.11-11.92-10-18.8a44.25,44.25,0,0,1-3.18-11,32.65,32.65,0,0,1,.42-11.58,26.56,26.56,0,0,1,4.77-10.6,21.44,21.44,0,0,1,9.28-6.92Z" style="fill: #603813"/>
    <path d="M749.33,694.29l77.54,28S725.29,553.93,722.87,544c0,0,26.62-42.34,19.36-56.86,0,0-5.75-12.1,10.89-20.57,0,0,31.75-33.87,50.81-65.93,0,0,31.75-47.63,11.49-83.1,0,0,9.68-14.9-6-33.35,0,0-8.77-35.08-35.69-62.3,0,0-10.28-24.8-45.36-67.14,0,0-21.78-40.23-42.35-56.86,0,0-28.67-31.76-41.86-37.51,0,0-55.18-42.64-165.29-24.19,0,0-93.18,35.38-139.15,87.4,0,0-45.67,63.26-68.54,111.86a61,61,0,0,0-5.45,21.46c-.47,6.32-5.59,18.62-28.54,40.29,0,0-27.22,23.27-22.68,49.44,0,0,6.67,25.22-14,47.77a102,102,0,0,0-16.26,22.88c-4.17,8.3-15.58,21.34-45.4,39,0,0-30.85,23.89-34.48,54.44,0,0,11.8,18.8-16.33,43.12,0,0-24.5,24-16.33,45.19,0,0,10,28.43-4.84,51.42,0,0-12.4,31.45,0,50.21,0,0-33.27,16.93-33.27,29.64,0,0-31.76,43.55,24.2,44.15,0,0,11.19-.9,18.14-9.67,0,0-22.68,10-30.85,1.81,0,0-37.2-15.12,23-47.48,0,0,36.29-10.89,46-17.55,0,0,6.66,68.66,55.65,68.36,0,0-30.54-12.71-33.87-27.22,0,0,15.73,16.63,25.4,18.75,0,0-29.64-23-27.82-30.85,0,0-19.06-33.88,21.17-36.3,0,0,7-23.59,11.49-29,0,0,42.65,30.85,49,41.74,0,0,29.33,40.34-19.7,44.87l24.52-3.94S207,762.57,190.54,758.41c0,0,6.2,3.37,15.28.88l-19.65,3.48,4.72.5s-7.08,1.62-12.68-.25c0,0,6.22,3.61,18.65,1,0,0-3,3.35-13.68,3.73,0,0,2.74,3.48,13.93-.25,0,0-10.57,5.72-26.11,5l7.71,1.94s-12.56.05-17.16-2.19c0,0,14.55,9.2,28.6.5a12.87,12.87,0,0,0-3.48,3.74s3,0,6.71-4.49c0,0,15.67-6.21,25.86-15.17,0,0,15.3-16,17.91-31.58,0,0,2.37-14.64-2.87-26.58a41.31,41.31,0,0,1-.56-32c7.06-17.65,19.8-39.91,39.75-42.65,0,0,10.13-3.45,20.25,0,0,0-12.31,1.44-25.74,10.42-23.75,15.89-26.24,49.38-6.11,69.67,5.82,5.87,9.21,13.32,5.15,22.12,0,0-1.66,25.27-24.4,23.48,0,0-6.05.78-12.89,1.84,0,0,8.75,2.77,12.43,3.69,0,0-11.79,8.23-17,.46,0,0,2.08,7.82,23.95,3.68,0,0-5.76,7.37-33.61,15.19,0,0,44.2-3.22,47.88-25.78,0,0,12,44.2,36.83,56.63,0,0,28.78,10.36,39.6-12,0,0-20.26,13.6-38.22,5.53,0,0-10.1-2-23.53-34-4.65-11.06,6.08-22.45,17.38-18.41,18,6.44,39.86,18.13,47.13,38.15,0,0,7.36,26.94-26.25,37.76,0,0,32,6.21,40.52-27.17,0,0-3-43.51-35.45-57.55,0,0,29.46,10.36,36.83,35.45,0,0,12.66-4.6,15.65-20.71,0,0,6-19.57,19.34-29.93,0,0,3.69,15-1.38,28.54a107.49,107.49,0,0,0,8.29-10.12s4.37,10.58-11.05,26.7c0,0-16.12,35.9-47,55.24,0,0,18.87-7.13,36.37-25.78,0,0-30.39,38.22-41.44,45.12,0,0,25.32-13.81,41-37.29,0,0-26.47,50.88-37.29,52.49,0,0,19.72-4.76,36.66-35.91a80.29,80.29,0,0,1,23.57-26.59,86.07,86.07,0,0,0,22.48-23.6s-8.13,28.55-27,41.9c0,0-2.76,2.76-10.58-2.76,0,0,.92,9,17,6.9,0,0-12.89,5.76-22.1,6.91,0,0,17,5.06,29.47-4.15,0,0,27.16-29.69,33.15-47,0,0,11.05-15.65,10.12-36.37,0,0,.7-17.95-3.68-34.07,0,0-8.75-23-16.11-35.45a92.73,92.73,0,0,1-8.29-31.77s6-35.42,3.59-60.58a26.4,26.4,0,0,0-5.93-14.37c-7.67-9.27-22.64-27.72-27.52-36.32l-.14-.24a163.49,163.49,0,0,1-20.94-65.28c-1.28-12.83-3.45-28.26-7.07-39.35,0,0-4.16-13-8.15-39.53a93.5,93.5,0,0,1-.85-19.85c.41-6.55.81-15.45.49-22.34a110.54,110.54,0,0,1,.6-18c2.07-17.53,6.17-50.16,8.83-58,0,0,23-50.42,48.34-68.6S470.13,151.8,593,158.39c0,0,33.29,5.44,61.91,40.61,0,0,22.88,25.56,27.41,37.06,0,0,20.57,51.71,23.59,72,0,0,6.51,22.55,11,45a104,104,0,0,0,3.52,13.09c1.43,4.21,3.68,13.24,6.61,32.59.54,3.51,9.51,13.7,10.28,17.17,0,0,0,.1,0,.16,2.71,12.51-10.42,22.53-21.83,16.72a60.83,60.83,0,0,1-5.55-3.22s-8.2,40.22-13.86,62.39a72,72,0,0,1-5.55,14.34c-8.08,16.09-35.22,67.47-27.68,79.45,0,0-8.24,53.35,34.28,76" style="fill: #603813"/>
    <path d="M927.34,800.64s-62-74.62-77.78-74.17c0,0-46.57-24.87-76-28.94,0,0-21.25-4.52-52.45-28.94,0,0-35.13-13.16-54.87-44.56,0,0,10.32,71.72-101.6,88.38q-.17,31.41-.62,62.82-.56,40.39-1.33,80.78c-.26,14.42-.17,28.86,0,43.3H936.05c.67-9.46,1.14-17.31,1.24-21.8C937.29,877.51,951.31,818.27,927.34,800.64Z" style="fill: #2f4858"/>
    <path d="M679.33,641.3a84.06,84.06,0,0,1-6.11,16.52,101.15,101.15,0,0,1-9.2,15,162.21,162.21,0,0,1-24.17,25.66l-.05.05-.07,0a29.55,29.55,0,0,0-3.68,2.23,26.26,26.26,0,0,0-3.32,2.7l0,.05-.06,0a180.81,180.81,0,0,1-35.39,17.26A190.26,190.26,0,0,1,559,730.21c-6.53,1-13.1,1.38-19.64,1.81s-13.12.6-19.69.6a193.16,193.16,0,0,1-39.15-3.69l0-.2A228.59,228.59,0,0,0,519.61,731c6.53-.12,13-.48,19.57-1,3.26-.23,6.53-.47,9.78-.75l2.43-.21,2.43-.29c1.61-.19,3.23-.37,4.85-.6a195.55,195.55,0,0,0,38-8.81A180,180,0,0,0,632,702.6l-.11.08a28.07,28.07,0,0,1,3.5-2.8,30.87,30.87,0,0,1,3.85-2.27l-.12.08a164.61,164.61,0,0,0,24.35-25.23,99,99,0,0,0,9.35-14.84,82.46,82.46,0,0,0,6.31-16.37Z"/>
    <path d="M674.88,653.62a124.43,124.43,0,0,0,10.59,9c3.67,2.81,7.47,5.47,11.39,7.93s7.92,4.8,12,6.89,8.36,4,12.65,5.69h0l0,0c3.4,2.38,6.91,4.63,10.47,6.79s7.15,4.24,10.82,6.22a203.11,203.11,0,0,0,22.58,10.55c3.87,1.51,7.8,2.86,11.78,4,1,.32,2,.56,3,.81l3,.75c2,.5,4.05,1.07,6.06,1.65q12,3.54,23.66,8.25a208.3,208.3,0,0,1,22.65,10.74c1.86,1,3.62,2.12,5.43,3.16.91.51,1.77,1.14,2.64,1.73l2.61,1.79q5,3.74,9.95,7.6c6.57,5.16,13,10.47,19.24,16a175.39,175.39,0,0,1,17.67,17.87l-.1-.1c4.89,4.57,9.65,9.25,14.26,14.1,2.31,2.42,4.57,4.89,6.75,7.45a67.35,67.35,0,0,1,6.11,8.1l-.13-.17a14.39,14.39,0,0,1,1.9,3,32.3,32.3,0,0,1,1.33,3.09A45.34,45.34,0,0,1,925,823c.21,1.08.41,2.16.53,3.25s.31,2.18.36,3.27l.23,3.28.05,3.28,0,1.64-.06,1.64-.11,3.27q-.24,3.25-.54,6.51l-.83,6.47L923.56,862a127.25,127.25,0,0,0-1.76,12.81q-.64,6.46-1.41,12.92-1.57,12.9-3.54,25.74l-.2,0q1.61-12.88,2.81-25.81.63-6.46,1.17-12.93a123.69,123.69,0,0,1,1.52-13,136,136,0,0,0,2.29-25.68l-.08-3.21-.26-3.2c-.06-1.07-.26-2.12-.39-3.18s-.33-2.1-.55-3.14a42.48,42.48,0,0,0-1.69-6.11c-.39-1-.78-1.94-1.25-2.86-.22-.48-.5-.9-.75-1.35a11,11,0,0,0-.82-1.16l-.09-.09,0-.08a65.78,65.78,0,0,0-5.92-7.84c-2.14-2.52-4.38-5-6.67-7.37-4.57-4.81-9.32-9.48-14.16-14l0,0-.05-.05c-2.65-3.16-5.45-6.21-8.36-9.17s-5.91-5.82-9-8.6c-6.14-5.59-12.53-10.93-19-16.12q-4.87-3.88-9.86-7.64l-2.54-1.76c-.85-.58-1.67-1.2-2.58-1.71-1.78-1-3.52-2.18-5.35-3.16a208.34,208.34,0,0,0-22.43-10.81Q801,718.67,789,715.07c-2-.58-4-1.16-6-1.66l-3-.78c-1-.26-2-.5-3-.84-4-1.19-8-2.57-11.85-4.11a201.79,201.79,0,0,1-22.61-10.78c-3.66-2-7.26-4.13-10.8-6.33s-7.05-4.47-10.46-6.89l.07,0c-4.29-1.78-8.56-3.63-12.66-5.82s-8.13-4.48-12-7-7.69-5.2-11.35-8a124.65,124.65,0,0,1-10.54-9.09Z"/>
    <path d="M46.1,906.11C50,889.27,54.53,872.6,59.27,856s10-33,15.33-49.49,10.62-32.87,16-49.28C95.73,740.79,99,723.73,105,707.49l.19.07c-5.74,16.3-8.73,33.37-13.65,50-5.17,16.48-10.34,33-15.4,49.46S66.2,840,61.18,856.55s-9.89,33.07-14.89,49.61Z"/>
  </g>
</svg>
