<svg id="Layer_1" data-name="Layer 1" xmlns="http://www.w3.org/2000/svg" viewBox="0 0 550 550"><defs><style>.cls-1{fill:#314358;}.cls-2{fill:#fff;}</style></defs><title>tumblr</title><path class="cls-1" d="M56,44.5H406a100,100,0,0,1,100,100v349a12,12,0,0,1-12,12H144a100,100,0,0,1-100-100V56.5A12,12,0,0,1,56,44.5Z"/><path class="cls-2" d="M221,247.74H192v-38s52-11,57-79h45v73h57v44H293V338a33,33,0,0,0,2.32,12.39c4.22,10.38,16,23.74,48.68,10.4l14,41s0,8-33,16a111.24,111.24,0,0,1-29,1.07,84,84,0,0,1-60.62-34.12A65.46,65.46,0,0,1,227,369.74s-6-11-6-35Z"/></svg>